<svg xmlns="http://www.w3.org/2000/svg" width="36" height="37" fill="none" viewBox="0 0 36 37">
  <defs>
    <clipPath id="a">
      <path fill="#fff" d="M0 0h35.95v36.39H0z"/>
    </clipPath>
  </defs>
  <g clip-path="url(#a)">
    <path fill="#CECAC5" d="M0 36.39a16 16 0 0 1 .19-3.66 17.81 17.81 0 0 1 8.57-12.61c.28-.17.58-.31.86-.49a.41.41 0 0 1 .57.05 11 11 0 0 0 3.73 2.09 12 12 0 0 0 11.48-1.92c.56-.42.55-.44 1.14-.1a17.84 17.84 0 0 1 9.11 12.54c.26 1.35.352 2.727.27 4.1H0Z"/>
    <path fill="#CECAC5" d="M17.89 20.52a10.26 10.26 0 1 1 10.27-10.21 10.25 10.25 0 0 1-10.27 10.21Z"/>
  </g>
  
</svg>
