<svg xmlns="http://www.w3.org/2000/svg" width="73" height="73" fill="none" viewBox="0 0 73 73">
  <g clip-path="url(#a)">
    <path fill="#858686" d="M4.56 28.43H1.28A1.15 1.15 0 0 1 0 27.16v-5.35a1.4 1.4 0 0 1 .81-1.35c1.36-.77 2.71-1.56 4.06-2.34l4.87-2.83 3.76-2.19 4.08-2.36L24 7l5.28-3L35.73.18a1.18 1.18 0 0 1 1.27 0c1.693.993 3.387 1.993 5.08 3l6.47 3.75L54 10.08l6.28 3.63c1.72 1 3.42 2 5.14 3 1.72 1 3.68 2.12 5.52 3.17l1.14.67a1.2 1.2 0 0 1 .64 1.11v5.48a1.212 1.212 0 0 1-1.28 1.27h-3.28v43.06A1.15 1.15 0 0 1 67 72.75H5.94a1.28 1.28 0 0 1-1.39-1.4V29.56l.01-1.13Zm2.27 42h2.94c.45 0 .45 0 .45-.44V32.05a1.18 1.18 0 0 1 1.35-1.36h49.69a1.11 1.11 0 0 1 1.18.81c.045.224.065.452.06.68v37.75c0 .65-.06.55.54.56h2.85V27.36a1.13 1.13 0 0 1 1.24-1.22h3.31v-3.72c0-.09-.13-.21-.23-.27-1-.59-2-1.17-3-1.75l-6-3.5c-2.73-1.58-5.45-3.18-8.17-4.76-1.68-1-3.36-1.93-5-2.91L42.47 6c-2-1.14-3.92-2.27-5.87-3.42a.42.42 0 0 0-.48 0c-.667.433-1.377.853-2.13 1.26l-8.21 4.77-8.7 5.05C14.72 15 12.37 16.42 10 17.79l-7.52 4.36a.39.39 0 0 0-.16.28v3.7h3.14c1 0 1.37.4 1.37 1.36v43-.06Zm21-23.86h8.26A1.27 1.27 0 0 1 37.52 48c-.05 2 0 4.09 0 6.14v.37h7.38v-6.72a1.52 1.52 0 0 1 .22-.74 1.12 1.12 0 0 1 1.09-.47h9.28c.93 0 1.34.41 1.34 1.35v22.5h3.34V33H12.52v37.23c0 .06.13.22.2.22h3.18V39.92a1.16 1.16 0 0 1 1.3-1.3h9.32a1.17 1.17 0 0 1 1.31 1.3v6.68-.03Zm0 2.28v5.65h7.37v-5.62l-7.37-.03Zm-9.66 0v5.66h7.35v-5.64l-7.35-.02Zm28.95 5.66h7.35v-5.63h-7.12c-.25 0-.29.11-.29.32v5.08c.09.06.1.14.1.25l-.04-.02Zm-29 15.91h7.1c.24 0 .29-.1.29-.32v-5a2.615 2.615 0 0 0 0-.28h-7.32l-.07 5.6Zm0-23.88c.08.008.16.008.24 0h6.94c.22 0 .28-.07.28-.28v-5.15c.006-.07.006-.14 0-.21h-7.39l-.07 5.64Zm9.74 18.26v5.64h7.06c.26 0 .31-.1.3-.33V64.8h-7.36Zm26.66 5.64v-5.63h-7.34v5.63h7.34Zm-9.67 0V64.8h-7.33v5.31c0 .3.09.37.38.37h6.6l.35-.04Zm-7.33-8h7.34v-5.6h-7.34v5.6Zm-9.66 0h7.35a.784.784 0 0 0 0-.13V57.1c0-.26-.12-.27-.32-.27h-7.03v5.61Zm-2.31 0v-5.58H18.2v5.62l7.35-.04Zm29-5.63h-7.09c-.24 0-.32.07-.31.32v5.09a2.128 2.128 0 0 0 0 .25h7.35l.05-5.66Z"/>
  </g>
  <defs>
    <clipPath id="a">
      <path fill="#fff" d="M0 0h72.72v72.76H0z"/>
    </clipPath>
  </defs>
</svg>
