<svg xmlns="http://www.w3.org/2000/svg" viewBox="0 0 122.38 119.33"><defs><style>.cls-1{fill:#1aade0;}.cls-1,.cls-2{fill-rule:evenodd;}.cls-2{fill:#ccc;}.cls-3{fill:#fff;}</style></defs><g id="Layer_2" data-name="Layer 2"><g id="Capa_1" data-name="Capa 1"><path class="cls-1" d="M87.48,18.43H21.11A21.31,21.31,0,0,0,0,39.72V75.86A21.16,21.16,0,0,0,21.11,97H25.4l.36.54,1.08,21.82,32-21.82.19-.54c17.88,0,49.55,5,49.55-21.11V39.72A21.19,21.19,0,0,0,87.48,18.43Z"/><path class="cls-2" d="M101.45,0H34.89A21.24,21.24,0,0,0,14.32,17a21.45,21.45,0,0,1,6.79-1.08H87.48a23.9,23.9,0,0,1,23.8,23.8v36c6.62-2.86,11.1-8.41,11.1-18.25V21.11A21,21,0,0,0,101.45,0Z"/><rect class="cls-3" x="17.38" y="52.58" width="49" height="4"/><rect class="cls-3" x="17.38" y="62.58" width="80" height="4"/></g></g></svg>