<svg xmlns="http://www.w3.org/2000/svg" width="16" height="16" fill="none" viewBox="0 0 16 16">
  <g clip-path="url(#a)">
    <path fill="#1B1464" d="M3.9 0h10.24a1 1 0 0 1 1 1.05V14.4a.941.941 0 0 1-1 1H3.91l.27-.22a1.88 1.88 0 0 0 .65-1.53v-2.37a4.46 4.46 0 0 0-.19-.88.28.28 0 0 0-.12-.14c-.26-.11-.25-.33-.25-.57V5.52a.3.3 0 0 1 .16-.31.83.83 0 0 0 .38-.73V1.47A1.75 1.75 0 0 0 4 .1L3.9 0ZM10 1.57H7.14a.65.65 0 0 0-.71.71v1.36a.67.67 0 0 0 .76.74h5.63a.69.69 0 0 0 .76-.75V2.3a.64.64 0 0 0-.71-.73H10ZM9.34 11c0 .5.14.64.64.64s.64-.16.64-.63-.14-.62-.58-.62c-.44 0-.7.06-.7.61Zm.66 1.49c-.52 0-.65.13-.66.59-.01.46.13.64.6.66.47.02.68-.21.68-.6s-.12-.65-.62-.65Zm0-5.19c.52 0 .66-.17.66-.62 0-.45-.13-.63-.6-.63s-.68.12-.68.64.11.61.62.61Zm0 2.13c.5 0 .64-.13.64-.6s-.16-.65-.61-.65c-.45 0-.66.14-.67.62-.01.48.09.63.64.63ZM12 11c0 .52.12.65.62.65s.61-.14.63-.6c.02-.46-.18-.65-.56-.66-.61-.06-.69.14-.69.61Zm-4 2.11c0-.5-.1-.62-.55-.62-.45 0-.69.09-.69.55 0 .46.09.7.6.7s.64-.11.64-.63Zm4.61-.67c-.16.07-.4.1-.49.23a.88.88 0 0 0 0 .85c.12.28.39.22.62.22.23 0 .51-.11.53-.3.02-.19.14-.61-.13-.84a1.809 1.809 0 0 0-.54-.16h.01ZM8 6.67c0-.38-.11-.57-.37-.62-.65-.11-.87.07-.87.73 0 .29.09.44.3.5a.85.85 0 0 0 .88-.19.55.55 0 0 0 .06-.22 1.33 1.33 0 0 0 0-.2Zm-.66 2.76c.55 0 .65-.09.65-.57s-.13-.66-.62-.68a.53.53 0 0 0-.63.56c-.01.63.18.72.6.69ZM6.75 11c0 .52.13.65.62.65S8 11.46 8 11s-.09-.64-.59-.66c-.5-.02-.7.17-.66.66Zm5.88-1.52c.52 0 .64-.1.64-.54 0-.44-.13-.71-.62-.71s-.61.15-.63.57c-.02.54.14.66.61.63v.05Zm.64-2.76c0-.49-.13-.62-.6-.62s-.65.1-.65.56c0 .46.09.66.59.69.5.03.71-.25.66-.68v.05Z"/>
    <path fill="#1B1464" d="M.61 10.22V5.34a.23.23 0 0 0-.12-.19.85.85 0 0 1-.49-.87V1.45A1.58 1.58 0 0 1 1.48 0h1.64a1.55 1.55 0 0 1 1.46 1.4v2.78c0 .39-.06.79-.51 1 0 0-.05.12-.05.18v4.74c0 .07 0 .17.05.19.46.18.5.59.51 1 .01.41 0 1 0 1.51a4.16 4.16 0 0 0 0 .61 1.72 1.72 0 0 1-1.3 2 2.99 2.99 0 0 1-.52 0c-.53 0-1.06 0-1.58-.05A1.53 1.53 0 0 1 0 13.93v-2.77a.88.88 0 0 1 .61-.94Z"/>
  </g>
  <defs>
    <clipPath id="a">
      <path fill="#fff" d="M0 0h15.19v15.41H0z"/>
    </clipPath>
  </defs>
</svg>
