<svg xmlns="http://www.w3.org/2000/svg" width="512" height="512" fill="none" viewBox="0 0 512 512">
  <path fill="#FFC107" d="M507 205.9h-20.6v-1.1H256v102.4h144.7c-21.1 59.6-77.8 102.4-144.7 102.4-84.8 0-153.6-68.8-153.6-153.6S171.2 102.4 256 102.4c39.2 0 74.8 14.8 101.9 38.9l72.4-72.4C384.6 26.3 323.4 0 256 0 114.6 0 0 114.6 0 256s114.6 256 256 256 256-114.6 256-256c0-17.2-1.8-33.9-5-50.1Z"/>
  <path fill="#FF3D00" d="m29.5 136.8 84.1 61.7c22.8-56.3 77.9-96.1 142.4-96.1 39.2 0 74.8 14.8 101.9 38.9l72.4-72.4C384.6 26.3 323.4 0 256 0 157.7 0 72.4 55.5 29.5 136.8Z"/>
  <path fill="#4CAF50" d="M256 512c66.1 0 126.2-25.3 171.6-66.5l-79.2-67.1c-25.7 19.5-57.7 31.1-92.4 31.1-66.6 0-123.1-42.5-144.4-101.7l-83.5 64.3C70.5 455.1 156.5 512 256 512Z"/>
  <path fill="#1976D2" d="M507 205.9h-20.6v-1.1H256v102.4h144.7c-10.1 28.6-28.6 53.3-52.3 71.3l79.2 67C422 450.6 512 384 512 256c0-17.2-1.8-33.9-5-50.1Z"/>
</svg>
