<svg xmlns="http://www.w3.org/2000/svg" xmlns:xlink="http://www.w3.org/1999/xlink" viewBox="0 0 430.36 932"><defs><style>.cls-1{isolation:isolate;}.cls-2{fill:#e4202d;}.cls-3,.cls-4,.cls-7,.cls-9{mix-blend-mode:overlay;}.cls-3{fill:url(#Degradado_sin_nombre_2);}.cls-4{fill:url(#Degradado_sin_nombre_2-2);}.cls-5,.cls-6,.cls-8{mix-blend-mode:multiply;}.cls-5{fill:url(#linear-gradient);}.cls-6{fill:url(#linear-gradient-2);}.cls-7{fill:url(#Degradado_sin_nombre_2-3);}.cls-8{fill:url(#linear-gradient-3);}.cls-9{fill:#342979;}.cls-10{fill:none;}</style><linearGradient id="Degradado_sin_nombre_2" x1="475.46" y1="135.1" x2="24.76" y2="-422.92" gradientUnits="userSpaceOnUse"><stop offset="0" stop-color="#fff" stop-opacity="0"/><stop offset="0.09" stop-color="#fff" stop-opacity="0.16"/><stop offset="0.23" stop-color="#fff" stop-opacity="0.38"/><stop offset="0.36" stop-color="#fff" stop-opacity="0.57"/><stop offset="0.5" stop-color="#fff" stop-opacity="0.72"/><stop offset="0.63" stop-color="#fff" stop-opacity="0.85"/><stop offset="0.76" stop-color="#fff" stop-opacity="0.93"/><stop offset="0.89" stop-color="#fff" stop-opacity="0.98"/><stop offset="1" stop-color="#fff"/></linearGradient><linearGradient id="Degradado_sin_nombre_2-2" x1="434.27" y1="168.37" x2="-16.43" y2="-389.65" xlink:href="#Degradado_sin_nombre_2"/><linearGradient id="linear-gradient" x1="366.61" y1="174.52" x2="119.34" y2="-131.62" gradientUnits="userSpaceOnUse"><stop offset="0" stop-color="#fff"/><stop offset="0.29" stop-color="#a6a6a6"/><stop offset="0.54" stop-color="#5f5f5f"/><stop offset="0.75" stop-color="#2c2c2c"/><stop offset="0.91" stop-color="#0c0c0c"/><stop offset="1"/></linearGradient><linearGradient id="linear-gradient-2" x1="434.08" y1="5.91" x2="424.53" y2="-5.91" xlink:href="#linear-gradient"/><linearGradient id="Degradado_sin_nombre_2-3" x1="476.1" y1="134.58" x2="25.39" y2="-423.44" xlink:href="#Degradado_sin_nombre_2"/><linearGradient id="linear-gradient-3" x1="452.4" y1="105.23" x2="205.12" y2="-200.91" xlink:href="#linear-gradient"/></defs><g class="cls-1"><g id="Layer_2" data-name="Layer 2"><g id="Capa_1" data-name="Capa 1"><polygon class="cls-2" points="430.3 0 429.3 0 429.3 0 430.3 0"/><path class="cls-2" d="M428.36,196c-2.56,7.7-6.51,12.81-10.7,16.22a63.91,63.91,0,0,1,11.7,36.93V263h.94V158.36q-.76-3-1.73-6Z"/><path class="cls-2" d="M11.58,212.94C5.12,208.6-.14,201.18,0,188.5V263H.36V249.18A63.87,63.87,0,0,1,11.58,212.94Z"/><path class="cls-2" d="M285.8,185c37.28-28.48,68.47-65.49,92.15-98.92C300.16,25.07,167.79.65,167.79.65L429.3,0H0S10.51,123.12,70,185Z"/><path class="cls-2" d="M429.3,0l-.73,152.38q1,3,1.73,6V0Z"/><path class="cls-3" d="M429.3,0l-.73,152.38q1,3,1.73,6V0Z"/><path class="cls-2" d="M167.79.65S300.16,25.07,378,86.08C410.86,39.63,429.25.1,429.3,0Z"/><path class="cls-4" d="M167.79.65S300.16,25.07,378,86.08C410.86,39.63,429.25.1,429.3,0Z"/><path class="cls-2" d="M378,86.08c-23.68,33.43-54.87,70.44-92.15,98.92h79.39a64.1,64.1,0,0,1,52.47,27.25c4.19-3.41,8.14-8.52,10.7-16.22l.21-43.65C420.29,126.65,401.65,104.67,378,86.08Z"/><path class="cls-5" d="M378,86.08c-23.68,33.43-54.87,70.44-92.15,98.92h79.39a64.1,64.1,0,0,1,52.47,27.25c4.19-3.41,8.14-8.52,10.7-16.22l.21-43.65C420.29,126.65,401.65,104.67,378,86.08Z"/><polygon class="cls-2" points="429.3 0 429.3 0 429.3 0 429.3 0"/><polygon class="cls-6" points="429.3 0 429.3 0 429.3 0 429.3 0"/><path class="cls-2" d="M378,86.08c23.7,18.59,42.34,40.57,50.62,66.3L429.3,0h0C429.25.1,410.86,39.63,378,86.08Z"/><path class="cls-7" d="M378,86.08c23.7,18.59,42.34,40.57,50.62,66.3L429.3,0h0C429.25.1,410.86,39.63,378,86.08Z"/><path class="cls-8" d="M378,86.08c23.7,18.59,42.34,40.57,50.62,66.3L429.3,0h0C429.25.1,410.86,39.63,378,86.08Z"/><path class="cls-2" d="M11.58,212.94a64.09,64.09,0,0,1,53-27.94H70C10.51,123.12,0,0,0,0V188.5C-.14,201.18,5.12,208.6,11.58,212.94Z"/><path class="cls-9" d="M11.58,212.94a64.09,64.09,0,0,1,53-27.94H70C10.51,123.12,0,0,0,0V188.5C-.14,201.18,5.12,208.6,11.58,212.94Z"/><rect class="cls-10" x="0.36" width="430" height="932"/></g></g></g></svg>