<svg xmlns="http://www.w3.org/2000/svg" width="44" height="44" fill="none" viewBox="0 0 44 44">
  <g clip-path="url(#a)">
    <path fill="#342979" d="M12.28 3.87a20.59 20.59 0 0 1 15.29-1.65 20.28 20.28 0 0 1 12.3 9.6 20.07 20.07 0 0 1-2 22.66 20.66 20.66 0 0 1-21.49 6.69 20.33 20.33 0 0 1-12.29-9.6 20.08 20.08 0 0 1 2-22.67 20.43 20.43 0 0 1 6.19-5m-.7-1.28a21.59 21.59 0 0 0 4.38 40 22.09 22.09 0 0 0 16.38-1.77A21.58 21.58 0 0 0 28 .83a22.16 22.16 0 0 0-16.42 1.76"/>
    <path fill="#342979" d="M26.56 1.51h.13a.79.79 0 0 1 .31.09h.09l.38.09h.3l.2.05h.16-.16l-.2-.05-.25-.06m9.15 4.94s-.05 0-.08-.08Zm-.24-.2-.07-.07Zm-.22-.19.07.05.1.1s.07 0 .08.08M33 3.92l.18.1.54.31"/>
    <path fill="#342979" d="M34.07 4.57c-.11-.07-.22-.13-.31-.2a6.08 6.08 0 0 0-.57-.37L33 3.92A13.996 13.996 0 0 0 31.16 3m12.03 21.53v-.06a.27.27 0 0 0 0-.12 1.005 1.005 0 0 0 0-.17 1.005 1.005 0 0 0 0-.17.13.13 0 0 0 0-.09 1.42 1.42 0 0 0 0-.2 2.101 2.101 0 0 1 0-.21v.41a.13.13 0 0 1 0 .09.965.965 0 0 1 0 .17.965.965 0 0 1 0 .17c.009.06.009.12 0 .18m-.02.18a.34.34 0 0 1 0 .14Zm.16-4.54c.005.093.005.187 0 .28v1.18a10.37 10.37 0 0 0 0-1.46v-.05a14.003 14.003 0 0 0-.23-1.93v-.05m-.02 0v-.29c0-.05 0-.21-.07-.32-.07-.11-.1-.45-.15-.72.108.395.194.796.26 1.2v.13M41 12a.249.249 0 0 1 0 .07 24.836 24.836 0 0 1 1.8 4.7m-1.86-4.78v.02h.01v.01m-1.05-1.73a7.335 7.335 0 0 0-.58-.84Zm-27.05-.24a1 1 0 0 1-.08-.15l-.18.07-.13.18.15.2.21-.11.07-.09v-.1m-.8.02s0 .07-.06.11v.05s-.06 0-.12.15 0 0-.06.08a.23.23 0 0 0 .11 0 .17.17 0 0 0 .08-.06.79.79 0 0 0 .12-.14.457.457 0 0 0 0-.13l-.07-.06Zm-.4-3.85-.25.11-.17.08.06.13.07.1.28-.12.06-.14.14-.12-.19-.04Zm3.16-3.95h.17a.78.78 0 0 1 .12-.05c.15-.1.316-.174.49-.22m.05.05a.3.3 0 0 1-.11.06Zm1.16-.34a.21.21 0 0 1 .12 0h.15m4.56-.6v.02l.02-.02h.29m5.63 1.56c.03.01.06.01.09 0h.18v-.05l-.17-.08-.09.08-.1.1m1.73-.07s.06 0 .28.14h-.19a1.732 1.732 0 0 0-.24-.1l-.32-.06h-.3a1 1 0 0 1-.26-.08 1.72 1.72 0 0 1-.26 0c.1-.1.16-.18.22-.25a.75.75 0 0 0 .25.11c.153.04.3.097.44.17h.08a1 1 0 0 1 .16.06l.2.07s.07 0 .1.06h-.08"/>
    <path fill="#342979" d="m36.41 6.34-.06-.06-.07-.05L36 6c-.2-.17-.41-.33-.61-.48-.44-.34-.88-.67-1.27-.94-.11-.07-.22-.13-.31-.2l-.54-.31a1.603 1.603 0 0 1-.27-.15A13.996 13.996 0 0 0 31.16 3c-.9-.36-2.1-.79-3-1.09V2c.11 0 .2.1.33.1a.44.44 0 0 0-.17-.06c.09 0 .09 0 .61.17h.05-.16a.19.19 0 0 1-.1 0M27 3.64v-.06h-.06l-.12-.06v.07h.06c.01 0 0 .05.07.06a.2.2 0 0 0 .08 0L27 3.64Zm2.54.95s.16.11.2.08c.04-.03 0 0 0-.07l.26-.08s.19.06 0 .15 0 .06.06.09v.05c.2.1.2.1.21.21h.06v-.16h.1l.05-.06c-.12-.06-.12-.06-.14-.09h.06l.1-.06a.13.13 0 0 0-.07-.06h.18l.06-.06c.06-.06-.06 0-.07-.07a.75.75 0 0 0-.25-.09c-.05 0-.05 0-.06-.06a.4.4 0 0 1-.13-.07h.05L30 4c-.11 0-.21-.07-.32-.08 0 0 .13.05.13.11l-.38-.15c-.17-.09-.33-.18-.39-.13h-.07a1.6 1.6 0 0 1-.23 0c-.1 0-.18-.07-.28-.08-.1-.01-.18 0-.28 0l-.12-.11H28c-.06 0-.1-.09-.17-.12l-.26-.1c-.06 0-.11.1-.18.14-.32-.21-.36-.22-.4-.21l-.09.06c-.09.06 0 0 .25.11.06 0 .15 0 .2.1.05.1-.11 0-.15 0a.29.29 0 0 0 .33.09.09.09 0 0 0 .06 0h.05c.07 0 .14 0 .2.09s0 .06.11.13h.17L28 3.84c.122.023.24.064.35.12V4h.28c.18 0 .3.12.47.12.17 0 .25 0 .3.17a.3.3 0 0 0-.16 0h.11-.05.14c.03 0 .1-.06.18 0l.07.09m-1.47.02h-.07l.42.22a.12.12 0 0 0 .09 0c.07 0 .12.07.19.09l-.06.06.09.08L29 5c.11.11.27.09.27.05 0-.04 0-.07.09-.05.09.02 0 0-.11-.18l.21-.15h-.24a2.218 2.218 0 0 0-.41-.24h-.13a.09.09 0 0 0-.05-.08l-.35-.11h-.16v.07l.06.07H28c.11 0 .21.11.31.15l-.09-.13ZM42 29.09a.15.15 0 0 0 0-.09.82.82 0 0 0 .08-.21v-.11l.11-.34c0-.08 0-.17.08-.27.056-.147.102-.297.14-.45v-.11c.1-.265.187-.536.26-.81.17-.658.3-1.326.39-2 .005-.06.005-.12 0-.18v-.06c0-.23.06-.49.1-.81a2.101 2.101 0 0 1 0-.21c.064-.588.087-1.18.07-1.77v-1.18a2.615 2.615 0 0 0 0-.28v-.1a14.003 14.003 0 0 0-.23-1.93v-.05a1.352 1.352 0 0 1 0-.29c0-.1 0-.21-.07-.32-.07-.11-.1-.45-.15-.72a24.836 24.836 0 0 0-1.8-4.7.249.249 0 0 0 .02-.1c-.29-.59-.625-1.16-1-1.7-.22-.29-.48-.66-.85-1.18L38 7.86a2.49 2.49 0 0 0-.43-.29c.11.31.43.48.59.75h-.05c-.07 0-.15-.11-.22-.14l-.08.1L35.84 7c0 .18-.11.31-.12.48-.21-.09-.21-.09-.35-.06 0 .11 0 .23.06.33a.81.81 0 0 0-.2.21c.16.22.16.22.17.31l-.11.07a.261.261 0 0 1 0 .11.23.23 0 0 1-.11 0 .27.27 0 0 1-.33.06.18.18 0 0 0-.1 0c.103.178.227.342.37.49a1 1 0 0 1-.2.14l.4.42a.34.34 0 0 0-.17.25c.2.24.36.49.54.73.051.068.108.132.17.19l-.2.14a1.8 1.8 0 0 1 .17.6c-.35.57.44 1 .23 1.53 0 0-.07.07-.1.08.146.32.257.656.33 1l.14.22.35-.17s.07.07.11.08c.103.383.265.747.48 1.08l.13.22a.59.59 0 0 1 0 .34c.087.143.184.28.29.41a.666.666 0 0 0 .06.12c.15.29.23.33.58.48l.11-.05c.11.07.16.19.26.27h.12c.21.54.21.54.76.56.04.116.087.23.14.34.22.06.41.23.66.18v-.39a1.03 1.03 0 0 0 .19-.13 1.07 1.07 0 0 1 .22-.1l.1.09c.27-.21 0-.64.42-.78v-.08a.76.76 0 0 1 .06-.25h.12c.21.45.21.45.31.49.096-.072.187-.153.27-.24 0 .13.08.29.14.5.4 1.7.61 2.54.71 3 .052.234.088.471.11.71v.15a23.598 23.598 0 0 1-.22 4.52c-.05.21-.09.45-.14.68-.11.53-.17.84-.22 1.12v.11a3.885 3.885 0 0 1-.14.45c0 .1-.05.19-.08.27l-.11.34v.11A.82.82 0 0 1 42 29c.004.02.004.04 0 .06a.9.9 0 0 1 0 .09l-.1.26m-11.97 9.82s0 .05.13.08a.37.37 0 0 1 .13.12h-.21v.22c.06-.01.12-.01.18 0v.08c0 .08.06 0 .09 0l.06.06c-.15.11-.15.11-.2.19l.06.05h.08c.08 0 0 0 .06.08a.36.36 0 0 0 .15.08h.17c.11.043.224.076.34.1h.17l.17-.06h.08l.21-.12a.26.26 0 0 1 .07-.11l-.18.06h-.08l-.09-.06-.11-.15a.697.697 0 0 0 0-.14l.13-.08a.15.15 0 0 0 0-.08c.07-.167.153-.328.25-.48h-.18c-.18-.06-.18-.06-.22-.11-.04-.05 0 0 0-.06a.42.42 0 0 1 .11-.16l.2-.11a.36.36 0 0 1 0-.23.8.8 0 0 0 0-.27c.15-.07.15-.07.18-.18.03-.11 0 0-.06 0a.24.24 0 0 1-.13.11l-.1-.15a.23.23 0 0 0 0-.11.46.46 0 0 1 .15-.05h.1a.46.46 0 0 0 .21-.19.382.382 0 0 1 0-.08.12.12 0 0 1 0-.08 1.286 1.286 0 0 0-.1-.15v-.08c.07-.05.144-.098.22-.14l.09-.06a.53.53 0 0 0 .14-.12c.09-.046.183-.083.28-.11.106-.189.196-.386.27-.59v-.23a.16.16 0 0 1-.1 0 .33.33 0 0 0 0-.13.54.54 0 0 0-.26-.06v-.07a.561.561 0 0 1 .17-.09c.7-.23.7-.23.84-.6.38-1 .38-1 .4-1a.541.541 0 0 0 0 .19c.07 0 .61-1.12.43-1.41-.18-.29-.2-.31.36-1.16l.23-.12c.069-.105.13-.215.18-.33.208-.097.397-.229.56-.39a.41.41 0 0 1 0-.17c.07-.06.07-.06.31-1.14v-.6a.48.48 0 0 1 0-.13 1.381 1.381 0 0 0 0-.45v-.13a.323.323 0 0 1 0-.09.583.583 0 0 0 0-.17.879.879 0 0 1 0-.43s.3-.72.37-.94l.19-.8a.861.861 0 0 0 0-.4c-.27-.61-.38-.61-.51-.61a3.327 3.327 0 0 1-.3.16c-.33.07-.65-.4-1-.06l-.36.21c-.32 0-.52 0-.45.26 0 .08-.09.16-.32.14 0-.07 0-.07.08-.26h-.78a.24.24 0 0 1-.14 0 .37.37 0 0 0-.35.14c0 .09.07.19.11.28l-.25.14a1.26 1.26 0 0 1-.05-.21.748.748 0 0 0 .05-.16l.06-.11a.21.21 0 0 1-.07 0l-.39.06-.07.05h-.07v.1c.07.15.11.26-.15.35 0 0 0-.08-.06-.19.17-.64.17-.64 0-.78l-.16.09c-.05-.11-.1-.22-.14-.33l-.35-.3s-.8.05-1 0c-.2-.05-.29.2-.45.28l-.13.06c-.65.22-.76.11-1.05-.16h-.47c-.25.09-.3-.05-.36-.18l-.13.08c-.22.22-.22.22-.28.24l-.16-.21a.39.39 0 0 0 .11-.15c-.11 0-.12-.06-.36 0l-.48.17h-.06a.352.352 0 0 0-.27.1c0 .35 0 .35-.07.42a1.17 1.17 0 0 0-.56 0c-.132.07-.269.13-.41.18l-.18.05c0-.05-.07-.12-.16-.15s-.46 0-.64.15a.24.24 0 0 1 0 .27.38.38 0 0 0-.22.27c0 .24.27.33.3.55-.41 0-.32-.48-.58-.61 0-.14.13-.47.13-.47h-.08l-.13.08c-.18.15-.21.18-.09.38-.11.07-.23.12-.41.25a.929.929 0 0 1-.51.54c.05.13.12.25.18.41.06.16-.07.14-.21.21a.69.69 0 0 0 0 .35.64.64 0 0 0-.11.53c.06.01.12.01.18 0 .13.26.6.41.38.76.16.4.16.4.12.52l-.17.11.14.18a1.002 1.002 0 0 1-.12.2s0 .09.05.12c-.15.14-.25.21-.08.5a.46.46 0 0 0-.22.17c.11.14.14.34.28.47h.09c.08-.1.08-.1.25-.15a1.7 1.7 0 0 1 .07.18c-.07.08-.17.13-.21.22-.04.09.07.12-.06.34.06.15.06.15.27.23v.05c.33.54 1.12.15 1.45.66l.08.12c1.71.86 1.71.86 1.84.81a2.21 2.21 0 0 1 1.3.15l.16-.08c.08.16.18.34.27.5.017.061.037.121.06.18v.06a.472.472 0 0 1 .06.09v.09a.51.51 0 0 0 .07.17l.07.08c.07.08 0 0 0 .08a.36.36 0 0 1 0 .12l.13.14a.211.211 0 0 1 0 .08c.05.17 0 .36.07.53.058.24.098.484.12.73.43.53.51.64.36 1a.29.29 0 0 0 .05.1v.08c0 .15-.07.29-.06.44.25.15.27.25.27.52.02.003.04.003.06 0a.21.21 0 0 1 .1.11.12.12 0 0 1-.07.07c0 .19 0 .19.09.23h.08l.12-.05-.12-.29a.893.893 0 0 0 .14-.07v.13a.694.694 0 0 0-.06.09.54.54 0 0 1 .47.32c.025.107.062.211.11.31-.05.01-.1.01-.15 0l-.05-.05M24 22.3c-.05 0-.05-.12-.1-.18a1.18 1.18 0 0 1-.36.26l-.12.07h-.3s0 .12-.09.16c-.07.048-.144.091-.22.13-.09.05-.18 0-.28 0h-.34l-.47.23c-.08 0-.08 0-.23.16l.2.38c.124.05.256.077.39.08l.14-.06c.16-.09.16-.3.33-.4.17-.1.17 0 .23-.08s.13-.11.21-.14c.17-.088.329-.2.47-.33a.2.2 0 0 1 .13-.06 1.78 1.78 0 0 0 .36-.13l.13-.07a.541.541 0 0 0 .09-.12h-.18m-3.37 1.97h-.14a.655.655 0 0 1-.14 0h-.06c-.12.071-.243.135-.37.19a.32.32 0 0 0 .14.08.122.122 0 0 0 .11-.05.501.501 0 0 1 .22 0l.07.07c.07.07 0 0 0 .05s.1 0 .14-.07a.906.906 0 0 0 .05-.17s0-.09-.09-.11m-.38-1.04-.17.08c-.15.07-.26.19-.42.21-.16.02-.21-.06-.32-.07-.16-.01-.32-.01-.48 0h-.24c-.04 0-.07-.07-.17 0-.094.07-.195.13-.3.18l-.09.12c-.05.07-.12 0-.17.06l-.29.15c-.25.12-.25.12-.28.16-.16.36.49.49.72.15.07-.07.07-.18.15-.24a.996.996 0 0 1 .24-.13s.32-.05.43.07c.11.12 0 0 .09 0 .123-.013.243-.04.36-.08.09-.06.13-.06.2 0a.52.52 0 0 0 .45 0l1-.51a1.16 1.16 0 0 0-.73-.14m3.04-19.66c-.09-.05-.09-.05-.11-.08-.02-.03 0 0 0 0s-.11 0-.08-.13 0 0 .17-.13L22.94 3h-.26a.9.9 0 0 1-.21-.08c-.06.005-.12.005-.18 0l-.1.07v.06s.07 0 .05.09c-.05 0-.14 0-.19.09-.05.09-.07.09-.06.12.01.03 0 0 0 0s-.07 0-.09.07h-.13a.35.35 0 0 0-.11 0h-.16.11-.13s-.12.09-.11.14c.01.05.26.13.31.07a.5.5 0 0 1 .43 0 .41.41 0 0 0-.26.16l.18.05a.41.41 0 0 0 .11-.07h.05l.22.09h.2c.06-.09.06-.09.13-.13h.06c.08-.09.16 0 .26 0a.28.28 0 0 0 .19-.09l-.06-.17Zm-1.46 7.85c-.12-.12-.12-.12-.13-.28l-.11-.08c-.13.07-.13.07-.18.07-.104 0-.208-.01-.31-.03a.15.15 0 0 0-.11 0 2.429 2.429 0 0 0-.24.1h-.15c-.06-.19-.06-.19-.06-.23v-.08a.17.17 0 0 0-.11-.18h-.05c-.05 0-.06 0-.1.05-.04.05-.08.08-.08.12 0 .04 0 0 .07.08l.06.14a2.82 2.82 0 0 1-.08.61.89.89 0 0 0 0 .22.26.26 0 0 0 .07.16s.08.07.11.11l.8-.45a.33.33 0 0 1 .25 0c.14.04.29.04.43 0v-.06s.05-.07-.16-.28m-2.65.63V12h-.41a.15.15 0 0 1-.07 0l-.09.11h.28c.05.01.1.01.15 0h.19c.02 0 .11 0 .11-.27H19v.1Zm-2.24-9.38h-.62L16 2.6h-.24s-.21 0-.26.08h-.72c-.2 0-.42 0-.65.07h-.12a.7.7 0 0 1-.14 0h.08-.44l-.2.25h-.06.25l-.12.05h.39c-.12 0-.25 0-.37.07h-.14a.92.92 0 0 0-.3.08h.13m-1.48.9h-.1.06v-.07h-.2V4h-.07v.07H11l-.07.06h.06a.418.418 0 0 1 0 .1v.22h.11v-.08.43c.13-.09.13-.09.18-.17h.12v-.07l.07-.06-.07.12h.06-.07a.24.24 0 0 0-.09.08h-.05v.06h.05-.35c-.12-.08-.12-.08-.2 0h-.08v.11l.08.06h.17s-.06.06-.07.1a.22.22 0 0 0 0 .08h-.11l-.08.05h-.06l-.07.08v.12h.23l-.08.1v.06c.08 0 .09 0 .19-.2v.09l-.07.11-.09.06h-.21l-.11.06c0 .16 0 .16-.08.24v.11l.05.08h.09s.06-.1.11-.11c.05-.01.11 0 .16 0s0-.09.08-.11c.08-.02 0 0 .17-.07h.08v.08a.18.18 0 0 0 .09-.07h.07c.14-.18.14-.18.16-.25l-.06.08-.06-.08.08-.07v-.16L11.4 5c0-.07-.07-.08-.1-.12h.08l-.07-.07c-.07-.07-.09 0-.12 0l-.05.07v-.14h.05c.09 0 .09 0 .14-.14h-.09.07l.06-.05-.06-.06h.07c0-.07.06-.12 0-.18v.07m-.82.62v-.19c0-.08-.05 0-.05 0v-.12l-.07.07c0 .06-.05.06-.05.06h-.06v.07c0 .07 0 0 0 0h-.05v.09l-.06.06a.593.593 0 0 0 0 .08v.09l.07-.06h.05v.06a.22.22 0 0 0-.07.06h-.07l-.2.18v.09h.27v-.21h.05v-.07h.07v-.07a.342.342 0 0 0 0-.1l.17-.09Zm-.35.71-.09.07-.07.14h.12a.34.34 0 0 0 .08-.09v-.08"/>
    <path fill="#342979" d="M11.26 6v-.1h-.32l-.15.1-.15.13-.11.07h-.15l-.13.07-.09-.07v-.15l-.16.06s-.06 0-.08.07a.64.64 0 0 0 0 .28l-.07.16.05.09h.1l.15-.1.09-.09c.12.06.12.06.27 0a1.11 1.11 0 0 1 .19-.09l.09-.09v-.08h.07c.31-.17.31-.17.28-.24-.03-.07 0 0 0-.1l.12.08ZM9.33 7.08l-.07.11h.08l-.01-.11Zm.41-.41v-.08h-.08l-.12.12v.18h.16l.08-.09v-.14l-.04.01Z"/>
    <path fill="#342979" d="M9.85 6.1h-.08l-.09.07v.12h.2l.08-.12v-.01l-.11-.06Zm.06-.27h-.09L9.76 6v.07L9.84 6l.05-.05.11-.09v-.07h-.08m-.03-.16-.08.04-.03-.07-.05.07-.01.08-.05.14.07-.01.14-.12.04-.06-.03-.07Zm0-.41a.47.47 0 0 0-.06.09v.06h.07v-.09l-.01-.06Zm-.28.52v-.1l-.14.09v.07l-.06.1-.16.1v.08h.13v.09h.07v-.35l.16-.08Z"/>
    <path fill="#342979" d="m9.33 6.09-.09.05-.02.09.05-.03.07-.05-.01-.06Zm.09.35-.08.08v-.07h-.07c0 .07.07.24 0 .23v-.12H9.2v.24-.24h-.08l-.08.16v.2L9 7l.07-.07h.07v.23L9.17 7h.17v-.26c0-.06.06-.06.07-.11v-.17h-.06m-.62.66a.11.11 0 0 1-.06.07v.09h.07a.43.43 0 0 0 0-.1M9 6.26a.45.45 0 0 0-.08.26L9 6.45v-.19Zm3.61 1.45c-.24.15-.24.15-.26.15v.21l.14.1.15-.07.1-.1v-.19l-.13-.1ZM10 7h-.24c-.17.1-.17.1-.17.14a.24.24 0 0 1-.1.22c-.005.08-.005.16 0 .24v.25l.13-.1.08-.14v-.13h.12l.08-.12.1-.19s.06-.12.07-.17c.01-.05-.07 0-.07 0Zm-.71.83-.07-.09h-.07c.16-.2.16-.2.07-.32h-.1v.11L9 7.51l-.09.09v.11l.06.08c-.11.28-.13.27-.19.16L8.62 8v.13l.06.05h.16v.13a.19.19 0 0 0 .14 0s.08-.14.11-.17l.16-.09.08-.19-.04-.03Zm-.83 0h-.17a.75.75 0 0 1-.07.17c0 .07 0 .07.06.07a.46.46 0 0 1 0 .12l.08-.11.07-.18.03-.07Zm-.35.15-.07.09.07-.01.07-.12-.07.04Zm.82-1.93h-.07l-.09.05-.12.13h.25a.28.28 0 0 0 0-.1m-.14.2H8.6l-.11.11-.08.17.07-.06h.09l.06-.1v-.07l.17-.08-.04.03Z"/>
    <path fill="#342979" d="m8.5 6.41-.04.02-.06.1-.02.06.05-.02.08-.12-.01-.04Zm.11.59v.09V7a.42.42 0 0 0 0-.1v-.11h-.07l-.06.08-.07.06v.08c0 .07 0 .07-.07.22h.06a.2.2 0 0 1-.1.13h-.1v-.17H8l-.13.1-.12.17-.11.13-.13.15-.06.12h.24l.11-.09h.19l-.13.11h-.1l-.09.1v.09h.14L8 7.73l.14-.16.09-.07h.13l.11-.06.09-.13.1-.31h-.05Z"/>
    <path fill="#342979" d="M8.18 6.93v.09h.08l.06-.11-.09.06m-.67.56-.13.15h.06l.18-.25-.11.1Zm.62-.81-.11.12-.07.05c-.13.14-.24.3-.38.45h-.07l-.11.11-.07.12.11-.12v.07l.09-.1.07-.1.11-.14.1-.11-.06.13.07-.07.14-.02.14-.22.11-.16-.07-.01Zm.39 2.46v-.12L8.5 9h-.21l-.07-.15.06-.21-.07-.07.06-.25v-.13h-.1L8 8.2c0 .05 0 .12-.06.19v.27l-.05.11v-.42h-.08v.2h-.09v.1l-.09.06.06-.12.07-.14h-.13l-.09.06-.06.14V8.4h-.1l-.11.15-.1.09-.17.18-.18.18-.05.16-.15.16v.1h.07v.08l.11-.11.13-.06v.06l-.13.13-.13.09-.08.12.08.06.14-.07.19-.14.13-.06h.08v.12l-.22.1a.63.63 0 0 0-.2.1l-.19.19v.22l.17-.07.13-.06v.21l.08.05.19-.08.18-.1.14-.17.15-.13.15-.18.08-.1v.05l.09-.07.18.09.14-.06.12-.09.08-.18-.09-.08h.08l.1-.1Z"/>
    <path fill="#342979" d="m7.64 10.01-.22.25.14-.02.14-.16.12-.1.03-.16-.21.19Zm-.33-1.83h-.07l-.14.13-.1-.02h-.11l-.18.1a.52.52 0 0 1-.07.12l-.11.22-.21.34-.37.52h.13L6 9.92l.17-.22.12-.06.13-.16c.122-.23.27-.444.44-.64l.28-.25.15-.13v-.15l.02-.13Z"/>
    <path fill="#342979" d="M21.87 27.34v-.09h-.1l-.15-.07-.46.24-.32.15-.45.19h-.29l-.46-.14-.11-.25-.18-.3-.12-.45a2.285 2.285 0 0 1-.14-.27l-.26-.13h-.36l-.42.25-.33.08-.26.3h-.31l.13-.27-.09-.12a.798.798 0 0 0-.08-.16v-.64a3.293 3.293 0 0 1-.18-.32l.07-.24-.09-.26h-.2l-.44.28-.28.19v.28L16 26v.37l-.23.16-.31.28-.33.23-.29-.15h-.38l-.25-.2-.39-.23-.4-.52-.25-.41v-.39l-.1-.42-.33-.31.09-.49.23-.14.13-.3.13-.33.33-.1.26-.05.15-.16.24.12.28-.13.2-.13-.12-.13v-.29l.33-.18.22-.15.44-.17.28.13.15-.07v-.17l.11-.1.29.08.3.14c0 .1.1.19.14.27l.18.11.14.15.21.06.18.13h.22l.12.19h.18v-.46l-.23-.24-.3-.36-.39-.26c-.07-.15-.15-.31-.25-.54-.1-.23 0-.22 0-.3v-.44l.22-.23.18-.43.18-.35.24-.26-.06-.22.15-.23-.36-.23-.2-.08-.05-.21-.19-.1.15-.21.31.13v-.56l.07-.2-.1-.51.4-.2.08-.31.3-.2-.17-.13-.13-.34.06-.37.23-.13v-.18l.31-.16.18-.29.06-.29a1.71 1.71 0 0 1 .73-.32v.14c0 .04-.25.12-.37.2a1.66 1.66 0 0 0-.13.27c.043.069.09.136.14.2h.21l.09-.24.07-.15.21-.2.18-.26.22-.19.06-.33.09-.27-.09-.2-.24.21V13l-.31.18h-.34l-.38-.05-.36-.27.12-.3-.17-.26-.36.17-.32.3-.28.45-.19.59-.2.38v-.27l.07-.32.07-.18-.38.1.4-.22v-.23l.11-.29.27-.15v-.26l.18-.19.33-.19.59-.34.35-.12.24-.14.12-.29.05-.34.36-.24.14-.18v-.15h-.19v-.13l-.14-.21-.31.13-.14-.1-.28.16-.14.25-.09.18h-.16l-.06-.17.21-.22.18-.18v-.17l-.2.09h-.26l-.32.09h-.56l-.16-.09.1-.08v-.1l-.33-.11-.38-.13-.56-.23-.19-.17v.34c.04.071.087.138.14.2l-.17.19-.11.2-.22.11-.12-.11h-.21l-.18.17-.08-.28c0-.09-.13-.2-.18-.3l-.11-.15-.25.11h-.25l-.26-.08h-.39l-.07.15-.26.11h-.14l-.28.08-.07.18.2.12v.26l.1.15.21.16-.17.08.11.21v.18h.18l.29.05.18.24c.05.11.11.22.15.33l-.06.3-.14.3-.29.19.29.19c.06.12.11.25.17.37l.19.16v.49l-.29.21-.32-.22-.33-.16a2.134 2.134 0 0 0-.1-.22l-.2-.31-.1-.24-.4.15-.28.12h-.18l-.38.08-.17-.1h-.7l-.36.3-.13-.14-.25-.31h-.2l-.14-.11v-.5l.11-.45.12-.41.21-.22.14-.25-.1-.13-.28.06h-.3l.35-.11h.29l.12-.1v-.19h.25l.12-.11v-.13l.07-.11v-.35l-.17.07-.2.07-.09-.06h-.25l.16-.06h.44l.15-.15.05-.29-.15-.08.15-.08.12.06-.05.18v.29c0 .09 0 .2.07.31l-.15.15.08.13.19-.09a.13.13 0 0 0 .06.11.61.61 0 0 0 .22-.13v-.21l.23-.11h.3l.19-.09v-.18h-.21l-.15-.16-.24.08-.22-.07h-.17a.502.502 0 0 1 0-.12h.15v-.21l.15-.11v-.18l.13-.22v-.1l-.12-.09-.14-.16.14-.11V8l-.15-.1h-.38l.21-.11v-.1h.3l.15-.09.14-.12-.16-.07.07-.07.19.09.16-.06.13.11h.12l.11.08h.16l.14.09h.16l.21.09.11.14-.05.12-.07.27.18.12-.31.23h-.17l-.16.08-.11.3c.019.058.042.115.07.17l.26-.09.2-.1v-.13l.05-.1h.16l.26-.06.36.09.12.1.24.08c.072-.033.142-.07.21-.11l.34.09.35-.17h.27l-.07-.13-.51-.07h-.22l-.14-.09h1.08l-.13-.18V8h-.26l-.2-.2h-.31l-.5-.14.05-.14V7.4l.58.07.26.1.18-.06-.1-.23.14-.18v-.08l.15-.02v-.11l-.12-.13-.25.16a.22.22 0 0 0-.08-.1h-.58a.37.37 0 0 0-.12.07l-.11-.09h-.1l-.21.11h-.09l-.1-.14.14-.08v-.11l-.23.06V6.6l.08-.06h-.34v-.12h-.18l-.16.11h-.26l.07-.12h-.17l-.15.14-.18-.06-.06-.07h-.11v-.08h-.19c-.07.043-.144.08-.22.11v.09l-.11.07h-.11v.11l-.11.07v-.26l-.14-.1-.07-.11-.18.1-.07.14-.13.06-.07.13V7l.1.11v.12l.15.13-.1.07-.15-.09-.06-.21V7l.07-.2.11-.19-.17.08-.16.13-.16.26-.09.31v.34h.17l.11-.05.07.11h-.14l-.14.13.14.11.16-.1.09-.08H11l-.14.15v.15l.13.05-.11.35v.24l-.1.23h-.12l-.12-.21.05-.19-.23-.12-.14.25-.22-.21h-.08v-.36h-.09v-.15L9.61 8h-.17v.11l-.07.06-.1.2v.25l.13.1.14.05v.19L9.31 9v.16l.13-.08.17-.2v.22l-.28.35v.29l-.19-.08v-.24a.2.2 0 0 1-.11.06v-.19h.1v-.27L9 8.92l-.07.23-.14.17.21.1-.1.18v.19l-.49.21h-.34l-.18-.09-.15.2-.24.26v.19l-.07.34-.07-.33-.18-.07-.18.22-.47.14v-.11l.19-.19-.16-.11-.15.08H6.1v-.14h-.16l-.09.06-.1.17-.11.08.06-.3-.18.31h-.1l.08-.34h-.07l-.15.27-.15.19-.13.04-.19.19-.22.25.21-.31.2-.16.12-.12.11-.15-.53.43h-.17l-.29.31h-.12v-.22h-.18v.01h-.07l-.15.12v-.12h-.09V11h-.08a21.55 21.55 0 0 0-2.19 4.6l.14-.12v.1l-.21.25-.1.23a.699.699 0 0 0 0 .12v.21l.26-.37.06-.02a.84.84 0 0 1 .11-.39h.12v.2l.07.15L2 16l.14-.13.07.07h.09v.16l.13.14c0 .06.09.16.14.23l.08-.1.08.1v.2h.15v.22L3 17l-.06.21h.21v.23l.07.2v.51h.15v.29l.17.22v.19l.16.09.18.05h.22l.05.15.19.12.17.11.11.36v.31l-.12-.15-.16-.2v-.15l-.15-.09h-.11v-.25h-.12l-.11-.08h-.24l-.11.07.08.18.13.08.13.12.26.2.11.27.14.35v1.23l-.07.17a2.61 2.61 0 0 1 0 .31l.17.29v.32l.09.24.12.17.05.33.19.22.22.14.2.41.2.11.09.21.22.21.21-.1.22.12.28.05.25.15.13.26.2.24.27.41.23.12.38.1.13.13-.1.22.18.13.26.09.33.08.24.15.06.19.12.13h.23l.29.09.21.11.11.19.07-.12-.07-.22-.19-.2h-.22l-.13-.19-.27-.08-.21-.25-.14-.25-.26-.11-.15-.25h-.21l-.23-.28-.3-.19-.15-.36.15-.11H8l.21.14.12.31.4.3.39.21.32.12.26.15.15.25.32.05.3.15.25.21.47.22.27.24.23.07-.11.19.07.22.47.14.4.11h.4l.47.05h1.11l.44-.07.23-.14v-.16l.26-.17h.39l.48.11.32.13c.08 0 .18-.08.28-.14l.11-.05h.19l.31.15.4-.07-.07-.16h.23c1 .47 1 .47 1 .64l.17.07.1-.12h.25c.57.15.57.15.73 0h.93l-.15-.24v-.21l.45-.21.14.12.14-.08.04-.19Z"/>
  </g>
  <defs>
    <clipPath id="a">
      <path fill="#fff" d="M0 0h43.93v43.38H0z"/>
    </clipPath>
  </defs>
</svg>
