<svg xmlns="http://www.w3.org/2000/svg" width="124" height="15" fill="none" viewBox="0 0 124 15">
  <path fill="#00858F" d="M1.895 11V3.607H4.48c.515 0 .94.09 1.274.267.335.176.584.413.747.712.164.296.246.624.246.985 0 .318-.057.58-.17.787a1.32 1.32 0 0 1-.44.49 1.99 1.99 0 0 1-.589.268v.072c.226.015.454.094.682.238.23.145.42.352.574.621.154.27.231.6.231.99 0 .37-.084.703-.252 1-.169.295-.435.53-.798.703-.363.173-.836.26-1.419.26h-2.67Zm.895-.794h1.776c.585 0 1-.113 1.246-.34.248-.228.372-.505.372-.83 0-.25-.064-.481-.192-.693a1.385 1.385 0 0 0-.545-.512 1.71 1.71 0 0 0-.837-.195H2.79v2.57Zm0-3.35h1.66c.27 0 .513-.053.73-.159.22-.106.392-.255.52-.447.13-.193.195-.42.195-.679 0-.325-.113-.6-.34-.827-.226-.228-.584-.343-1.075-.343H2.79v2.455Zm6.15 6.223a1.864 1.864 0 0 1-.621-.1l.216-.752c.207.053.39.072.549.058a.658.658 0 0 0 .422-.213c.125-.125.24-.328.343-.61l.16-.433-2.051-5.574h.924l1.53 4.419h.058L12 5.455h.925L10.57 11.81a2.405 2.405 0 0 1-.393.71c-.157.19-.338.332-.545.423a1.68 1.68 0 0 1-.693.137ZM16.908 11V5.455h.852V11h-.852Zm.433-6.469a.606.606 0 0 1-.43-.17.545.545 0 0 1-.176-.407c0-.159.059-.295.177-.408a.606.606 0 0 1 .43-.17c.165 0 .307.057.425.17a.54.54 0 0 1 .18.408.54.54 0 0 1-.18.408.593.593 0 0 1-.426.17ZM21.717 11h-2.281V3.607h2.382c.717 0 1.33.148 1.841.444.51.294.901.716 1.173 1.267.272.549.408 1.206.408 1.971 0 .77-.137 1.433-.411 1.99a2.933 2.933 0 0 1-1.199 1.277c-.524.296-1.162.444-1.913.444Zm-1.386-.794h1.328c.612 0 1.118-.118 1.52-.354a2.18 2.18 0 0 0 .899-1.007c.197-.436.296-.954.296-1.556 0-.597-.098-1.11-.293-1.541a2.157 2.157 0 0 0-.873-.996c-.387-.234-.87-.35-1.448-.35h-1.429v5.804Zm6.295.794V5.455h.823v.838h.058c.101-.274.284-.497.549-.668a1.62 1.62 0 0 1 .895-.256l.235.003c.093.003.165.006.213.011v.867a2.532 2.532 0 0 0-.199-.033 1.952 1.952 0 0 0-.321-.025c-.27 0-.51.056-.722.17a1.245 1.245 0 0 0-.679 1.13V11h-.852Zm3.782 0V5.455h.852V11h-.852Zm.434-6.469a.606.606 0 0 1-.43-.17.545.545 0 0 1-.177-.407c0-.159.06-.295.177-.408a.606.606 0 0 1 .43-.17.59.59 0 0 1 .425.17c.12.113.181.249.181.408a.54.54 0 0 1-.18.408.593.593 0 0 1-.426.17Zm2.614.924 1.328 2.267 1.329-2.267h.981l-1.79 2.773L37.094 11h-.981l-1.329-2.151L33.456 11h-.982l1.762-2.772-1.762-2.773h.982Zm7.424-1.054v-.794h5.545v.794H44.1V11h-.895V4.401H40.88Zm8.331 6.715c-.534 0-.995-.118-1.382-.354a2.376 2.376 0 0 1-.892-.997c-.207-.428-.31-.926-.31-1.494s.103-1.068.31-1.502c.21-.435.5-.774.874-1.018.375-.245.813-.368 1.314-.368.289 0 .574.048.855.145.282.096.538.252.77.469.23.214.414.498.551.852.138.354.206.79.206 1.307v.36h-4.274V7.78h3.408c0-.313-.063-.592-.188-.837a1.414 1.414 0 0 0-.527-.581 1.476 1.476 0 0 0-.801-.213c-.34 0-.633.084-.881.252a1.663 1.663 0 0 0-.567.65 1.91 1.91 0 0 0-.198.86v.49c0 .419.072.774.216 1.065.147.289.35.509.61.66.26.15.562.224.906.224.224 0 .426-.031.607-.094.183-.065.34-.16.473-.288.132-.13.234-.292.307-.484l.823.23c-.087.28-.233.526-.437.737-.205.21-.457.373-.758.491a2.81 2.81 0 0 1-1.015.174Zm5.845 0c-.52 0-.968-.123-1.343-.369a2.4 2.4 0 0 1-.867-1.014c-.202-.43-.303-.923-.303-1.476 0-.563.104-1.06.31-1.491.21-.433.501-.771.874-1.015.376-.245.814-.368 1.314-.368.39 0 .741.072 1.054.217.313.144.57.346.769.606.2.26.324.563.372.91h-.852a1.321 1.321 0 0 0-.433-.671c-.222-.198-.52-.296-.895-.296-.332 0-.624.086-.874.26a1.68 1.68 0 0 0-.581.725 2.69 2.69 0 0 0-.206 1.094c0 .428.067.801.202 1.119.137.317.33.564.578.74.25.175.544.263.88.263.222 0 .423-.038.603-.115a1.243 1.243 0 0 0 .726-.852h.852a1.973 1.973 0 0 1-1.105 1.505 2.408 2.408 0 0 1-1.075.228Zm4.277-3.451V11h-.852V3.607h.852v2.715h.072a1.56 1.56 0 0 1 .585-.682c.262-.171.611-.257 1.047-.257.378 0 .709.076.993.228.283.149.504.379.66.69.159.307.238.7.238 1.176V11h-.851V7.535c0-.44-.115-.781-.343-1.022-.227-.243-.54-.364-.943-.364-.279 0-.529.058-.75.176-.22.118-.393.29-.52.517-.125.226-.188.5-.188.823Zm7.406 3.45c-.5 0-.94-.119-1.317-.357a2.428 2.428 0 0 1-.881-1c-.21-.428-.314-.929-.314-1.501 0-.578.105-1.082.314-1.513.212-.43.505-.765.88-1.003.379-.239.818-.358 1.318-.358.5 0 .939.12 1.314.358.378.238.672.572.881 1.003.212.43.318.935.318 1.513 0 .572-.106 1.073-.318 1.501-.21.429-.503.762-.88 1-.376.238-.814.358-1.315.358Zm0-.765c.38 0 .693-.097.939-.292.245-.195.427-.451.545-.769.118-.318.177-.662.177-1.032 0-.371-.06-.716-.177-1.036-.118-.32-.3-.58-.545-.776-.246-.198-.558-.296-.939-.296-.38 0-.693.098-.938.296a1.747 1.747 0 0 0-.545.776 2.97 2.97 0 0 0-.177 1.036c0 .37.059.714.177 1.032.118.318.3.574.545.769.245.195.558.292.938.292Zm4.665-2.685V11h-.852V5.455h.823v.867h.072c.13-.282.328-.508.592-.679.265-.173.607-.26 1.025-.26.376 0 .704.077.986.231.282.152.5.383.657.693.156.308.235.698.235 1.17V11h-.852V7.535c0-.436-.114-.775-.34-1.018-.226-.246-.536-.368-.931-.368a1.49 1.49 0 0 0-.73.176c-.21.118-.378.29-.5.517-.124.226-.185.5-.185.823Zm7.347 3.45c-.5 0-.94-.119-1.318-.357a2.427 2.427 0 0 1-.88-1c-.21-.428-.315-.929-.315-1.501 0-.578.105-1.082.314-1.513a2.43 2.43 0 0 1 .881-1.003c.378-.239.817-.358 1.318-.358.5 0 .938.12 1.314.358.377.238.671.572.88 1.003.212.43.318.935.318 1.513 0 .572-.106 1.073-.318 1.501a2.39 2.39 0 0 1-.88 1c-.376.238-.814.358-1.314.358Zm0-.765c.38 0 .693-.097.938-.292.246-.195.427-.451.545-.769.118-.318.177-.662.177-1.032a2.97 2.97 0 0 0-.177-1.036c-.118-.32-.3-.58-.545-.776-.245-.198-.558-.296-.938-.296-.38 0-.693.098-.939.296a1.746 1.746 0 0 0-.545.776 2.97 2.97 0 0 0-.177 1.036c0 .37.06.714.177 1.032.118.318.3.574.545.769.246.195.559.292.939.292Zm4.664-6.743V11h-.852V3.607h.852Zm3.813 7.509c-.5 0-.94-.12-1.317-.358a2.428 2.428 0 0 1-.881-1c-.21-.428-.314-.929-.314-1.501 0-.578.104-1.082.314-1.513.212-.43.505-.765.88-1.003.378-.239.818-.358 1.318-.358.5 0 .939.12 1.314.358.378.238.671.572.88 1.003.213.43.319.935.319 1.513 0 .572-.106 1.073-.318 1.501-.21.429-.503.762-.88 1-.376.238-.814.358-1.315.358Zm0-.766c.38 0 .693-.097.939-.292.245-.195.427-.451.545-.769.118-.318.177-.662.177-1.032 0-.371-.06-.716-.177-1.036-.118-.32-.3-.58-.545-.776-.246-.198-.559-.296-.939-.296-.38 0-.693.098-.938.296a1.746 1.746 0 0 0-.546.776c-.117.32-.176.665-.176 1.036 0 .37.059.714.177 1.032.117.318.3.574.545.769.245.195.558.292.938.292Zm6.05 2.845c-.41 0-.764-.053-1.06-.16a2.253 2.253 0 0 1-.74-.41 2.251 2.251 0 0 1-.466-.542l.679-.477c.077.101.174.217.292.347.118.132.28.247.484.343.207.099.477.148.812.148.448 0 .817-.108 1.108-.325.291-.217.437-.556.437-1.018V9.975h-.072a4.616 4.616 0 0 1-.267.375 1.516 1.516 0 0 1-.491.394c-.212.113-.498.17-.86.17a2.32 2.32 0 0 1-1.205-.318 2.229 2.229 0 0 1-.841-.924c-.205-.405-.307-.896-.307-1.473 0-.568.1-1.063.3-1.484.2-.423.477-.75.833-.982.357-.233.768-.35 1.235-.35.36 0 .647.06.86.18.213.119.377.253.49.405.116.15.205.272.267.368h.087v-.88h.823v5.703c0 .476-.109.864-.325 1.162a1.85 1.85 0 0 1-.866.66 3.269 3.269 0 0 1-1.206.214Zm-.028-3.047c.342 0 .63-.078.866-.235.236-.156.415-.381.538-.675.123-.293.184-.644.184-1.054 0-.4-.06-.752-.18-1.057a1.587 1.587 0 0 0-.534-.719c-.236-.173-.527-.26-.874-.26-.36 0-.662.092-.902.275a1.67 1.67 0 0 0-.538.736c-.118.308-.177.65-.177 1.025 0 .385.06.726.18 1.022.123.294.304.525.542.693.24.166.539.25.895.25Zm4.534 2.931a1.864 1.864 0 0 1-.621-.1l.217-.752c.207.053.39.072.548.058a.658.658 0 0 0 .423-.213c.125-.125.239-.328.343-.61l.158-.433-2.05-5.574h.924l1.53 4.419h.058l1.531-4.419h.924l-2.354 6.354a2.402 2.402 0 0 1-.393.71c-.156.19-.338.332-.545.423a1.68 1.68 0 0 1-.693.137Zm12.127-7.624a1.135 1.135 0 0 0-.527-.851c-.308-.203-.686-.304-1.134-.304-.327 0-.613.053-.859.16a1.37 1.37 0 0 0-.57.436 1.045 1.045 0 0 0-.202.632.91.91 0 0 0 .14.509c.097.14.219.256.369.35.149.091.305.167.469.227.164.058.314.105.451.141l.751.202c.192.05.407.12.642.21.239.089.466.21.683.364.219.152.399.347.541.585.142.238.213.53.213.877 0 .4-.105.76-.314 1.083-.207.322-.51.579-.91.769-.397.19-.879.285-1.447.285-.53 0-.988-.086-1.375-.256a2.19 2.19 0 0 1-.91-.715 2.04 2.04 0 0 1-.372-1.065h.924c.024.28.118.51.282.693.166.18.375.315.628.404.255.087.529.13.823.13.342 0 .648-.055.92-.166.272-.113.488-.27.647-.469.158-.202.238-.438.238-.707 0-.246-.069-.446-.206-.6a1.514 1.514 0 0 0-.541-.375 5.703 5.703 0 0 0-.726-.253l-.91-.26c-.577-.166-1.034-.403-1.371-.71-.337-.309-.506-.712-.506-1.21 0-.414.112-.775.336-1.083a2.23 2.23 0 0 1 .91-.722 3.07 3.07 0 0 1 1.281-.26c.477 0 .9.086 1.271.257.37.168.664.399.881.693.218.293.334.626.346 1h-.866Zm2.944 5.603a.624.624 0 0 1-.458-.192.623.623 0 0 1-.191-.458c0-.178.063-.33.191-.458a.624.624 0 0 1 .458-.192c.178 0 .331.064.459.192.127.127.191.28.191.458a.674.674 0 0 1-.325.563.617.617 0 0 1-.325.087Zm2.598-.058h-.939l2.715-7.393h.924L120.867 11h-.938l-2.21-6.223h-.057L115.453 11Zm.346-2.888h3.783v.794h-3.783v-.794Z"/>
</svg>
