<svg xmlns="http://www.w3.org/2000/svg" width="52" height="75" fill="none" viewBox="0 0 52 75">
  <g clip-path="url(#a)">
    <path fill="#858686" d="M10.34 31.11c-1.08 1.18-2.16 2.37-3.26 3.52a1.73 1.73 0 0 0-.38 1c-.44 2.69-.87 5.39-1.29 8.08a2.68 2.68 0 0 1-3 2.32A2.66 2.66 0 0 1 0 43.23c.12-1.31.38-2.61.58-3.91.31-2 .63-4 .94-6.07a3.84 3.84 0 0 1 1.32-2.34A647.751 647.751 0 0 0 11.56 23a2.43 2.43 0 0 1 2.92-.46 19.349 19.349 0 0 1 5.24 3.78 1.36 1.36 0 0 1 .28 1.1v14.13a4 4 0 0 0 1.18 3.27c1.47 1.42 2.73 3 4.1 4.57a165.944 165.944 0 0 1 3 3.45 6.059 6.059 0 0 1 1.08 3c.853 4.607 1.713 9.21 2.58 13.81.1.53 0 .69-.55.67H26.3c-.56 0-.71-.2-.79-.7-.72-4.153-1.443-8.3-2.17-12.44a1.72 1.72 0 0 0-.48-.91c-3.47-3.48-6.91-7-10.41-10.45a5.24 5.24 0 0 1-1.81-4.27c.16-3.22.05-6.45.05-9.68v-.54l-.35-.22Z"/>
    <path fill="#858686" d="M51.79 37.24v36.13c0 1 .22.92-1 .92H15.3c-.59 0-.74-.16-.74-.74V57.64c0-.4.081-.794.24-1.16.54-1.33 1.06-2.67 1.6-4 .09-.22.09-.63.39-.58.3.05.34.44.34.76v18.45c0 .51.16.61.64.61h30.76c.58 0 .67-.18.67-.71V3.22c0-.53-.13-.67-.67-.67H17.92c-.65 0-.83.17-.81.82.05 1.53 0 3.06 0 4.59 0 .51 0 .81-.68.68a3.33 3.33 0 0 0-1.4.1c-.35.07-.5 0-.5-.43V.47c0-.55.33-.46.65-.46h9.33C33.4 0 42.21 0 51 0c.61 0 .78.13.78.77-.007 12.153-.003 24.31.01 36.47Z"/>
    <path fill="#858686" d="M1.13 71a12.6 12.6 0 0 1 1.05-3.14c2.707-7.333 5.43-14.637 8.17-21.91.18-.48.26-.53.64-.12 1.45 1.54 2.95 3 4.45 4.53a.8.8 0 0 1 .2 1C12.86 58.24 10.07 65.12 7.37 72a3.19 3.19 0 0 1-6.24-1ZM16.22 9.84a5.67 5.67 0 1 1-.02 11.34 5.67 5.67 0 0 1 .02-11.34Zm5.26 24.03 2.8 2.21c1.84 1.46 3.69 2.9 5.51 4.38a2.731 2.731 0 0 1 .53 3.93 2.77 2.77 0 0 1-4 .33c-1.49-1.18-3-2.37-4.48-3.54a1.17 1.17 0 0 1-.51-1.06v-5.64c.04-.18-.04-.37.15-.61Zm16.14-11.63-4.9-4.89v2.77h-8.48v4.24h8.48v2.78l4.9-4.9Z"/>
  </g>
  <defs>
    <clipPath id="a">
      <path fill="#fff" d="M0 0h51.8v74.32H0z"/>
    </clipPath>
  </defs>
</svg>
