<svg xmlns="http://www.w3.org/2000/svg" width="74" height="69" fill="none" viewBox="0 0 74 69">
  <g clip-path="url(#a)">
    <path fill="#B3B3B3" d="M24.45 28c.136-.324.318-.628.54-.9a17.36 17.36 0 0 1 13.4-4.36A17.06 17.06 0 0 1 47 26c.55.39 1.1.78 1.62 1.2.8.64 1 1.48.45 2.08a1.64 1.64 0 0 1-2.23-.07 15 15 0 0 0-20-.2 1.28 1.28 0 0 1-1.53.31 1.43 1.43 0 0 1-.86-1.32Z"/>
    <path fill="#B3B3B3" d="M46.83 32.82c-.295.37-.63.705-1 1-.52.36-1 .07-1.45-.29A26.207 26.207 0 0 0 42 31.52a10.08 10.08 0 0 0-11.93 1c-.29.27-.58.52-.88.78a1.25 1.25 0 0 1-1.77.07 1.19 1.19 0 0 1-.12-1.77c.891-.939 1.9-1.759 3-2.44a12.37 12.37 0 0 1 14.11.84c.72.557 1.389 1.176 2 1.85.172.309.312.634.42.97ZM47.21 59v-2.54c0-.2.31-.45.53-.56A23.8 23.8 0 0 0 54 51.2a22.301 22.301 0 0 0 4.19-6.2.88.88 0 0 1 1-.62h2c-.43 4.37-8.68 13.01-13.98 14.62Zm-20.58 0a26.45 26.45 0 0 1-14.12-14.59h2.52c.2 0 .45.32.56.55A23.64 23.64 0 0 0 26.17 55.9a.73.73 0 0 1 .47.78c-.03.73-.01 1.46-.01 2.32ZM24.9 11.89l.22 2.46c-1.74 1.47-3.51 2.84-5.13 4.36A20.66 20.66 0 0 0 15.17 26c-.21.52-.44.74-1 .71-.56-.03-1.36 0-2.22 0a41.182 41.182 0 0 1 3.34-6.44 24.6 24.6 0 0 1 9.61-8.38Zm36.72 14.83h-2.33c-.19 0-.4-.29-.51-.49-1-1.75-1.9-3.57-3-5.23a20.45 20.45 0 0 0-6.43-6c-.22-.14-.44-.3-.62-.43l.16-2.69C52.64 12.36 61 22 61.62 26.72Z"/>
    <path fill="#B3B3B3" d="M43 38.42a1.831 1.831 0 0 1-1.37-1 5.54 5.54 0 0 0-7.75-2.12A6.93 6.93 0 0 0 32 37.08c-.58.7-1.34 1-2 .61-.66-.39-.7-1.2-.2-2a8.27 8.27 0 0 1 10-3.15 8.83 8.83 0 0 1 4.05 3.51 1.33 1.33 0 0 1 .15 1.57 5.003 5.003 0 0 1-1 .8Z"/>
    <path fill="#B3B3B3" d="M33.57 41.11a3.32 3.32 0 0 1 3.17-3.35 3.4 3.4 0 0 1 3.4 3.29 3.33 3.33 0 0 1-3.22 3.36 3.28 3.28 0 0 1-3.35-3.3Zm13.86-29.98h-1.49V2.5C45.93.93 45.19 0 43.79 0H30a2.08 2.08 0 0 0-2 2.19c.08 2.71 0 5.43 0 8.14v.83h-1.77v1.82a1.999 1.999 0 0 0 2.22 2.23h8.06c.23 0 .46 0 .74-.05-.05-.586-.05-1.174 0-1.76 0-.25.41-.44.63-.66.19.24.49.46.53.73.04.556.04 1.114 0 1.67H40v-1.47c0-.47.13-.87.62-.91.49-.04.63.41.62.87-.01.46 0 1 0 1.52h1.57a9.004 9.004 0 0 1 0-1.65 1.06 1.06 0 0 1 .61-.72c.42-.09.62.28.62.7v1.65c2.96.43 3.96-1.02 3.39-4Zm-2.73-.52H29.28V2.53a1.36 1.36 0 0 1 1.36-1.36h12.7a1.36 1.36 0 0 1 1.36 1.36v8.08Zm28.96 28.58h-1.49v-8.62c0-1.58-.74-2.47-2.14-2.48H56.26a2.071 2.071 0 0 0-2 2.17c.07 2.71 0 5.42 0 8.14v.83h-1.8v1.82a2 2 0 0 0 2.22 2.22h8.74a11.265 11.265 0 0 1 0-1.76c0-.25.42-.44.64-.66.18.24.48.46.52.72.046.56.046 1.12 0 1.68h1.57v-1.47c0-.47.12-.88.61-.91.49-.03.64.41.63.86-.01.45 0 1 0 1.53h1.57a9.004 9.004 0 0 1 0-1.65 1.06 1.06 0 0 1 .61-.73c.42-.08.62.28.61.71v1.61c3.03.43 4.01-1.02 3.48-4.01Zm-2.74-.52H55.51V30.6a1.36 1.36 0 0 1 1.36-1.36h12.69a1.36 1.36 0 0 1 1.36 1.36v8.07Zm-23.49 25.6h-1.49v-8.63c0-1.57-.75-2.47-2.15-2.48H30.03A2.081 2.081 0 0 0 28 55.34c.08 2.71 0 5.42 0 8.13v.84h-1.77v1.81a1.999 1.999 0 0 0 2.22 2.23h8.8a10.142 10.142 0 0 1 0-1.76c0-.25.41-.45.63-.67.19.24.49.47.53.73.04.556.04 1.114 0 1.67H40v-1.47c0-.47.13-.87.62-.91.49-.04.63.41.62.87-.01.46 0 1 0 1.53h1.57a9.004 9.004 0 0 1 0-1.65 1.06 1.06 0 0 1 .61-.73c.42-.09.62.28.62.71v1.64c2.96.4 3.96-1.05 3.39-4.04Zm-2.73-.52H29.28v-8.07a1.36 1.36 0 0 1 1.36-1.36h12.7a1.36 1.36 0 0 1 1.36 1.36v8.07ZM21.2 39.19h-1.49v-8.62c0-1.58-.74-2.47-2.14-2.48H3.8a2.072 2.072 0 0 0-2 2.17c.07 2.71 0 5.42 0 8.14v.83H0v1.82a2 2 0 0 0 2.23 2.22h8.74c-.05-.586-.05-1.174 0-1.76 0-.25.41-.44.64-.66.18.24.48.46.52.72.04.56.04 1.12 0 1.68h1.57v-1.47c0-.47.13-.88.62-.91.49-.03.63.41.62.86-.01.45 0 1 0 1.53h1.57a9.004 9.004 0 0 1 0-1.65 1 1 0 0 1 .6-.73c.42-.08.62.28.62.71v1.65c3.03.39 4.01-1.06 3.47-4.05Zm-2.73-.52H3.06V30.6a1.36 1.36 0 0 1 1.36-1.36h12.69a1.36 1.36 0 0 1 1.36 1.36v8.07Z"/>
  </g>
  <defs>
    <clipPath id="a">
      <path fill="#fff" d="M0 0h73.8v68.35H0z"/>
    </clipPath>
  </defs>
</svg>
