<svg xmlns="http://www.w3.org/2000/svg" width="858" height="971" fill="none" viewBox="0 0 858 971">
  <path fill="#EF7D05" d="M649.49 246.51c0 101.74-49.62 182.77-127.64 221.54v11.07c102.32-32.47 169.32-119.82 169.32-232.61C691.17 102.13 583.4 0 434.08 0H415.6c135.84 0 233.89 102.13 233.89 246.51Z"/>
  <path fill="#E53516" d="M599.62 246.51c0 83.34-29.39 152.75-77.77 196.51v25c78-38.77 127.64-119.8 127.64-221.54C649.49 102.13 551.44 0 415.6 0h-22.13c119.74 0 206.15 102.13 206.15 246.51Z"/>
  <path fill="#EF7D05" d="M352.49 353.12a16.35 16.35 0 0 1 16.34-16.35H505.5a16.346 16.346 0 0 1 15.105 10.093 16.346 16.346 0 0 1 1.245 6.257V443c48.38-43.76 77.77-113.17 77.77-196.51C599.62 102.13 513.21 0 393.47 0H229.12v493h123.37V353.12Zm84.68-244.07c49.6 0 84.68 36.3 84.68 87.11s-35.08 87.1-84.68 87.1c-49.6 0-84.68-36.29-84.68-87.1 0-50.81 35.08-87.11 84.68-87.11Z"/>
  <path fill="#E63312" d="M59 578.5c0 17.68-12.21 30.32-29.47 30.32C12.27 608.82 0 596.18 0 578.5s12.21-30.32 29.48-30.32S59 560.81 59 578.5Zm-2.1 64.43v225.28H2.11V642.93H56.9Zm325.02 77.9c0 85.9-64.85 147.38-155.8 147.38H105.68V573.45h122.54c89.27 0 153.7 61.05 153.7 147.38Zm-57.69.42c0-57.69-41.69-98.12-96.85-98.12h-65.27v195.39h67.37c54.33 0 94.75-40 94.75-97.27Zm215.17-80.43v53.06c-47.59-3-76.64 24.84-76.64 65.69v108.64H408V642.93h54.74v43.37c15.18-29.48 41.71-45.06 76.66-45.48Zm74.1-62.32c0 17.68-12.21 30.32-29.47 30.32-17.26 0-29.48-12.64-29.48-30.32s12.21-30.32 29.48-30.32 29.47 12.63 29.47 30.32Zm-2.1 64.43v225.28h-54.74V642.93h54.74Zm85.89 0L744 716.2l48-73.27h60.21l-71.58 109.9 76.64 115.38h-63.13L744 789.47l-54.32 78.74h-61.03l78.75-115.38-73.27-109.9h63.16Z"/>
  <path fill="#00858F" d="M107.06 910.42v10.11H88.53v49.4H77.05v-49.4H58.52v-10.11h48.54Zm51.69 0v9.94h-32.22v14.71h28.91V945h-28.91v15h33.24v9.95h-44.63v-59.53h43.61Zm39.53 9.77a19.774 19.774 0 0 0-13.98 5.79 19.774 19.774 0 0 0 0 27.96 19.774 19.774 0 0 0 13.98 5.79 23.829 23.829 0 0 0 16.16-7l6.71 7.49c-6.12 6.2-14.87 10.2-23.46 10.2-17.51 0-31-13.18-31-30.35 0-17 13.69-30 31.45-30a33 33 0 0 1 23 9.52l-6.63 8.33c-4.32-4.75-10.36-7.73-16.23-7.73Zm43.62-9.77v25.42h29.67v-25.42H283v59.51h-11.43v-24.15H241.9v24.15h-11.39v-59.51h11.39Zm66.57 0 30.69 40.72v-40.72h11v59.51h-10.8l-30.6-40.64v40.64h-11.09v-59.51h10.8Zm115.11 29.75c0 17.09-13.77 30.27-31.71 30.27s-31.71-13.18-31.71-30.27 13.77-30.09 31.71-30.09 31.71 13 31.71 30.09Zm-51.78 0a20.188 20.188 0 0 0 20.2 20.07 20 20 0 1 0-20.24-20.07h.04Zm73.2-29.75v49.22h25.68v10.29h-37.07v-59.51H445Zm93.35 29.75c0 17.09-13.77 30.27-31.71 30.27s-31.71-13.18-31.71-30.27 13.77-30.09 31.71-30.09 31.71 13 31.71 30.09Zm-51.77 0a20.188 20.188 0 0 0 20.23 20.07 19.998 19.998 0 0 0 13.856-34.197 20.009 20.009 0 0 0-10.225-5.426 20.002 20.002 0 0 0-23.861 19.553Zm100.15.17h9.95v22.36a41.711 41.711 0 0 1-23.55 7.74c-17.77 0-31.46-13.18-31.46-30.27s13.94-30.09 32.14-30.09a36.53 36.53 0 0 1 23.29 8.5l-6.46 8.33a25.515 25.515 0 0 0-16.83-6.72c-11.48 0-20.49 8.76-20.49 20s9.09 20.07 20.57 20.07a27.488 27.488 0 0 0 12.84-3.74v-16.18ZM636 950.46v19.47h-11.35v-19l-22.19-40.46H614l16.24 28 16-28h11.48L636 950.46Z"/>
  <path fill="#02868F" d="M705.4 968.07a30.748 30.748 0 0 1-10.2-4.8l4.51-10a30.591 30.591 0 0 0 8.77 4.34 32.78 32.78 0 0 0 10.17 1.64c3.767 0 6.553-.56 8.36-1.68a5.066 5.066 0 0 0 2.71-4.47 4.287 4.287 0 0 0-1.6-3.4 12.008 12.008 0 0 0-4.1-2.17c-1.67-.55-3.92-1.15-6.77-1.81a91.908 91.908 0 0 1-10.74-3.11 17.386 17.386 0 0 1-7.17-5c-2-2.293-3-5.353-3-9.18a15.998 15.998 0 0 1 2.71-9.06 18.167 18.167 0 0 1 8.16-6.44 33.39 33.39 0 0 1 13.32-2.37 43.87 43.87 0 0 1 10.75 1.31 31.64 31.64 0 0 1 9.18 3.77l-4.1 10.08a32.079 32.079 0 0 0-15.91-4.51c-3.72 0-6.46.61-8.24 1.81a5.486 5.486 0 0 0-2.66 4.75 4.644 4.644 0 0 0 3.07 4.39A48.09 48.09 0 0 0 722 935a93.652 93.652 0 0 1 10.74 3.12 17.849 17.849 0 0 1 7.18 4.92c2 2.24 3 5.273 3 9.1a15.703 15.703 0 0 1-2.75 9 18.45 18.45 0 0 1-8.24 6.43 33.514 33.514 0 0 1-13.36 2.38 46.997 46.997 0 0 1-13.17-1.88Zm46.54-.78a7.796 7.796 0 0 1-2.3-5.74 7.502 7.502 0 0 1 2.3-5.7 8.448 8.448 0 0 1 11.31 0 7.51 7.51 0 0 1 2.3 5.7 7.796 7.796 0 0 1-2.3 5.74 8.133 8.133 0 0 1-11.31 0Z"/>
  <path fill="#05868F" d="M816.33 957.18H788.7l-5.27 12.75h-14.11l26.52-59.5h13.6l26.61 59.5H821.6l-5.27-12.75ZM812 946.72l-9.43-22.78-9.44 22.78H812Z"/>
</svg>
