<svg xmlns="http://www.w3.org/2000/svg" width="382" height="132" fill="none" viewBox="0 0 382 132">
  <defs>
    <clipPath id="a">
      <path fill="#fff" d="M0 0h382v131.33H0z"/>
    </clipPath>
  </defs>
  <g clip-path="url(#a)">
    <path fill="#D41317" d="M295.69 119.45a4.359 4.359 0 1 1 4.36 4.26 4.33 4.33 0 0 1-4.36-4.26Z"/>
    <path fill="#DA5036" d="M308.49 119.45a4.363 4.363 0 0 1 5.144-4.389 4.356 4.356 0 0 1 3.482 3.395 4.36 4.36 0 0 1-4.256 5.254 4.34 4.34 0 0 1-4.37-4.26Z"/>
    <path fill="#E37D60" d="M321.3 119.45a4.359 4.359 0 1 1 4.36 4.26 4.33 4.33 0 0 1-4.36-4.26Z"/>
    <path fill="#EBA990" d="M334.1 119.45a4.363 4.363 0 0 1 .684-2.459 4.375 4.375 0 0 1 4.477-1.949 4.368 4.368 0 0 1 3.488 3.416 4.371 4.371 0 0 1-4.299 5.252 4.332 4.332 0 0 1-4.35-4.26Z"/>
    <path fill="#F1C0AB" d="M346.9 119.45a4.373 4.373 0 0 1 2.62-4.115 4.367 4.367 0 0 1 4.799.876 4.365 4.365 0 0 1 .998 4.775 4.365 4.365 0 0 1-4.047 2.724 4.343 4.343 0 0 1-4.37-4.26Z"/>
    <path fill="#F6D6C7" d="M359.71 119.45a4.356 4.356 0 0 1 2.626-4.101 4.362 4.362 0 0 1 4.152 7.628 4.355 4.355 0 0 1-2.438.733 4.33 4.33 0 0 1-4.34-4.26Z"/>
    <path fill="#342979" d="M113.65 112.28h-7v3.55h6.44c.376-.028.751.074 1.06.29a.995.995 0 0 1 .36.8 1.006 1.006 0 0 1-.35.79 1.57 1.57 0 0 1-1.07.32h-6.44v4.09h7.23c.398-.019.792.094 1.12.32a1.097 1.097 0 0 1 .34.86 1.004 1.004 0 0 1-.34.8 1.558 1.558 0 0 1-1.12.35h-8.42A2.002 2.002 0 0 1 104 124a1.751 1.751 0 0 1-.45-1.35v-10.83a2.42 2.42 0 0 1 .2-1 1.34 1.34 0 0 1 .62-.58c.35-.12.72-.174 1.09-.16h8.19c.389-.022.776.083 1.1.3a1.003 1.003 0 0 1 .36.81 1 1 0 0 1-.36.83 1.794 1.794 0 0 1-1.1.26Zm3.98 10.77v-11.63a1.741 1.741 0 0 1 .38-1.23 1.318 1.318 0 0 1 1-.41c.374 0 .734.147 1 .41a1.7 1.7 0 0 1 .4 1.23v11.63a1.66 1.66 0 0 1-.41 1.22 1.314 1.314 0 0 1-1 .43 1.41 1.41 0 0 1-1-.43 1.754 1.754 0 0 1-.37-1.22Zm13.78-7.77v.33a5.122 5.122 0 0 1 1.67-1.38 4.164 4.164 0 0 1 2-.44 4.611 4.611 0 0 1 2.41.65 4.55 4.55 0 0 1 1.76 1.87c.453.898.68 1.894.66 2.9a6.856 6.856 0 0 1-.39 2.27 4.992 4.992 0 0 1-1 1.75c-.43.465-.951.836-1.53 1.09a5.001 5.001 0 0 1-1.89.38 4.228 4.228 0 0 1-2.07-.47 5.431 5.431 0 0 1-1.57-1.36v4c0 1.18-.46 1.77-1.38 1.77a1.12 1.12 0 0 1-1.06-.46 2.68 2.68 0 0 1-.26-1.33V115.3a1.528 1.528 0 0 1 .36-1.15 1.298 1.298 0 0 1 1-.38 1.33 1.33 0 0 1 1 .4 1.477 1.477 0 0 1 .29 1.11Zm5.59 3.91a4.28 4.28 0 0 0-.36-1.83 2.634 2.634 0 0 0-.95-1.17 2.36 2.36 0 0 0-1.34-.42 2.658 2.658 0 0 0-2 .88 3.732 3.732 0 0 0-.82 2.58c-.049.902.24 1.79.81 2.49a2.582 2.582 0 0 0 2 .89c.46.002.91-.127 1.3-.37.435-.29.782-.695 1-1.17a4.663 4.663 0 0 0 .36-1.88Zm15.81.04a5.538 5.538 0 0 1-.4 2.21 4.466 4.466 0 0 1-1.14 1.73 4.69 4.69 0 0 1-1.79 1.13 6.757 6.757 0 0 1-2.36.4 6.602 6.602 0 0 1-2.32-.4 5.092 5.092 0 0 1-1.79-1.13 4.718 4.718 0 0 1-1.15-1.73 5.831 5.831 0 0 1-.38-2.21 5.996 5.996 0 0 1 .38-2.23 5.143 5.143 0 0 1 1.15-1.73 4.742 4.742 0 0 1 1.79-1.1 6.647 6.647 0 0 1 2.32-.4 6.803 6.803 0 0 1 2.36.4 4.992 4.992 0 0 1 2.96 2.86c.259.704.384 1.45.37 2.2Zm-2.85 0a3.826 3.826 0 0 0-.77-2.55 2.678 2.678 0 0 0-4.52.69 4.754 4.754 0 0 0-.34 1.86 4.5 4.5 0 0 0 .34 1.84c.202.496.551.918 1 1.21.442.28.956.426 1.48.42a2.483 2.483 0 0 0 2.07-.94 3.75 3.75 0 0 0 .78-2.53h-.04Zm12.91 3.94v-.28a9.232 9.232 0 0 1-1.11 1 4.248 4.248 0 0 1-1.22.57 4.656 4.656 0 0 1-1.43.22 4.126 4.126 0 0 1-1.88-.43 4.06 4.06 0 0 1-1.53-1.15 5.579 5.579 0 0 1-1-1.78 7.911 7.911 0 0 1-.33-2.21 5.562 5.562 0 0 1 1.32-3.93 4.462 4.462 0 0 1 3.45-1.41 4.752 4.752 0 0 1 2.07.4 5.687 5.687 0 0 1 1.63 1.23v-4a1.914 1.914 0 0 1 .37-1.26 1.264 1.264 0 0 1 1-.42 1.284 1.284 0 0 1 1 .39c.256.326.381.736.35 1.15v11.85a1.569 1.569 0 0 1-.39 1.14 1.31 1.31 0 0 1-1 .39 1.259 1.259 0 0 1-1-.41 1.532 1.532 0 0 1-.3-1.06Zm-5.6-4a4.324 4.324 0 0 0 .36 1.86c.221.474.567.878 1 1.17.41.248.881.376 1.36.37.481.004.954-.12 1.37-.36a2.511 2.511 0 0 0 1-1.14 4.708 4.708 0 0 0 0-3.75 3.004 3.004 0 0 0-1-1.17 2.51 2.51 0 0 0-1.38-.42 2.581 2.581 0 0 0-1.42.43 2.81 2.81 0 0 0-.95 1.2 4.652 4.652 0 0 0-.34 1.85v-.04Zm19.13.73h-5.58a3.32 3.32 0 0 0 .39 1.61c.245.411.589.755 1 1 .429.224.906.34 1.39.34.31.005.619-.028.92-.1.297-.076.58-.198.84-.36.26-.16.49-.34.73-.52l.87-.74c.18-.13.398-.197.62-.19.26-.002.513.082.72.24a.755.755 0 0 1 .26.64 1.652 1.652 0 0 1-.3.84 3.346 3.346 0 0 1-.91 1 6.522 6.522 0 0 1-1.54.74 7.21 7.21 0 0 1-2.12.3 6 6 0 0 1-4.29-1.48 5.407 5.407 0 0 1-1.52-4 6.046 6.046 0 0 1 .38-2.2 4.788 4.788 0 0 1 2.88-2.86 6.615 6.615 0 0 1 2.34-.39c.992-.023 1.975.2 2.86.65a4.587 4.587 0 0 1 1.79 1.73c.377.651.58 1.388.59 2.14a1.32 1.32 0 0 1-.6 1.31 4.053 4.053 0 0 1-1.72.3Zm-5.58-1.52H176a3.122 3.122 0 0 0-.8-2.07 2.389 2.389 0 0 0-1.79-.69 2.337 2.337 0 0 0-1.75.7 3.384 3.384 0 0 0-.84 2.06Zm13.18 2.44v2.23a1.603 1.603 0 0 1-.43 1.22 1.314 1.314 0 0 1-1 .43 1.318 1.318 0 0 1-1-.43 1.671 1.671 0 0 1-.4-1.22v-7.46c0-1.21.47-1.82 1.38-1.82a1.214 1.214 0 0 1 1 .42c.231.375.349.809.34 1.25a5.25 5.25 0 0 1 1-1.25 2.285 2.285 0 0 1 1.44-.42 3.842 3.842 0 0 1 1.74.42 1.29 1.29 0 0 1 .85 1.13 1.009 1.009 0 0 1-.36.82c-.208.2-.482.318-.77.33a4.156 4.156 0 0 1-.75-.21 4.36 4.36 0 0 0-1.07-.17 1.708 1.708 0 0 0-1 .3c-.28.246-.487.564-.6.92a5.253 5.253 0 0 0-.3 1.45 17.936 17.936 0 0 0-.07 2.06Zm19.83-.92h-5.57c-.001.563.14 1.116.41 1.61a2.61 2.61 0 0 0 1 1c.434.22.913.337 1.4.34.316.004.632-.03.94-.1.287-.076.561-.198.81-.36.259-.154.507-.328.74-.52l.87-.74c.173-.099.371-.144.57-.13.261-.009.516.076.72.24a.789.789 0 0 1 .26.64 1.614 1.614 0 0 1-.29.84 3.518 3.518 0 0 1-.91 1 6.335 6.335 0 0 1-1.54.74 7.344 7.344 0 0 1-2.13.3 6.002 6.002 0 0 1-4.28-1.48 5.342 5.342 0 0 1-1.52-4 6.517 6.517 0 0 1 .37-2.2 4.995 4.995 0 0 1 1.11-1.74 4.815 4.815 0 0 1 1.77-1.12 6.804 6.804 0 0 1 2.34-.39 6.059 6.059 0 0 1 2.88.65 4.816 4.816 0 0 1 1.79 1.73c.385.648.591 1.386.6 2.14a1.335 1.335 0 0 1-.62 1.31 4.127 4.127 0 0 1-1.72.24Zm-5.57-1.52h5.16a3.16 3.16 0 0 0-.77-2.07 2.435 2.435 0 0 0-1.81-.69 2.345 2.345 0 0 0-.944.167c-.299.121-.57.302-.796.533a3.442 3.442 0 0 0-.84 2.06Zm12.94-3.11v.32a4.995 4.995 0 0 1 1.65-1.39 4.55 4.55 0 0 1 2.05-.43 4.26 4.26 0 0 1 2 .46 3 3 0 0 1 1.32 1.31c.192.325.315.686.36 1.06.071.483.101.972.09 1.46v5c.032.44-.104.876-.38 1.22a1.314 1.314 0 0 1-1 .43 1.488 1.488 0 0 1-1.06-.43 1.748 1.748 0 0 1-.39-1.22v-4.47a4.461 4.461 0 0 0-.37-2 1.685 1.685 0 0 0-1.58-.7 2.327 2.327 0 0 0-1.38.43 2.268 2.268 0 0 0-.92 1.18 7.412 7.412 0 0 0-.22 2.24v3.35a1.576 1.576 0 0 1-.41 1.22 1.335 1.335 0 0 1-1 .43 1.406 1.406 0 0 1-1-.43 1.71 1.71 0 0 1-.39-1.22v-7.79a1.66 1.66 0 0 1 .35-1.15c.129-.133.285-.236.458-.301.172-.066.358-.093.542-.079.236-.001.469.054.68.16.206.123.375.299.49.51.108.262.146.548.11.83Zm15.68 7.78v-11.63a1.661 1.661 0 0 1 .4-1.23 1.248 1.248 0 0 1 1-.41 1.447 1.447 0 0 1 1.06.41c.283.345.422.785.39 1.23v11.63a1.73 1.73 0 0 1-.39 1.22 1.416 1.416 0 0 1-1.06.43 1.328 1.328 0 0 1-1-.43 1.678 1.678 0 0 1-.4-1.22Zm13 .12a8.275 8.275 0 0 1-2 1.15 6.144 6.144 0 0 1-2.16.38 4.273 4.273 0 0 1-1.95-.43 3.15 3.15 0 0 1-1.27-1.1 2.796 2.796 0 0 1-.44-1.51 2.557 2.557 0 0 1 .75-1.87 3.72 3.72 0 0 1 2-1.05c.17 0 .63-.13 1.35-.26.72-.13 1.3-.27 1.83-.38.53-.11 1.08-.26 1.68-.43a2.771 2.771 0 0 0-.46-1.55 2.173 2.173 0 0 0-1.68-.5 3.507 3.507 0 0 0-1.62.29 2.383 2.383 0 0 0-.93.86 7.444 7.444 0 0 1-.56.74.93.93 0 0 1-.7.19 1.178 1.178 0 0 1-.83-.3.892.892 0 0 1-.36-.74c.013-.506.204-.991.54-1.37a3.85 3.85 0 0 1 1.67-1.11 8.163 8.163 0 0 1 2.79-.42 8.645 8.645 0 0 1 3 .41 2.68 2.68 0 0 1 1.52 1.32c.327.76.478 1.584.44 2.41v3.07c.002.534.09 1.064.26 1.57.12.324.211.659.27 1a1.053 1.053 0 0 1-.42.77 1.42 1.42 0 0 1-.93.35 1.27 1.27 0 0 1-.86-.4 6.164 6.164 0 0 1-.93-1.09Zm-.18-3.88c-.598.199-1.209.353-1.83.46-.79.16-1.34.27-1.66.36a2.263 2.263 0 0 0-.86.44 1.063 1.063 0 0 0-.43.91 1.31 1.31 0 0 0 .5 1c.359.297.815.45 1.28.43a3.421 3.421 0 0 0 1.56-.34 2.247 2.247 0 0 0 1.05-.9c.306-.62.441-1.31.39-2v-.36Zm13.87 1.53v2.23a1.607 1.607 0 0 1-.41 1.22 1.332 1.332 0 0 1-1 .43 1.31 1.31 0 0 1-1-.43 1.671 1.671 0 0 1-.4-1.22v-7.46c0-1.21.46-1.82 1.38-1.82a1.24 1.24 0 0 1 1 .42 2.3 2.3 0 0 1 .33 1.25c.273-.461.61-.882 1-1.25a2.327 2.327 0 0 1 1.45-.42 3.913 3.913 0 0 1 1.75.42 1.262 1.262 0 0 1 .83 1.13c.004.154-.025.307-.086.448-.06.142-.15.269-.264.372a1.141 1.141 0 0 1-.78.33 4.882 4.882 0 0 1-.75-.21 4.267 4.267 0 0 0-1.07-.17 1.705 1.705 0 0 0-1 .3c-.282.245-.49.563-.6.92a4.893 4.893 0 0 0-.3 1.45 17.493 17.493 0 0 0-.08 2.06Zm13.97-.92H262a3.32 3.32 0 0 0 .39 1.61c.238.417.583.762 1 1 .434.22.913.337 1.4.34a3.88 3.88 0 0 0 .93-.1c.289-.08.565-.201.82-.36.256-.159.503-.333.74-.52.22-.18.49-.43.87-.74.177-.128.391-.195.61-.19.257-.006.509.079.71.24a.721.721 0 0 1 .28.64 1.59 1.59 0 0 1-.31.84 3.311 3.311 0 0 1-.9 1 6.335 6.335 0 0 1-1.54.74 7.348 7.348 0 0 1-2.14.3 5.911 5.911 0 0 1-4.26-1.48 5.28 5.28 0 0 1-1.53-4 6.277 6.277 0 0 1 .38-2.2 4.654 4.654 0 0 1 2.87-2.86 6.742 6.742 0 0 1 2.35-.39c.992-.023 1.975.2 2.86.65a4.727 4.727 0 0 1 1.79 1.73c.385.648.591 1.386.6 2.14 0 .68-.21 1.12-.62 1.31a4.003 4.003 0 0 1-1.76.3Zm-5.54-1.52h5.17a3.28 3.28 0 0 0-.79-2.07 2.44 2.44 0 0 0-1.8-.69 2.353 2.353 0 0 0-1.76.7 3.368 3.368 0 0 0-.82 2.06Zm18.1 4.79v-.28c-.347.366-.725.7-1.13 1a4.255 4.255 0 0 1-1.2.57 4.755 4.755 0 0 1-1.44.22 4.196 4.196 0 0 1-1.89-.43 4.007 4.007 0 0 1-1.51-1.15 5.38 5.38 0 0 1-1-1.78 7.232 7.232 0 0 1-.33-2.21 5.548 5.548 0 0 1 1.31-3.93 4.459 4.459 0 0 1 3.43-1.41 4.872 4.872 0 0 1 2.09.4 5.731 5.731 0 0 1 1.64 1.23v-4a1.997 1.997 0 0 1 .35-1.26 1.246 1.246 0 0 1 1-.42 1.274 1.274 0 0 1 1 .39c.253.328.374.738.34 1.15v11.85a1.6 1.6 0 0 1-.38 1.14 1.295 1.295 0 0 1-1 .39 1.25 1.25 0 0 1-.95-.41 1.49 1.49 0 0 1-.33-1.06Zm-5.61-4a4.465 4.465 0 0 0 .36 1.86c.22.474.566.879 1 1.17a2.745 2.745 0 0 0 2.74 0 2.511 2.511 0 0 0 1-1.14c.27-.596.4-1.246.38-1.9a4.243 4.243 0 0 0-.38-1.85 2.885 2.885 0 0 0-1-1.17 2.44 2.44 0 0 0-1.38-.42 2.576 2.576 0 0 0-1.4.43 2.61 2.61 0 0 0-1 1.2 4.637 4.637 0 0 0-.32 1.86v-.04ZM137.13 57.21c-11 0-19.89 8.08-19.89 19.59s8.9 19.63 19.89 19.63 19.81-8.13 19.81-19.63c0-11.5-8.79-19.59-19.81-19.59m0 29.35c-5.62 0-8.9-3.85-8.9-9.76s3.28-9.83 8.9-9.83c5.62 0 8.87 3.81 8.87 9.83s-3.34 9.76-8.88 9.76m64.07-28.75-4.5 25.92-5.93-25.92h-11.8l-6.09 26.15-4.51-26.15h-11.64l9.39 38.25h13.24l5.43-23.44 5.33 23.44h13.23l9.5-38.25h-11.65Zm39.7 8.52v-8.52h-24.76v38.25h24.76v-8.51h-14v-6.9h12.36v-8.08h-12.36v-6.24h14Zm26.96 14.81c5.77-1.73 8.51-6.07 8.51-11.07 0-6.84-4.82-12.26-14.44-12.26H245v38.25h10.77V82h1.16l7.68 14.11h12l-8.76-14.97Zm-6.8-6.45h-5.33v-8h5.33c2.9 0 4.39 1.57 4.39 4 0 2.59-1.49 4-4.39 4Z"/>
    <path fill="#E4202D" d="M305.08 57.81v21.65l-14.33-21.65h-10.76v38.25h10.76V74.69l14.33 21.37h10.77V57.81h-10.77Zm40.42 8.52v-8.52h-24.78v38.25h24.78v-8.51h-14.01v-6.9h12.35v-8.08h-12.35v-6.24h14.01Zm5.21-8.52v8.46h10.21v29.79h10.76V66.27H382v-8.46h-31.29Z"/>
    <path fill="#BC282B" d="M130.11 3.75c-12-7.84-43.26 7.56-71.88 35.84-17 16.77-29.36 34.46-35 48.55h-1.34c-.876.003-1.75.056-2.62.16 3.59-15.89 15.61-35.8 33.77-53.77C81.69 6.19 115.26-7 130.06 3.7l.05.05Z"/>
    <path fill="#342979" d="M94.77 11.14a57.36 57.36 0 0 0-8.86-.65H46.32v100.2l15.68-1a.644.644 0 0 0 .15-.07c2.7-1.25 5.48-2.71 8.26-4.34l.34-.19V74h15.16c1.88 0 3.69-.08 5.44-.25l.62-.6c1.26-1.25 2.46-2.44 3.52-3.55a174.51 174.51 0 0 0 23.39-29.7c1.12-1.827 2.15-3.613 3.09-5.36-2.65-12-11.71-21-27.2-23.44M84.05 54.83h-13.3V30h13.3c9.74 0 13.87 4.79 13.87 12.43s-4.13 12.4-13.87 12.4Z"/>
    <path fill="#E4202D" d="M100.68 81.81A151.329 151.329 0 0 1 70.75 105l-.34.19a94.233 94.233 0 0 1-8.26 4.34.644.644 0 0 1-.15.07 71.422 71.422 0 0 1-19.12 6.18c.428-1.44.7-2.922.81-4.42 1.45-.52 2.94-1.1 4.49-1.76l.17-.07A122.342 122.342 0 0 0 70.41 96.8l.34-.25A201.81 201.81 0 0 0 94.9 76.08c1.15-1.11 2.29-2.27 3.4-3.42a1.57 1.57 0 0 0 .18-.19 177.912 177.912 0 0 0 24-30.42c.12-.18.23-.368.33-.56 10.2-16.87 13.53-31.28 7.35-37.74 0 0 .05.06.06.09 13.64 13.46.42 48.35-29.54 78"/>
    <path fill="#342979" d="M12.28 91.82a20.59 20.59 0 0 1 15.29-1.65 20.28 20.28 0 0 1 12.3 9.6 20.07 20.07 0 0 1-2 22.66 20.659 20.659 0 0 1-21.49 6.69 20.328 20.328 0 0 1-12.29-9.6 20.08 20.08 0 0 1 2-22.67 20.431 20.431 0 0 1 6.19-5m-.7-1.28a21.59 21.59 0 0 0 4.38 40 22.093 22.093 0 0 0 16.38-1.77 21.58 21.58 0 0 0-4.37-40 22.16 22.16 0 0 0-16.39 1.76"/>
    <path fill="#342979" d="M26.56 89.46h.13a.787.787 0 0 1 .22 0H27l.38.09h.66-.36l-.25-.06m9.24 5.03s-.05 0-.08-.08Zm-.24-.2-.07-.07Zm-.22-.19.07.05.1.09s.07 0 .08.08M33 91.87l.18.1.54.31"/>
    <path fill="#342979" d="M34.07 92.52c-.11-.07-.22-.13-.31-.2a6.103 6.103 0 0 0-.57-.34l-.18-.1a14.006 14.006 0 0 0-1.84-.94m12.02 21.54v-.06a.27.27 0 0 0 0-.12 1.005 1.005 0 0 0 0-.17 1.005 1.005 0 0 0 0-.17.13.13 0 0 0 0-.09 1.42 1.42 0 0 0 0-.2 2.101 2.101 0 0 1 0-.21v.41a.13.13 0 0 1 0 .09.965.965 0 0 1 0 .17.965.965 0 0 1 0 .17c.009.06.009.12 0 .18m-.02.19a.32.32 0 0 1 0 .13Zm.16-4.55v.06c.005.09.005.18 0 .27v1.18a10.2 10.2 0 0 0 0-1.45v-.11a13.997 13.997 0 0 0-.23-1.93m-.02-.05v-.29c0-.05 0-.21-.07-.32-.07-.11-.1-.45-.15-.72.107.395.194.796.26 1.2v.13M41 100a.249.249 0 0 1 0 .07 24.43 24.43 0 0 1 1.8 4.69m-1.86-4.82v.02h.01v.01m-1.05-1.73a7.34 7.34 0 0 0-.58-.84ZM12.85 98a.999.999 0 0 1-.08-.15l-.18.07-.13.18.15.2c.067-.04.137-.073.21-.1l.07-.1V98m-.8 0s0 .07-.06.11v.05a.34.34 0 0 0-.12.15l-.06.08a.23.23 0 0 0 .11 0 .17.17 0 0 0 .08-.06.79.79 0 0 0 .12-.14.457.457 0 0 0 0-.13l-.07-.06Zm-.4-3.83-.25.11-.17.08.06.13.07.1.28-.12.06-.14.14-.12-.19-.04Zm3.16-3.95h.29c.113-.04.23-.066.35-.08m.19-.14a.3.3 0 0 1-.11.06Zm1.16-.34a.21.21 0 0 1 .12 0h.15m4.56-.6v.02l.02-.02h.29m1.95.01a.12.12 0 0 0 .06 0h-1.84m5.46 1.55c.03.01.06.01.09 0h.11l-.17-.08-.09.08-.1.1m1.8-.12s.06 0 .28.14l-.05.05h-.14a1.736 1.736 0 0 0-.24-.1l-.32-.06h-.3a1 1 0 0 1-.26-.08 1.71 1.71 0 0 1-.26 0c.1-.1.16-.18.22-.25a.75.75 0 0 0 .25.11c.153.04.3.097.44.17h.08a.936.936 0 0 1 .16.06l.2.07s.07 0 .1.06h-.08m-2.33.82c-.07 0-.07 0-.07-.06h-.06l-.12-.06v.07h.06l.07.06a.2.2 0 0 0 .08 0l.04-.01Zm2.54.95s.16.11.2.08c.04-.03 0-.05 0-.07l.22-.08s.19.06 0 .15 0 .06.06.09c.2.1.2.1.21.21h.06v-.16h.1l.05-.06c-.12-.06-.12-.06-.14-.09h.06l.1-.06a.13.13 0 0 0-.07-.06h.18l.06-.06s-.06 0-.07-.07a.751.751 0 0 0-.25-.09c-.05 0-.05 0-.06-.06a.4.4 0 0 1-.13-.07h.05l-.17-.2c-.11 0-.21-.07-.32-.08 0 0 .13 0 .13.11l-.38-.15c-.17-.09-.33-.18-.39-.13h-.07a1.605 1.605 0 0 1-.23 0c-.1 0-.18-.07-.28-.08-.1-.01-.18 0-.28 0l-.12-.11H28c-.06 0-.1-.09-.17-.12l-.26-.1c-.06 0-.11.1-.18.14-.32-.21-.36-.22-.4-.21l-.09.06c-.09.06 0 0 .25.11.06 0 .15 0 .2.1.05.1-.11 0-.15 0a.29.29 0 0 0 .33.09.09.09 0 0 0 .06 0 .07.07 0 0 0 .05 0c.07 0 .14 0 .2.09s0 .06.11.13h.17H28c.122.023.24.064.35.12l.14.05.11-.08c.18 0 .3.12.47.12.17 0 .25 0 .3.17a.3.3 0 0 0-.16 0h.11-.05.14c.03 0 .1-.06.18 0l.07.09"/>
    <path fill="#342979" d="M28.22 92.35h-.07l.42.22a.12.12 0 0 0 .09 0c.07 0 .12.07.19.09l-.06.06.09.08.12.07c.11.11.27.09.27 0s0-.07.09 0 0 0-.11-.18c.07-.06.14-.1.21-.15h-.24a2.22 2.22 0 0 0-.41-.24h-.13a.09.09 0 0 0-.05-.08l-.36-.22h-.16v.07l.06.07H28c.11 0 .21.11.31.15l-.09.06ZM42 117a.152.152 0 0 0 0-.06.824.824 0 0 0 .08-.21v-.11l.11-.34c0-.08 0-.17.08-.27.056-.147.102-.297.14-.45a.45.45 0 0 0 0-.11c.1-.265.187-.536.26-.81.17-.658.3-1.326.39-2a1.37 1.37 0 0 0 0-.19v-.06c0-.23.06-.49.1-.81a2.101 2.101 0 0 1 0-.21 12.92 12.92 0 0 0 .07-1.77v-1.18c.005-.09.005-.18 0-.27v-.11a13.997 13.997 0 0 0-.23-1.93 1.352 1.352 0 0 1 0-.29c0-.1 0-.21-.07-.32-.07-.11-.1-.45-.15-.72a24.43 24.43 0 0 0-1.8-4.69.249.249 0 0 0 0-.07c-.29-.59-.625-1.16-1-1.7-.22-.29-.48-.66-.85-1.18L38 95.81a3.232 3.232 0 0 0-.43-.29c.11.31.43.48.59.75h-.05c-.05 0-.15-.11-.22-.14l-.08.1-1.94-1.3c0 .18-.11.32-.12.48-.21-.09-.21-.09-.35-.06 0 .11 0 .24.06.33a.809.809 0 0 0-.2.21c.16.22.16.22.17.31l-.11.07a.261.261 0 0 1 0 .11.23.23 0 0 1-.11 0 .27.27 0 0 1-.33.06.179.179 0 0 0-.1 0c.103.178.227.342.37.49a.998.998 0 0 1-.2.14l.4.42a.34.34 0 0 0-.17.25c.2.24.36.49.54.73.051.068.108.132.17.19l-.2.14a1.8 1.8 0 0 1 .17.6c-.35.58.44 1 .23 1.53a.338.338 0 0 1-.1.08c.146.32.257.656.33 1l.14.22.35-.17s.07.07.11.08c.103.383.265.747.48 1.08l.13.22a.59.59 0 0 1 0 .34c.087.143.184.28.29.41a.666.666 0 0 0 .06.12c.15.29.23.33.58.48h.11c.11.07.16.19.26.27h.12c.21.54.21.54.76.56.04.116.087.229.14.34.22.06.41.23.66.18v-.39a1.03 1.03 0 0 0 .19-.13.676.676 0 0 1 .22-.09c.038.02.072.047.1.08.27-.21 0-.64.42-.78v-.08a.759.759 0 0 1 .06-.25h.12c.21.45.21.45.31.49.096-.072.187-.153.27-.24 0 .13.08.29.14.51.4 1.69.61 2.53.71 3 .052.234.088.471.11.71v.15a23.606 23.606 0 0 1-.22 4.52c-.05.21-.09.45-.14.68-.11.53-.17.85-.22 1.12a.45.45 0 0 1 0 .11 3.867 3.867 0 0 1-.14.45c0 .1-.05.19-.08.27l-.11.34v.11a.826.826 0 0 1-.25.28c.004.02.004.04 0 .06a.9.9 0 0 1 0 .09l-.1.26m-11.97 9.77s0 .05.13.08a.37.37 0 0 1 .13.12h-.21v.22c.06-.01.12-.01.18 0v.08c0 .08.06 0 .09 0l.06.06c-.15.11-.15.11-.2.19h.14c.08 0 0 0 .06.08a.36.36 0 0 0 .15.08v.05h.17c.11.042.224.076.34.1h.17l.17-.06h.08l.21-.12a.26.26 0 0 1 .07-.11l-.18.06h-.08l-.12-.14-.11-.15a.697.697 0 0 0 0-.14l.13-.08a.15.15 0 0 0 0-.08c.07-.167.153-.328.25-.48h-.18c-.18-.06-.18-.06-.22-.11-.04-.05 0 0 0 0a.392.392 0 0 1 .11-.17l.2-.11a.36.36 0 0 1 0-.23.8.8 0 0 0 0-.27c.15-.07.15-.07.18-.18.03-.11 0 0-.06 0a.243.243 0 0 1-.13.11l-.1-.15a.23.23 0 0 0 0-.11c.05-.008.1-.008.15 0h.1a.461.461 0 0 0 .21-.19.382.382 0 0 1 0-.08.12.12 0 0 1 0-.08 1.348 1.348 0 0 0-.1-.15v-.08c.07-.051.144-.098.22-.14l.09-.06a.537.537 0 0 0 .14-.12c.09-.046.183-.083.28-.11.106-.189.196-.386.27-.59v-.23a.156.156 0 0 1-.1 0 .33.33 0 0 0 0-.13.546.546 0 0 0-.26-.06v-.07a.551.551 0 0 1 .17-.09c.7-.23.7-.23.84-.6.38-1 .38-1 .4-1a.541.541 0 0 0 0 .19c.07 0 .61-1.12.43-1.41-.18-.29-.2-.31.36-1.16l.23-.12c.069-.105.13-.215.18-.33.208-.097.397-.229.56-.39a.41.41 0 0 1 0-.17c.07-.06.07-.06.31-1.14v-.6a.48.48 0 0 1 0-.13 1.381 1.381 0 0 0 0-.45v-.13a.323.323 0 0 1 0-.09.583.583 0 0 0 0-.17.879.879 0 0 1 0-.43s.3-.72.37-.94l.19-.8a.861.861 0 0 0 0-.4c-.27-.61-.38-.61-.51-.61a3.379 3.379 0 0 1-.3.16c-.33.07-.65-.4-1 0-.11 0-.22.12-.36.2-.32 0-.52 0-.45.26 0 .08-.09.16-.32.14 0-.07 0-.07.08-.26h-.78a.239.239 0 0 1-.14 0 .368.368 0 0 0-.35.14c0 .09.07.19.11.28l-.25.14a1.258 1.258 0 0 1-.05-.21.743.743 0 0 0 .05-.16l.06-.11a.206.206 0 0 1-.07 0l-.39.06h-.14v.1c.07.15.11.26-.15.35 0 0 0-.08-.06-.19.17-.64.17-.64 0-.78l-.16.09c-.05-.11-.1-.22-.14-.33l-.35-.3h-1c-.2 0-.29.2-.45.28l-.13.06c-.65.22-.76.11-1.05-.16h-.47c-.25.09-.3-.05-.36-.18l-.13.08c-.22.22-.22.22-.28.24l-.16-.21a.388.388 0 0 0 .11-.15c-.11 0-.12-.06-.36 0l-.09.18h-.06a.345.345 0 0 0-.27.1c0 .35 0 .35-.07.42a1.178 1.178 0 0 0-.56 0 2.798 2.798 0 0 1-.41.18h-.18s-.07-.12-.16-.15-.46 0-.64.15a.24.24 0 0 1 0 .27.377.377 0 0 0-.22.27c0 .24.27.33.3.55-.41 0-.32-.48-.58-.61 0-.14.13-.47.13-.47h-.08l-.13.08c-.18.15-.21.18-.09.38-.11.07-.23.12-.41.25a.931.931 0 0 1-.51.54c.05.13.12.25.18.41.06.16-.07.14-.21.21a.769.769 0 0 0 0 .36.61.61 0 0 0-.11.52c.06.01.12.01.18 0 .13.26.6.41.38.76.16.4.16.4.12.52l-.17.11.14.18a1.01 1.01 0 0 1-.12.2s0 .09.05.12c-.15.14-.25.21-.08.5a.462.462 0 0 0-.22.17c.11.14.14.34.28.47h.09c.08-.1.08-.1.25-.15.027.059.05.119.07.18-.07.08-.17.13-.21.22-.04.09.07.12-.06.34.06.15.06.15.27.23v.05c.33.54 1.12.15 1.45.66l.08.12c1.71.86 1.71.86 1.84.81.438-.082.892-.03 1.3.15l.16-.08c.08.16.18.34.27.5.017.061.037.121.06.18v.06a.491.491 0 0 1 .06.09v.09c.013.06.037.118.07.17l.07.08c.07.08 0 0 0 .08a.36.36 0 0 1 0 .12l.13.14a.211.211 0 0 1 0 .08c.05.17 0 .36.07.53.058.24.098.484.12.73.43.53.51.64.36 1 .01.036.027.07.05.1v.08c0 .15-.07.29-.06.44.25.15.27.25.27.52.02.003.04.003.06 0a.208.208 0 0 1 .1.11.131.131 0 0 1-.027.043.12.12 0 0 1-.043.027c0 .19 0 .19.09.23h.2l-.12-.29a.91.91 0 0 0 .14-.07v.13a.7.7 0 0 0-.06.09.54.54 0 0 1 .11.34c.025.107.062.211.11.31a.42.42 0 0 1-.15 0h-.05M24 110.25c-.05 0-.05-.12-.1-.18a1.173 1.173 0 0 1-.36.26.372.372 0 0 1-.12.07h-.3s0 .12-.09.16c-.07.048-.144.091-.22.13h-.62l-.47.23c-.08 0-.08 0-.23.16.06.13.13.25.2.38.125.049.256.079.39.09a.915.915 0 0 1 .14-.07c.16-.09.16-.3.33-.4.17-.1.17 0 .23-.08s.13-.11.21-.14a2.13 2.13 0 0 0 .47-.33.2.2 0 0 1 .13-.06c.123-.031.243-.071.36-.12a.325.325 0 0 1 .13-.07.98.98 0 0 0 .09-.13h-.18m-3.37 1.97h-.34a3.21 3.21 0 0 1-.37.19.32.32 0 0 0 .14.08.117.117 0 0 0 .055.013c.02 0 .038-.004.055-.013a.51.51 0 0 1 .22 0l.07.07c.07.07 0 0 0 0s.1 0 .14-.07a.913.913 0 0 0 .05-.17s0-.09-.09-.11m-.38-1.04-.14.08c-.15.07-.26.19-.42.21-.16.02-.21-.06-.32-.07-.16-.01-.32-.01-.48 0h-.24c-.04 0-.07-.07-.17 0a1.82 1.82 0 0 1-.3.18l-.09.12c-.05.07-.12 0-.17.06l-.29.15c-.25.12-.25.12-.28.16-.16.36.49.49.72.15.07-.07.07-.18.15-.24a.998.998 0 0 1 .24-.13s.32-.05.43.07c.11.12 0 0 .09 0 .123-.013.244-.039.36-.08a.172.172 0 0 1 .1-.033c.036 0 .07.012.1.033a.515.515 0 0 0 .45 0l1-.51a1.161 1.161 0 0 0-.73-.14m3.01-19.66c-.09 0-.09 0-.11-.08-.02-.08 0 0 0 0s-.11 0-.08-.13 0 0 .17-.13l-.23-.08h-.26a.902.902 0 0 1-.21-.08h-.18l-.1.07v.06s.07.05.05.09c-.05 0-.14 0-.19.08-.05.08-.07.09-.06.12.01.03 0 0 0 0s-.07 0-.09.07h-.4.11-.13s-.12.09-.11.14c.01.05.26.14.31.07a.5.5 0 0 1 .43 0 .41.41 0 0 0-.26.16h.18l.11-.06h.05l.22.08h.2a.402.402 0 0 1 .13-.13h.06c.08-.09.16 0 .26 0a.28.28 0 0 0 .19-.09l-.06-.16Zm-1.46 7.85c-.12-.12-.12-.12-.13-.28l-.11-.08c-.13.07-.13.07-.18.07a1.71 1.71 0 0 1-.32 0 .15.15 0 0 0-.11 0 2.429 2.429 0 0 0-.24.1h-.14c-.06-.19-.06-.19-.06-.23v-.08a.17.17 0 0 0-.11-.18h-.05c-.05 0-.06 0-.1.05-.04.05-.08.08-.08.12 0 .04 0 0 .07.08l.06.14a2.82 2.82 0 0 1-.08.61.89.89 0 0 0 0 .22.26.26 0 0 0 .07.16s.08.07.11.11l.8-.45a.33.33 0 0 1 .25 0c.14.04.29.04.43 0v-.06s.05-.07-.16-.28m-2.65.6h-.47a.15.15 0 0 1-.07 0l-.09.11h.28c.05.01.1.01.15 0h.19c.02 0 .11 0 .11-.27H19v.16Zm-2.24-9.38h-.99s-.21 0-.26.08h-.72c-.2 0-.42 0-.65.07h-.12a.697.697 0 0 1-.14 0h.08-.44l-.22.08h-.06.25l-.12.05h.39c-.12 0-.25 0-.37.07h-.14a.92.92 0 0 0-.3.08h.18m-1.52 1.11h-.1.06v-.07h-.27v.07H11l-.07.06h.06a.748.748 0 0 1 0 .11h-.07v.16h.11v-.08.22c.13-.09.13-.09.18-.17h.12v-.07l.07-.07-.07.12h.06-.07a.24.24 0 0 0-.09.08h-.05v.06h.05-.28c-.12-.08-.12-.08-.2 0h-.08v.11l.08.06h.17s-.06.06-.07.1a.22.22 0 0 0 0 .08h-.25l-.07.08v.12h.23l-.08.1v.06c.08 0 .09 0 .19-.2v.09l-.07.11-.09.06h-.21l-.11.06c0 .16 0 .16-.08.24v.11l.05.08h.09s.06-.1.11-.11c.05-.01.11 0 .16 0s0-.09.08-.11c.08-.02 0 0 .17-.07h.08v.08a.18.18 0 0 0 .09-.07h.07c.14-.18.14-.18.16-.25l-.06.08-.06-.08.08-.07v-.16l.07.03c0-.07-.07-.08-.1-.12h.08l-.07-.07c-.07-.07-.09 0-.12 0l-.05.07v-.14h.05c.09 0 .09 0 .14-.14h-.09.13-.06.07c0-.07.06-.12 0-.18v.07"/>
    <path fill="#342979" d="M10.56 93v-.19c0-.08-.05 0-.05 0v-.09s-.07.06-.07.07c0 .06-.05.06-.05.06h-.06v.07c0 .07 0 0 0 0h-.05v.09l-.06.06a.593.593 0 0 0 0 .08v.09l.07-.06h.05v.06a.22.22 0 0 0-.07.06h-.07l-.2.1v.09h.1l.1-.05h.07v-.21h.05v-.07h.07v-.07a.342.342 0 0 0 0-.1l.17.01Zm-.35.66-.09.07-.07.14h.12a.34.34 0 0 0 .08-.09v-.08m1.01.21v-.1h-.32l-.11.11-.15.13-.11.07h-.15l-.13.07-.09-.07V94l-.12.06s-.06 0-.08.07a.64.64 0 0 0 0 .28l-.07.17.05.08h.1l.15-.1a.75.75 0 0 0 .09-.09c.12.07.12.07.27 0a1.1 1.1 0 0 1 .19-.09l.09-.08v-.09h.07c.31-.17.31-.17.28-.24-.03-.07 0 0 0-.1l.04.04ZM9.33 95l-.07.11h.08L9.33 95Zm.41-.38v-.08h-.08l-.12.12v.18h.16l.08-.09v-.14l-.04.01Zm.11-.57h-.08l-.09.07v.12h.2l.08-.13v-.07l-.11.01Zm.06-.27h-.09l-.06.09v.07l.11-.06.05-.05.09-.07v-.07h-.08m-.04-.11-.08.04-.03-.07-.05.07-.01.08-.05.14.07-.01.14-.11.04-.07-.03-.07Zm0-.41a.47.47 0 0 0-.06.09v.06h.07v-.09l-.01-.06Zm-.28.52v-.1l-.14.09v.07l-.06.1h-.05v.08h.13V94h.07v-.23l.05-.08Zm-.28.36-.09.04-.02.09.05-.03.07-.05-.01-.05Zm.09.34-.08.08v-.07h-.07c0 .07.07.24 0 .23v-.12H9.2v.23-.23h-.08l-.08.16v.2h.08l.07-.07h.07v.2h-.09l.1-.06h.07v-.26c0-.06.06-.06.07-.11v-.08h-.06m-.62.58a.11.11 0 0 1-.06.07v.1h.07a.43.43 0 0 0 0-.1m.26-.93a.45.45 0 0 0-.08.26L9 94.4v-.19Zm3.61 1.45c-.24.15-.24.15-.26.15v.21l.14.1.15-.07.15-.12v-.17l-.18-.1ZM10 94.93l-.15.07h-.09c-.17.1-.17.1-.17.14 0 .04 0 .14-.1.22-.005.08-.005.16 0 .24v.25l.13-.1.08-.13v-.14h.12l.08-.12.07-.18c0-.05.06-.12.07-.17.01-.05-.08 0-.1 0m-.65.77-.07-.09h-.07c.16-.2.16-.2.07-.32h-.1v.11h-.07l-.09.09v.11l.06.08c-.11.28-.13.27-.19.16h-.09v.13l.06.05h.16v.13a.19.19 0 0 0 .14 0s.08-.14.11-.17l.16-.09.08-.19h-.16Zm-.83 0h-.17a.747.747 0 0 1-.07.12c0 .07 0 .07.06.07a.46.46 0 0 1 0 .12L8.4 96l.07-.18-.01-.04Zm-.35.15-.07.09.07-.01.07-.12-.07.04ZM8.93 94h-.16l-.12.14h.25A.28.28 0 0 0 9 94m-.24.28a.506.506 0 0 1-.1 0l-.06.05-.11.11-.08.17.07-.06h.09l.06-.1v-.07l.08-.09.05-.01Zm-.26.08-.04.03-.06.09-.02.06.05-.02.08-.12-.01-.04Zm.11.64v.09V95a.42.42 0 0 0 0-.1v-.11h-.07l-.06.08-.07.06v.08c0 .07 0 .07-.07.22h.06a.18.18 0 0 1-.1.13h-.1v-.19H8l-.13.1-.12.17-.11.13-.13.15-.06.12h.24l.11-.08h.19l-.13.11h-.1l-.09.1v.09l.14-.05.19-.33.14-.16.09-.07h.13l.11-.06.09-.13.1-.26h-.05Zm-.43-.12v.09h.08l.06-.11-.09.06m-.67.56-.13.15h.06l.18-.25-.11.1Zm.62-.81-.11.12h-.08c-.13.14-.24.3-.38.45h-.07l-.11.11-.07.12.11-.12v.07l.09-.1.07-.1.11-.14.1-.11-.06.13.07-.07.15.03.14-.22.11-.16-.07-.01Zm.39 2.46v-.12L8.5 97h-.21l-.07-.15.06-.21-.07-.07.06-.25v-.13h-.1L8 96.15s0 .12-.06.19v.27l-.05.11v-.37h-.08v.2h-.09v.1l-.09.06.06-.12.07-.14h-.13l-.09.06-.06.14v-.25h-.1l-.11.15-.1.09-.17.13-.13.16-.05.16-.15.16v.1h.07v.08l.11-.11.13-.06v.06l-.13.13-.13.09-.08.12.08.06s.1 0 .14-.07l.14-.12.13-.06h.08v.12l-.22.1a.629.629 0 0 0-.2.1l-.28.21v.22l.17-.07.13-.06v.21l.08.05.19-.08.18-.09.15-.18.15-.13.15-.18.08-.1.09-.07.18.09.14-.06.12-.09.08-.18-.09-.08h.08l.18-.07Z"/>
    <path fill="#342979" d="m7.64 97.96-.22.25.14-.02.14-.16.12-.09.03-.17-.21.19Zm-.33-1.83h-.07l-.14.13h-.18l-.18.1a.519.519 0 0 1-.07.12l-.11.22-.25.3-.37.52h.13l-.06.3.17-.22a.666.666 0 0 1 .12-.06l.13-.16c.122-.23.27-.444.44-.64l.28-.25.15-.13v-.15l.01-.08Z"/>
    <path fill="#342979" d="M21.87 115.29v-.07h-.1l-.15-.07-.46.24-.32.15-.45.19h-.29l-.46-.14-.11-.25-.18-.3-.12-.45a2.3 2.3 0 0 1-.14-.27l-.26-.13h-.36l-.42.25-.33.08-.26.3h-.31l.13-.27-.09-.12a.798.798 0 0 0-.08-.16v-.57a3.258 3.258 0 0 1-.18-.32l.12-.22-.09-.26h-.2l-.44.28-.28.19v.28l.05.41v.37l-.23.16-.31.28-.33.23-.29-.15h-.38l-.25-.2-.39-.23-.4-.52-.25-.41V113l-.1-.42-.33-.31.09-.49.23-.14.13-.3.13-.32.33-.11H14l.15-.16.24.12.28-.13.2-.13-.12-.13v-.29L15 110l.22-.15.44-.17.28.13.15-.07v-.17l.11-.1.29.08.3.14c0 .1.1.19.14.27l.18.11.14.15.21.06.18.13h.22l.12.19h.18v-.46l-.24-.22-.3-.36-.39-.26c-.07-.15-.15-.31-.25-.54-.1-.23 0-.22 0-.3V108l.22-.23.18-.43.18-.35.24-.26-.06-.22.15-.23-.36-.23-.2-.08-.05-.21-.19-.1.15-.21.31.13v-.56l.07-.2-.1-.51.4-.2.16-.27.3-.2-.17-.13-.22-.34.06-.37.23-.12v-.19l.31-.16.18-.29.06-.29a1.71 1.71 0 0 1 .73-.32v.14c0 .04-.25.12-.37.2a1.652 1.652 0 0 0-.13.27c.043.069.09.136.14.2h.21l.09-.24.07-.15.21-.2.18-.26.22-.19.06-.33.09-.27-.09-.19-.24.2v.39l-.31.18h-.72l-.36-.27.12-.3-.17-.26-.36.17-.32.3-.28.45-.19.59-.2.38v-.27l.07-.32.07-.18-.38.1.4-.22v-.23l.11-.29.27-.15v-.26l.18-.19.33-.19.59-.34.35-.12.24-.14.12-.29.05-.34.36-.24.14-.18v-.15h-.19v-.14l-.14-.21-.31.13-.14-.1L19 98l-.14.25-.09.18h-.16l-.06-.17.21-.22.26-.25v-.17l-.2.09h-.26l-.32.09h-.56l-.16-.09.1-.08v-.1l-.33-.11-.38-.13-.56-.23-.21-.13v.34c.04.071.087.138.14.2l-.17.19-.06.22-.22.11-.12-.11h-.21l-.18.17-.08-.28c0-.09-.13-.2-.18-.3l-.11-.15-.25.11h-.3l-.26-.08h-.39l-.07.15-.26.11h-.14l-.28.15-.07.18.2.12v.26l.1.15.21.16-.17.08.11.21v.18h.47l.18.24c.05.11.11.22.15.33l-.06.3-.14.3-.29.19.29.19c.06.12.11.25.17.37l.19.16v.5l-.29.2-.32-.22-.33-.16a2.115 2.115 0 0 0-.1-.22l-.2-.28-.07-.28-.4.15-.28.12h-.18l-.38.08-.17-.1h-.7l-.36.3-.13-.14-.25-.31h-.2l-.14-.11v-.5l.11-.45.12-.41.21-.22.14-.24-.1-.14-.28.06h-.3l.35-.11h.29l.12-.1v-.19h.25l.12-.11V98l.07-.11v-.19l-.17.07-.2.07-.09-.06h-.25l.16-.06h.44l.15-.15.08-.22-.15-.08.17-.08.12.07-.05.17v.29c0 .09 0 .2.07.31l-.15.15.08.13.19-.09a.11.11 0 0 0 .06.11.61.61 0 0 0 .22-.13v-.21l.23-.11h.3l.19-.09v-.18h-.21l-.15-.16-.24.08-.22-.07h-.17a.502.502 0 0 1 0-.12h.15v-.21l.17-.08v-.18l.13-.22v-.13l-.12-.09-.14-.16.14-.11V96l-.15-.1h-.38l.21-.11v-.1h.3l.15-.1.14-.12-.16-.07.07-.07.19.09.16-.06.13.11h.12l.11.08h.16l.14.09h.16l.21.09.11.14-.15.13-.07.27.18.12-.28.21h-.17l-.16.08-.14.26c.019.058.042.115.07.17l.26-.09.2-.1v-.12l.05-.1h.16l.26-.06.36.09.12.1.24.08c.072-.033.142-.07.21-.11l.34.09.35-.17h.27l-.07-.13-.51-.07h-.22l-.14-.09h1.08l-.13-.18v-.21h-.26l-.2-.2h-.31l-.5-.14.05-.14v-.12l.58.07.26.1.18-.06-.1-.23.14-.18v-.08l.14-.08v-.11l-.12-.13-.25.16a.22.22 0 0 0-.06-.07h-.58a.37.37 0 0 0-.12.07l-.11-.09-.1-.05-.21.11h-.09l-.1-.14.14-.08v-.11l-.23.06v-.07l.08-.06h-.34v-.12h-.18l-.16.09h-.26l.07-.12h-.17l-.15.14-.18-.06-.06-.07h-.11v-.08h-.19c-.07.043-.144.08-.22.11v.09l-.11.07h-.11v.11l-.11.07v-.26l-.14-.1-.07-.11-.18.1-.07.14-.13.06-.07.13V95l.1.11v.12l.15.13-.1.07-.15-.09-.06-.21V95l.07-.2.11-.19-.17.08-.16.13-.16.26-.09.31v.34h.17l.11-.05.07.11h-.14l-.14.13.14.11.16-.1.09-.08H11l-.13.11v.15H11l-.11.35v.24l-.1.23h-.12l-.12-.21.05-.19-.23-.12-.14.25-.23-.17h-.08v-.36h-.09v-.15l-.13-.11-.26.13v.11l-.07.06-.1.2v.25l.13.1h.14v.19h-.17v.16l.13-.08.17-.2v.19l-.28.35v.29l-.19-.08v-.24a.2.2 0 0 1-.11.06v-.19h.1v-.27L9 96.87l-.07.23-.14.17.21.1-.11.18v.19l-.48.26h-.34l-.18-.09-.15.2-.24.26v.19l-.07.34-.07-.33-.18-.07-.18.17-.47.14v-.11l.19-.19-.16-.11-.15.08H6.1v-.14h-.16l-.09.06-.1.17-.11.08.06-.3-.18.31h-.1l.08-.34h-.07l-.15.27-.15.19-.13.04-.22.18-.22.25.24-.33.2-.12.12-.13.11-.15-.53.48h-.17l-.29.31h-.12v-.22h-.18v-.13h-.07l-.15.12V99h-.17a21.531 21.531 0 0 0-2.19 4.6l.14-.12v.1l-.21.25-.1.23a.699.699 0 0 0 0 .12v.21l.26-.37.17-.12a.84.84 0 0 1 .11-.39h.12v.2l.07.15.11.06.14-.13.07.07h.09v.16l.13.14c0 .06.09.16.14.23l.08-.1.08.1v.2h.15v.22l.14.08-.06.21h.21v.23l.07.21v.5h.15v.29l.17.22v.19l.16.1h.35l.05.15.19.13.17.1.11.36v.31l-.12-.15-.16-.2v-.15l-.15-.09h-.11v-.25h-.12l-.17-.05h-.18l-.11.07.08.18.13.08.13.12.26.2.11.27.14.35v1.23l-.07.17a2.61 2.61 0 0 1 0 .31l.17.29v.32l.09.24.12.17.05.33.19.22.22.14.2.41.2.11.09.21.22.21.21-.1.22.13h.28l.25.15.13.26.2.24.27.41.23.12.27.16.13.13-.1.22.18.14.26.08.33.08.24.15.06.19.12.13h.23l.29.1.21.1.11.19.07-.12-.07-.22-.19-.2h-.22l-.13-.19-.27-.08-.21-.25-.18-.23-.26-.11-.15-.25h-.06l-.23-.28-.3-.19-.15-.36.15-.08H8l.21.14.12.31.4.3.39.21.32.12.26.15.15.25h.32l.3.15.25.21.47.22.27.24.23.07-.11.19.07.22.47.14.4.11h1.98l.44-.07.23-.14v-.16l.26-.16h.39l.48.1.32.13c.08 0 .18-.08.28-.14h.3l.31.15.4-.07-.07-.16h.23c1 .47 1 .47 1 .64l.17.07.1-.12h.25c.57.15.57.15.73 0h.93l-.15-.24v-.21l.45-.21.14.12.14-.08.04-.14Z"/>
  </g>
</svg>
