<svg xmlns="http://www.w3.org/2000/svg" width="165" height="162" fill="none" viewBox="0 0 165 162">
  <g clip-path="url(#a)">
    <mask id="b" width="185" height="185" x="0" y="0" maskUnits="userSpaceOnUse" style="mask-type:luminance">
      <path fill="#fff" d="M0 0h185v185H0V0Z"/>
    </mask>
    <g mask="url(#b)">
      <path fill="red" d="m42.197 172.786-24.24-22.926c9.5-8.456 20.257-13.185 12.749-29.157-7.508-15.973-17.376-8.143-29.02-7.736C1.133 102.068.612 91.42 0 78.767c16.579 4.76 27.978 2.16 31.196-15.503 1.256-6.89 1.808-6.796-16.64-21.923l20.01-23.427c9.592 18.165 21.452 18.29 35.763 8.676C81.36 19.26 73.822 10.053 74.926.094h29.694c.49 9.834-6.558 21.547 10.051 27.404 15.322 5.418 19.858-4.103 26.906-15.66 8.703 8.112 16.609 15.41 24.73 22.957-8.151 8.707-21.267 12.528-12.748 27.623 6.987 12.246 6.129 12.716 29.235 9.396.735 10.367 1.44 20.639 2.206 31.319-10.327 2.944-24.27-6.076-27.58 12.12-7.722-7.485-16.272-10.774-15.69-24.397.919-22.487-16.119-41.999-36.773-47.26-20.654-5.262-42.902 3.132-53.413 19.887-12.87 20.608-11.706 44.254 3.34 62.293 10.082 12.089 23.75 19.418 38.612 17.226 13.208-1.974 18.754 5.386 26.875 13.404-17.038 4.259-10.664 16.724-10.358 28.594H79.675c3.463-14.313 1.747-26.339-16.18-29.001-7.14-1.034-7.017-1.879-21.298 16.787Z"/>
      <path fill="red" d="M61.626 85.5c5.577 5.043 9.898 9.02 14.28 12.904 5.945 5.292 17.682 5.199 22.31 0 4.626-5.2 3.309-17.602-3.065-23.302-4.137-3.79-8.121-7.704-12.258-11.588-.215-.219-.184-.657-.245-1.002 19.459-9.834 43.729 8.362 41.523 31.977a16.36 16.36 0 0 0 1.249 8.505 15.972 15.972 0 0 0 5.37 6.622c14.648 13.122 29.296 26.182 43.883 39.336 8.55 7.767 9.193 13.029 2.635 20.67-6.558 7.642-11.828 7.235-20.47-.501-14.893-13.31-29.848-26.589-44.434-40.276a13.579 13.579 0 0 0-6.262-4.042 13.322 13.322 0 0 0-7.406-.092c-23.075 4.823-40.512-13.185-37.11-39.21Z"/>
    </g>
  </g>
  <defs>
    <clipPath id="a">
      <path fill="#fff" d="M0 0h165v162H0z"/>
    </clipPath>
  </defs>
</svg>
