<svg xmlns="http://www.w3.org/2000/svg" width="183" height="185" fill="none" viewBox="0 0 183 185">
  <mask id="a" width="183" height="185" x="0" y="0" maskUnits="userSpaceOnUse" style="mask-type:luminance">
    <path fill="#fff" d="M0 0h182.66v184.42H0V0Z"/>
  </mask>
  <g mask="url(#a)">
    <path fill="red" d="m25.41 45.284 14.72 13.032H2.72V21.372l16.105 15.241c2.395-2.76 4.761-5.522 7.319-8.283 12.58-13.52 28.99-22.735 46.957-26.37a89.367 89.367 0 0 1 54.766 5.578 88.32 88.32 0 0 1 30.606 21.896c11.085 12.274 18.732 27.334 22.148 43.619a94.623 94.623 0 0 1-2.723 48.992 86.43 86.43 0 0 1-16.051 28.882c-8.565 10.577-19.358 19.069-31.586 24.851a95.215 95.215 0 0 1-27.696 7.869c-18.323 2.424-36.934-1.043-53.215-9.913-15.992-8.436-29.049-21.649-37.408-37.856-5.06-9.609-9.685-19.328-10.882-30.373C.408 99.872 0 94.24 0 88.635a6.977 6.977 0 0 1 1.972-4.387 6.785 6.785 0 0 1 4.313-2.02c3.944.332 5.658 2.403 5.604 7.014-.491 18.759 5.334 37.129 16.514 52.076 11.482 15.596 28.267 26.304 47.093 30.042a75.573 75.573 0 0 0 47.311-4.805 78.69 78.69 0 0 0 29.277-21.359 80.225 80.225 0 0 0 16.81-32.374 76.228 76.228 0 0 0-3.346-51.082c-10.42-24.85-28.539-41.418-54.412-47.879-25.247-6.24-48.562-1.408-69.103 15.518-5.468 4.556-10.338 9.858-16.623 15.905Z"/>
    <path fill="red" d="M47.855 85.183V54.037c0-6.931 3.89-10.797 10.883-10.797h65.783c7.319 0 11.236 3.894 11.236 11.21v27.972a5.807 5.807 0 0 0 1.089 3.175c1.822-4.804 3.917-6.102 8.869-4.777a4.99 4.99 0 0 1 1.716 1.323 5.07 5.07 0 0 1 1.004 1.935 31.998 31.998 0 0 1 0 6.462c0 7.29 0 7.151-7.155 7.234-3.482 0-4.598-1.215-3.265-4.666l-1.197-.36c-.524.978-.9 2.03-1.115 3.12v27.944c0 7.289-3.428 11.045-10.61 11.348-1.633 6.903-1.606 6.71-10.339 6.434-4.597-.166-3.7-3.424-3.944-6.351H73.02c-.897 6.544-.897 6.351-9.657 6.351-4.626 0-4.517-2.761-4.353-6.351-4.625-.193-8.815-1.132-10.42-6.157a16.368 16.368 0 0 1-.708-4.252V92.997l-1.632-.47-1.388 5.054a51.69 51.69 0 0 1-7.372-.139 3.475 3.475 0 0 1-1.472-.94 3.548 3.548 0 0 1-.84-1.544 87.739 87.739 0 0 1 0-11.349c.162-2.761 2.339-3.396 4.624-3.01 2.285.387 5.441-1.712 5.74 2.761a6.42 6.42 0 0 0 1.007 2.21l1.306-.387Zm81.618-3.258V65.358c.163-3.921-1.469-5.192-5.169-5.109-8.652.166-17.303 0-25.955 0-4.951 0-5.659.718-5.686 5.826 0 10.659.19 21.344 0 31.975 0 3.672 1.741 4.998 4.49 5.081 9.059.193 18.091.22 27.205 0 3.618 0 5.795-1.74 5.441-6.24a144.839 144.839 0 0 1-.435-14.966h.109Zm-75.116-.497c0 5.522.3 10.851 0 16.208-.299 4.004 1.605 5.522 4.843 5.522 8.787.166 17.575.193 26.362 0 3.02 0 5.632-1.38 5.632-5.218V64.805c0-2.927-1.224-4.611-4.598-4.528-9.331.166-18.636.166-27.967 0-3.183 0-4.19 1.27-4.163 4.224-.054 5.578-.218 11.266-.218 16.927h.11Zm51.311-27.86c-1.252-2.541-2.095-5.937-3.129-5.993-7.754-.469-15.562-.248-23.316-.248v6.24h26.445Zm-44.074 62.678c-.925 0-2.068-.359-2.72 0-1.633 1.022-4.109 2.237-4.299 3.645a5.8 5.8 0 0 0 .925 2.736 5.688 5.688 0 0 0 2.122 1.93c2.637.613 5.387.508 7.971-.303a5.895 5.895 0 0 0 1.95-1.852c.5-.762.82-1.631.934-2.539.218-2.374-1.66-3.672-4.108-3.727l-2.775.11Zm60.533 0c-2.72 0-6.203-1.021-6.964 3.148-.245 1.298.544 3.976 1.251 4.114 3.322.724 6.728.986 10.121.773 1.033 0 2.883-2.761 2.72-3.672a10.475 10.475 0 0 0-4.108-4.28c-.571-.525-1.959-.083-3.02-.083Zm-20.187.58v-.414H81.618v.414h20.322Zm-20.322 3.645v.386h20.404v-.386H81.618Zm20.622 4.501v-.387H81.618v.387h20.622Z"/>
  </g>
</svg>
