<svg xmlns="http://www.w3.org/2000/svg" width="136" height="132" fill="none" viewBox="0 0 136 132">
    <g clip-path="url(#a)">
        <path fill="#BC282B" d="M130.11 3.75c-12-7.84-43.26 7.56-71.88 35.84-17 16.77-29.36 34.46-35 48.55h-1.34c-.876.003-1.75.056-2.62.16 3.59-15.89 15.61-35.8 33.77-53.77C81.69 6.19 115.26-7 130.06 3.7l.05.05Z"/>
        <path fill="#342979" d="M94.77 11.14a57.36 57.36 0 0 0-8.86-.65H46.32v100.2l15.68-1a.644.644 0 0 0 .15-.07c2.7-1.25 5.48-2.71 8.26-4.34l.34-.19V74h15.16c1.88 0 3.69-.08 5.44-.25l.62-.6c1.26-1.25 2.46-2.44 3.52-3.55a174.51 174.51 0 0 0 23.39-29.7c1.12-1.827 2.15-3.613 3.09-5.36-2.65-12-11.71-21-27.2-23.44M84.05 54.83h-13.3V30h13.3c9.74 0 13.87 4.79 13.87 12.43s-4.13 12.4-13.87 12.4Z"/>
        <path fill="#E4202D" d="M100.68 81.81A151.329 151.329 0 0 1 70.75 105l-.34.19a94.233 94.233 0 0 1-8.26 4.34.644.644 0 0 1-.15.07 71.422 71.422 0 0 1-19.12 6.18c.428-1.44.7-2.922.81-4.42 1.45-.52 2.94-1.1 4.49-1.76l.17-.07A122.342 122.342 0 0 0 70.41 96.8l.34-.25A201.81 201.81 0 0 0 94.9 76.08c1.15-1.11 2.29-2.27 3.4-3.42a1.57 1.57 0 0 0 .18-.19 177.912 177.912 0 0 0 24-30.42c.12-.18.23-.368.33-.56 10.2-16.87 13.53-31.28 7.35-37.74 0 0 .05.06.06.09 13.64 13.46.42 48.35-29.54 78"/>
        <path fill="#342979" d="M28 88.78a22.16 22.16 0 0 0-16.39 1.76 21.59 21.59 0 0 0 4.38 40 22.119 22.119 0 0 0 16.39-1.77 21.588 21.588 0 0 0 6.414-33.202A21.59 21.59 0 0 0 28 88.77v.01Zm-17.1 3.93h.1-.05c-.12-.08-.12-.08-.2 0l.15-.08v.08Zm-3.21 2.43a.998.998 0 0 1-.13.16h-.07l-.1.1.3-.26Zm30.15 27.29a20.462 20.462 0 0 1-6.19 5l-.48.23a.408.408 0 0 1 0-.1l.13-.08a.149.149 0 0 0 0-.08c.07-.167.153-.328.25-.48h-.18c-.18-.06-.18-.06-.22-.11a.392.392 0 0 1 .11-.17l.2-.11a.36.36 0 0 1 0-.23.8.8 0 0 0 0-.27c.15-.07.15-.07.18-.18.03-.11 0 0-.06 0a.243.243 0 0 1-.13.11l-.1-.15a.23.23 0 0 0 0-.11c.05-.008.1-.008.15 0h.1a.461.461 0 0 0 .21-.19.382.382 0 0 1 0-.08.12.12 0 0 1 0-.08 1.348 1.348 0 0 0-.1-.15v-.08c.07-.051.144-.098.22-.14l.09-.06a.537.537 0 0 0 .14-.12c.09-.046.183-.083.28-.11.106-.189.196-.386.27-.59v-.23a.156.156 0 0 1-.1 0 .33.33 0 0 0 0-.13.546.546 0 0 0-.26-.06v-.07a.508.508 0 0 1 .18-.09c.69-.23.69-.23.83-.6.38-1 .38-1 .4-1a.541.541 0 0 0 0 .19c.07 0 .61-1.12.43-1.41-.18-.29-.19-.31.36-1.16l.23-.12c.069-.105.13-.215.18-.33.208-.097.397-.229.56-.39a.41.41 0 0 1 0-.17c.07-.06.07-.06.31-1.14v-.6a.48.48 0 0 1 0-.13 1.381 1.381 0 0 0 0-.45v-.13a.323.323 0 0 1 0-.09.577.577 0 0 0 0-.17.881.881 0 0 1 0-.43s.3-.72.37-.94l.19-.8a.861.861 0 0 0 0-.4c-.27-.61-.38-.61-.51-.61a3.379 3.379 0 0 1-.3.16c-.33.07-.65-.4-1 0-.11 0-.22.12-.36.2-.32 0-.52 0-.45.26 0 .08-.09.16-.32.14 0-.07 0-.07.08-.26h-.78a.239.239 0 0 1-.14 0 .368.368 0 0 0-.35.14c0 .09.07.19.11.28l-.25.14a1.258 1.258 0 0 1-.05-.21.743.743 0 0 0 .05-.16l.06-.11a.206.206 0 0 1-.07 0l-.39.06h-.14v.1c.07.15.11.26-.15.35 0 0 0-.08-.06-.19.17-.64.17-.64 0-.78l-.16.09c-.05-.11-.1-.22-.14-.33l-.35-.3h-1c-.2 0-.29.2-.45.28l-.13.06c-.65.22-.76.11-1.05-.16h-.47c-.25.09-.3-.05-.36-.18l-.13.08c-.22.22-.22.22-.28.24l-.16-.21a.388.388 0 0 0 .11-.15c-.11 0-.12-.06-.36 0l-.09.18h-.06a.361.361 0 0 0-.27.1c0 .35 0 .35-.07.42a1.178 1.178 0 0 0-.56 0 2.794 2.794 0 0 1-.41.18h-.18s-.07-.12-.16-.15-.46 0-.64.15a.24.24 0 0 1 0 .27.376.376 0 0 0-.22.27c0 .24.27.33.3.55-.41 0-.32-.48-.58-.61 0-.14.13-.47.13-.47h-.08l-.13.08c-.18.15-.21.18-.09.38-.11.07-.23.12-.41.25a.932.932 0 0 1-.51.54c.05.13.12.25.18.41.06.16-.07.14-.21.21a.771.771 0 0 0 0 .36.61.61 0 0 0-.11.52c.06.01.12.01.18 0 .13.26.6.41.38.76.16.4.16.4.12.52l-.17.11.14.18a1.01 1.01 0 0 1-.12.2s0 .09.05.12c-.15.14-.25.21-.08.5a.463.463 0 0 0-.22.17c.11.14.14.34.28.47h.09c.08-.1.08-.1.25-.15.027.059.05.119.07.18-.07.08-.17.13-.21.22-.04.09.07.12-.06.34.06.15.06.15.27.23v.05c.33.54 1.12.15 1.45.66l.08.12c1.71.86 1.71.86 1.84.81.439-.082.892-.03 1.3.15l.16-.08c.08.16.18.34.27.5.017.061.037.121.06.18v.06a.491.491 0 0 1 .06.09v.09c.013.06.037.118.07.17l.07.08c.07.08 0 0 0 .08a.36.36 0 0 1 0 .12l.13.14a.211.211 0 0 1 0 .08c.05.17 0 .36.07.53.058.24.098.484.12.73.43.53.51.64.36 1 .01.036.027.07.05.1v.08c0 .15-.07.29-.06.44.25.15.27.25.27.52.02.003.04.003.06 0a.208.208 0 0 1 .1.11.131.131 0 0 1-.027.043.12.12 0 0 1-.043.027c0 .19 0 .19.09.23h.2l-.12-.29a.91.91 0 0 0 .14-.07v.13a.646.646 0 0 0-.06.09.54.54 0 0 1 .12.36c.025.107.062.211.11.31a.42.42 0 0 1-.15 0h-.05s0 .05.13.08a.37.37 0 0 1 .13.12h-.21v.22c.06-.01.12-.01.18 0v.08c0 .08.06 0 .09 0l.06.06c-.15.11-.15.11-.2.19h.14c.08 0 0 0 .06.08a20.651 20.651 0 0 1-14 1A20.329 20.329 0 0 1 4 119.54a19.858 19.858 0 0 1-1.81-15.39v-.13l.13.14c0 .06.09.16.14.23l.08-.1.08.1v.2h.15v.22l.14.08-.06.21h.21v.23l.07.21v.5h.15v.29l.17.22v.19l.16.09h.49l.05.15.19.13.17.1.11.36v.31l-.12-.15-.16-.2v-.15l-.15-.09h-.11v-.25h-.12l-.17-.04h-.18l-.11.07.08.18.13.08.13.12.26.2.12.27.13.35v1.23l-.07.17a2.61 2.61 0 0 1 0 .31l.17.29v.32l.09.24.12.17.05.33.19.22.22.14.2.41.2.11.09.21.22.21.21-.1.22.13h.28l.25.15.13.26.2.24.27.41.23.12.27.16.13.13-.1.22.18.14.26.08.33.08.24.15.06.19.12.13h.23l.29.1.21.1.11.19.07-.12-.07-.22-.19-.2h-.22l-.13-.19-.27-.08-.21-.25-.18-.23-.26-.11-.15-.25h-.06l-.23-.28-.3-.19-.15-.36.15-.08H8l.21.14.12.31.4.3.39.21.32.12.26.15.15.25h.32l.3.15.25.21.47.22.27.24.23.07-.11.19.07.22.47.14.4.11h1.98l.44-.07.23-.14v-.16l.26-.16h.39l.48.1.32.13c.08 0 .18-.08.28-.14h.3l.31.15.4-.07-.07-.16h.23c1 .47 1 .47 1 .64l.17.07.1-.12h.25c.57.15.57.15.73 0h.93l-.15-.24v-.21l.45-.21.14.12.14-.08v-.24h-.1l-.15-.07-.46.24-.32.15-.45.19h-.29l-.46-.14-.11-.25-.18-.3-.12-.45a2.3 2.3 0 0 1-.14-.27l-.26-.13h-.36l-.42.25-.33.08-.26.3h-.31l.13-.27-.09-.12a.798.798 0 0 0-.08-.16v-.56c-.06-.11-.13-.22-.18-.33l.12-.22-.09-.26h-.2l-.44.28-.28.19v.28l.05.41v.37l-.23.16-.31.28-.33.23-.29-.15h-.38l-.25-.2-.39-.23-.4-.52-.25-.41V113l-.1-.42-.33-.31.09-.49.23-.14.13-.3.13-.33.33-.1h.26l.15-.16.24.12.28-.13.2-.13-.12-.13v-.29L15 110l.22-.15.44-.17.28.13.15-.07v-.17l.11-.1.29.08.3.14c0 .1.1.19.14.27l.18.11.14.15.21.06.18.13h.22l.12.19h.18v-.46l-.24-.22-.3-.36-.39-.26c-.07-.15-.15-.31-.25-.54-.1-.23 0-.22 0-.3V108l.22-.23.18-.43.18-.35.24-.26-.06-.22.15-.23-.36-.23-.2-.08-.05-.21-.19-.1.15-.21.31.13v-.56l.07-.2-.1-.51.4-.2.16-.27.3-.2-.17-.13-.22-.34.06-.37.23-.12v-.19l.31-.15.18-.3.06-.29a1.71 1.71 0 0 1 .73-.32v.14c0 .04-.25.12-.37.2a1.652 1.652 0 0 0-.13.27c.043.069.09.136.14.2h.21l.09-.24.07-.15.21-.2.18-.26.22-.19.06-.33.09-.27-.09-.19-.24.2v.39l-.31.18h-.72l-.36-.27.12-.3-.17-.26-.36.17-.32.3-.28.45-.19.59-.2.38v-.27l.07-.32.07-.18-.38.1.4-.22v-.23l.11-.29.27-.15v-.26l.18-.19.33-.19.59-.34.35-.12.24-.14.12-.29.05-.34.36-.24.14-.18v-.15h-.19v-.14l-.14-.21-.31.13-.14-.1L19 98l-.14.25-.09.18h-.16l-.06-.17.21-.22.26-.25v-.17l-.2.09h-.26l-.32.09h-.56l-.16-.09.1-.08v-.1l-.33-.11-.38-.13-.56-.23-.21-.13v.34c.04.071.087.138.14.2l-.17.19-.06.22-.22.11-.12-.11h-.21l-.18.17-.08-.28c0-.09-.13-.2-.18-.3l-.11-.15-.25.11h-.3l-.26-.08h-.39l-.07.15-.26.11h-.14l-.28.15-.07.18.2.12v.26l.1.15.21.16-.17.08.11.21v.18h.47l.18.24c.05.11.11.22.15.33l-.06.3-.14.3-.29.19.29.19c.06.12.11.25.17.37l.19.16v.5l-.29.2-.32-.22-.33-.16a2.115 2.115 0 0 0-.1-.22l-.2-.28-.07-.28-.4.15-.28.12h-.18l-.38.08-.17-.1h-.7l-.36.3-.13-.14-.25-.31h-.2l-.14-.11v-.5l.11-.45.12-.41.21-.22.14-.24-.1-.14-.28.06h-.3l.35-.11h.29l.12-.1v-.19h.25l.12-.11V98l.07-.11v-.19l-.17.07-.2.07-.09-.06h-.25l.16-.06h.44l.15-.15.08-.22-.15-.08.17-.08.12.07-.05.17v.29c0 .09 0 .2.07.31l-.15.15.08.13.19-.09a.11.11 0 0 0 .06.11.61.61 0 0 0 .22-.13v-.21l.23-.11h.3l.19-.09v-.18h-.21l-.15-.16-.24.08-.22-.07h-.17a.502.502 0 0 1 0-.12h.15v-.21l.17-.08v-.18l.13-.22v-.13l-.12-.09-.14-.16.14-.11V96l-.15-.1h-.38l.21-.11v-.1h.3l.15-.1.14-.12-.16-.07.07-.07.19.09.16-.06.13.11h.12l.11.08h.16l.14.09h.16l.21.09.11.14-.15.13-.07.27.18.12-.28.21h-.17l-.16.08-.14.26c.019.058.042.115.07.17l.26-.09.2-.1v-.12l.05-.1h.16l.26-.06.36.09.12.1.24.08c.072-.033.142-.07.21-.11l.34.09.35-.17h.27l-.07-.13-.51-.07h-.22l-.14-.09h1.08l-.13-.18v-.21h-.26l-.2-.2h-.31l-.5-.14.05-.14v-.12l.58.07.26.1.18-.06-.1-.23.14-.18v-.08l.14-.08v-.11l-.12-.13-.25.16a.22.22 0 0 0-.06-.07h-.58a.369.369 0 0 0-.12.07l-.11-.09-.1-.05-.21.11h-.09l-.1-.14.14-.08v-.11l-.23.06v-.07l.08-.06h-.34v-.12h-.18l-.16.09h-.26l.07-.12h-.17l-.15.14-.18-.06-.06-.07h-.11v-.08h-.19c-.07.043-.144.08-.22.11v.09l-.11.07h-.11v.11l-.11.07v-.26l-.14-.1-.07-.11-.18.1-.07.14-.13.06-.07.13V95l.1.11v.12l.15.13-.1.07-.15-.09-.06-.21V95l.07-.2.11-.19-.17.08-.16.13-.16.26-.09.31v.34h.17l.11-.05.07.11h-.14l-.14.13.14.11.16-.1.09-.08H11l-.13.11v.15H11l-.11.35v.24l-.1.23h-.12l-.12-.21.05-.19-.23-.12-.14.25-.23-.17h-.08v-.36h-.09v-.15l-.13-.11-.26.13v.11l-.07.06-.1.2v.25l.13.1h.14v.19h-.17v.16l.13-.08.17-.2v.19l-.28.35v.29l-.19-.08v-.24a.2.2 0 0 1-.11.06v-.19h.1v-.27L9 96.87l-.07.23-.14.17.21.1-.11.18v.19l-.47.26h-.35l-.18-.09-.15.2-.24.26v.19l-.07.34-.07-.33-.18-.07-.18.17-.47.14v-.11l.19-.19-.16-.11-.15.08H6.1v-.14h-.16l-.09.06-.1.17-.11.08.06-.3-.18.31h-.1l.08-.34h-.07l-.15.27-.15.19-.13.04-.22.18-.22.25.24-.33.2-.12.12-.13.11-.15-.53.48h-.15a20.32 20.32 0 0 1 1.54-2.17c.406-.491.837-.962 1.29-1.41l-.07.12.11-.12v.07l.09-.1.07-.1.11-.14.1-.11-.06.13.07-.07.2-.04.14-.22.11-.16.17-.15.07-.1.26-.24h.11A.28.28 0 0 0 9 94c.11-.09.24-.17.36-.26l-.06.1h-.05v.08h.13V94h.07v-.31l.53-.39v.07l.07-.06h.05v.06a.22.22 0 0 0-.07.06h-.07l.04-.03v.09h.1l.1-.05h.07v-.21h.05v-.07h.07v-.07a.342.342 0 0 0 0-.1h-.09v-.11h.08v.09l.08.06h.17s-.06.06-.07.1a.22.22 0 0 0 0 .08h-.25l-.07.08v.12h.23l-.08.1v.06c.08 0 .09 0 .19-.2v.09l-.07.11-.09.06h-.12.2l-.11.06c0 .16 0 .16-.08.24v.11l.05.08h.09s.06-.1.11-.11c.05-.01.11 0 .16 0s0-.09.08-.11c.08-.02 0 0 .17-.07h.08v.08a.24.24 0 0 0 .09-.06h.07c.14-.18.14-.18.16-.25l-.06.08-.06-.08.08-.07v-.16l.07-.37c0-.07-.07-.08-.1-.12h.08l-.07-.07c-.07-.07-.09 0-.12 0l-.05.07v-.14h.05c.09 0 .09 0 .14-.14h-.09.14c.22-.12.42-.26.65-.38.6-.32 1.21-.61 1.84-.87l2.64-.44h-.99s-.21 0-.26.08h-.72a20.61 20.61 0 0 1 12.76-.53c.13 0 .26.09.38.12l-.05.07c.087.007.174.007.26 0a1 1 0 0 0 .26.08h.48a20.2 20.2 0 0 1 7.59 4.76l-.68-.45c0 .18-.11.32-.12.48-.21-.09-.21-.09-.35-.06 0 .11 0 .24.06.33a.81.81 0 0 0-.2.21c.16.22.16.22.17.31l-.11.07a.258.258 0 0 1 0 .11.23.23 0 0 1-.11 0 .27.27 0 0 1-.33.06.18.18 0 0 0-.1 0c.103.178.227.342.37.49a.998.998 0 0 1-.2.14l.4.42a.34.34 0 0 0-.17.25c.2.24.36.49.54.73.051.068.108.132.17.19l-.2.14a1.8 1.8 0 0 1 .17.6c-.35.57.44 1 .23 1.53 0 0-.07.07-.1.08.146.32.257.656.33 1l.14.22c.12-.049.237-.105.35-.17 0 0 .07.07.11.08.103.383.265.747.48 1.08l.13.22a.59.59 0 0 1 0 .34c.088.143.184.28.29.41a.666.666 0 0 0 .06.12c.15.29.23.33.58.48h.11c.11.07.16.19.26.27h.12c.21.54.21.54.76.56.04.116.087.229.14.34.22.06.41.23.66.18v-.39a1.03 1.03 0 0 0 .19-.13.677.677 0 0 1 .22-.09c.038.02.072.047.1.08.27-.21 0-.64.42-.78v-.08a.761.761 0 0 1 .06-.25h.12c.21.45.21.45.31.49a20.059 20.059 0 0 1-4.07 17.44l.31-.11Z"/>
        <path fill="#342979" d="m7.54 95.63-.06.12h.24l.11-.08h.19l-.13.11h-.1l-.09.1v.09l.14-.05.16-.24.14-.16.09-.07h.13l.11-.06.09-.13.1-.26h-.05a.42.42 0 0 0 0-.1v-.11h-.07l-.06.08-.07.06v.08c0 .07 0 .07-.07.22h.06a.18.18 0 0 1-.1.13h-.1v-.19H8l-.13.1-.12.17-.11.13-.1.06Zm.73-.81-.09.06v.09h.08l.01-.15Zm.02.99a.747.747 0 0 1-.07.12c0 .07 0 .07.06.07a.46.46 0 0 1 0 .12L8.4 96l.07-.18-.18-.01Zm-.25.21.07-.01.07-.12-.07.04-.07.09Zm-.62 2.19.14-.02.14-.16.12-.09.03-.17-.21.19-.22.25Zm1.3-3.13a.11.11 0 0 1-.06.07v.1h.07a.43.43 0 0 0 0-.1l-.01-.07Zm-1.05.3-.11.1-.13.15h.06l.18-.25Zm2.21-1.66.04-.07-.03-.07-.08.04-.03-.07-.05.07-.01.08-.05.14.07-.01.14-.11Z"/>
        <path fill="#342979" d="m8.29 96.94-.07-.15.06-.21-.07-.07.06-.25v-.13h-.1l-.17.02s0 .12-.06.19v.27l-.05.11v-.37h-.08v.2h-.09v.1l-.09.06.06-.12.07-.14h-.13l-.09.06-.06.14v-.25h-.1l-.11.15-.1.09-.17.13-.13.16-.05.16-.15.16v.1h.07v.08l.11-.11.13-.06v.06l-.13.13-.13.09-.08.12.08.06s.1 0 .14-.07l.14-.12.13-.06h.08v.12l-.22.1a.631.631 0 0 0-.2.1l-.28.21v.22l.17-.07.13-.06v.21l.08.05.19-.08.18-.09.15-.18.15-.13.15-.18.08-.1.09-.07.18.09.14-.06.12-.09.08-.18-.09-.08h.08l.14-.1v-.12L8.5 97l-.21-.06Zm.22-2.35h.09l.06-.1v-.07l.08-.09h-.1l-.06.05-.11.11-.07.17.11-.07Zm1.22-.25h.08l.08-.12v-.13h-.08l-.09.07v.12h.05l-.04.06Zm.52-.6v-.08l-.09.07-.07.14h.12a.34.34 0 0 0 .04-.13Zm-.43.09-.06.09v.07l.11-.06.05-.05.09-.07v-.07h-.08l-.11.09Zm-.82.43v-.05a.45.45 0 0 0-.08.26L9 94.4v-.14Zm.53.63h.16l.08-.09v-.14h-.06v-.08h-.08l-.12.12v.1l.02.09Zm-.19-.79-.01-.05-.09.04-.02.09.05-.03.07-.05Zm-2.19 2.44.15-.13v-.28h-.07l-.14.13h-.18l-.18.1a.519.519 0 0 1-.07.12l-.11.22-.24.3-.37.52h.13l-.06.3.17-.22a.666.666 0 0 1 .12-.06l.13-.16c.122-.23.27-.444.44-.64l.28-.2Zm13.02 14.53-.14.08c-.15.07-.26.19-.42.21-.16.02-.21-.06-.32-.07-.16-.01-.32-.01-.48 0h-.24c-.04 0-.07-.07-.17 0a1.82 1.82 0 0 1-.3.18l-.09.12c-.05.07-.12 0-.17.06l-.29.15c-.25.12-.25.12-.28.16-.16.36.49.49.72.15.07-.07.07-.18.15-.24a.998.998 0 0 1 .24-.13s.32-.05.43.07c.11.12 0 0 .09 0 .123-.013.244-.039.36-.08a.172.172 0 0 1 .1-.033c.036 0 .071.012.1.033a.515.515 0 0 0 .45 0l1-.51a1.16 1.16 0 0 0-.74-.15Zm1.68-11.46v-.06s.05-.07-.16-.28c-.21-.21-.12-.12-.13-.28l-.11-.08c-.13.07-.13.07-.18.07a1.71 1.71 0 0 1-.32 0 .15.15 0 0 0-.11 0 2.429 2.429 0 0 0-.24.1h-.1c-.06-.19-.06-.19-.06-.23v-.08a.17.17 0 0 0-.11-.18h-.05c-.05 0-.06 0-.1.05-.04.05-.08.08-.08.12 0 .04 0 0 .07.08l.06.14a2.82 2.82 0 0 1-.08.61.89.89 0 0 0 0 .22.26.26 0 0 0 .07.16s.08.07.11.11l.8-.45a.33.33 0 0 1 .25 0 .78.78 0 0 0 .47-.02ZM24 110.25c-.05 0-.05-.12-.1-.18a1.172 1.172 0 0 1-.36.26.372.372 0 0 1-.12.07h-.3s0 .12-.09.16c-.07.048-.144.091-.22.13h-.62l-.47.23c-.08 0-.08 0-.23.16l.2.38c.125.049.256.079.39.09a.915.915 0 0 1 .14-.07c.16-.09.16-.3.33-.4.17-.1.17 0 .23-.08s.13-.11.21-.14a2.13 2.13 0 0 0 .47-.33.2.2 0 0 1 .13-.06 2.53 2.53 0 0 0 .36-.12.326.326 0 0 1 .13-.07.98.98 0 0 0 .09-.13c-.09.09-.17.14-.17.1Zm-3.38 1.87h-.34a3.21 3.21 0 0 1-.37.19.32.32 0 0 0 .14.08.117.117 0 0 0 .055.013c.02 0 .038-.004.055-.013a.51.51 0 0 1 .22 0l.07.07s.1 0 .14-.07a.913.913 0 0 0 .05-.17s.03-.08-.02-.1Zm7.13-21.46h.11l-.17-.08-.09.08-.1.1a.15.15 0 0 0 .25-.1Zm2.81 1.65a.751.751 0 0 0-.25-.09c-.05 0-.05 0-.06-.06a.4.4 0 0 1-.13-.07h.05l-.17-.15c-.11 0-.21-.07-.32-.08 0 0 .13 0 .13.11l-.38-.15c-.17-.09-.33-.18-.39-.13h-.07a1.605 1.605 0 0 1-.23 0c-.1 0-.18-.07-.28-.08-.1-.01-.18 0-.28 0l-.12-.11H28c-.06 0-.1-.09-.17-.12l-.26-.1c-.06 0-.11.1-.18.14-.32-.21-.36-.22-.4-.21l-.09.06c-.09.06 0 0 .25.11.06 0 .15 0 .2.1.05.1-.11 0-.15 0a.29.29 0 0 0 .33.09.09.09 0 0 0 .06 0 .07.07 0 0 0 .05 0c.07 0 .14 0 .2.09s0 .06.11.13h.17H28c.122.023.24.064.35.12l.14.05.11-.08c.18 0 .3.12.47.12.17 0 .25 0 .3.17a.3.3 0 0 0-.16 0h.11-.05.14c.03 0 .1-.06.18 0l.07.09s.16.11.2.08c.04-.03 0-.05 0-.07l.22-.08s.19.06 0 .15 0 .06.06.09c.2.1.2.1.21.21h.06v-.16h.1l.05-.06c-.12-.06-.12-.06-.14-.09h.06l.1-.06a.13.13 0 0 0-.07-.06h.18l.06-.06s-.06 0-.07-.07l-.12.23Zm-1.22.29h-.16a2.22 2.22 0 0 0-.41-.24h-.13a.09.09 0 0 0-.05-.08l-.32-.28h-.16v.07l.06.07H28c.11 0 .21.11.31.15h-.07l.42.22a.12.12 0 0 0 .09 0c.07 0 .12.07.19.09l-.06.06.09.08.12.07c.11.11.27.09.27 0s0-.07.09 0 0 0-.11-.18c.07-.06.14-.1.21-.15l-.21.12ZM27 91.53h-.06l-.12-.06v.07h.06l.07.06a.2.2 0 0 0 .08 0c-.03-.06-.03-.06-.03-.07Zm-5.33.1a.5.5 0 0 1 .43 0 .41.41 0 0 0-.26.16h.18l.11-.06h.05l.22.08h.2a.4.4 0 0 1 .13-.13h.06c.08-.09.16 0 .26 0a.28.28 0 0 0 .19-.09v-.09c-.09 0-.09 0-.11-.08 0 0-.11 0-.08-.13s0 0 .17-.13l-.28-.16h-.26a.902.902 0 0 1-.21-.08h-.18l-.1.07v.06s.07.05.05.09c-.05 0-.14 0-.19.08-.05.08-.07.09-.06.12 0 0-.07 0-.09.07h-.4.11-.13s-.12.09-.11.14c.01.05.25.15.3.08ZM19 99.91h-.41a.15.15 0 0 1-.07 0l-.09.11h.28c.05.01.1.01.15 0h.19c.02 0 .11 0 .11-.27H19v.16Zm-9.52-5.5h-.06c-.06 0 0 0-.08.08v-.07h-.07c0 .07.07.24 0 .23v-.12H9.2v.23-.23h-.08l-.08.16v.2h.08l.07-.07h.07V95h-.09l.1-.06h.07v-.26c0-.06.06-.06.07-.11l.07-.16Zm.37.59h-.09c-.17.1-.17.1-.17.14 0 .04 0 .14-.1.22-.005.08-.005.16 0 .24v.25l.13-.1.08-.13v-.14h.12l.08-.12.07-.18c0-.05.06-.12.07-.17.01-.05-.08 0-.1 0L9.85 95Zm-.59.14h.08V95l-.08.14Zm1.81-1.31h-.17l-.11.11-.15.13-.11.07h-.15l-.13.07-.09-.07V94l-.12.06s-.06 0-.08.07a.64.64 0 0 0 0 .28l-.07.17.05.08h.1l.15-.1a.75.75 0 0 0 .09-.09c.12.07.12.07.27 0a1.1 1.1 0 0 1 .19-.09l.09-.09v-.08h.07c.31-.17.31-.17.28-.24-.03-.07 0 0 0-.1v-.1l-.11.06Zm.93 4.3v.05a.34.34 0 0 0-.12.15l-.06.08a.23.23 0 0 0 .11 0 .17.17 0 0 0 .08-.06.79.79 0 0 0 .12-.14.457.457 0 0 0 0-.13V98s-.07.09-.13.13Zm.77-.28-.18.07-.13.18.15.2c.067-.04.137-.073.21-.1l.07-.1V98a1.002 1.002 0 0 1-.12-.15Zm-1.33-3.57-.17.08.06.13.07.1.28-.12.06-.14.14-.12h-.19l-.25.07Zm1.3 1.65v-.17l-.14-.1c-.24.15-.24.15-.26.15v.21l.14.1.15-.07.11-.12Zm-3.52-.24h-.07c.16-.2.16-.2.07-.32h-.1v.11h-.07l-.09.09v.11l.06.08c-.11.28-.13.27-.19.16h-.09v.13l.06.05h.16v.13a.19.19 0 0 0 .14 0s.08-.14.11-.17l.16-.09.08-.19v-.11l-.23.02Z"/>
    </g>
    <defs>
        <clipPath id="a">
            <path fill="#fff" d="M0 0h135.59v131.33H0z"/>
        </clipPath>
    </defs>
</svg>
