<svg xmlns="http://www.w3.org/2000/svg" width="185" height="175" fill="none" viewBox="0 0 185 175">
  <mask id="a" width="185" height="185" x="0" y="0" maskUnits="userSpaceOnUse" style="mask-type:luminance">
    <path fill="#fff" d="M0 0h185v185H0V0Z"/>
  </mask>
  <g mask="url(#a)">
    <path fill="#FC0000" d="M103.02 167.537H6.76v-64.074c0-.853.327-1.671.909-2.274a3.052 3.052 0 0 1 2.196-.942h90.05c.823 0 1.613.339 2.195.942.582.603.91 1.421.91 2.274v64.074Zm-92.036-4.376h87.81v-58.538h-87.81v58.538Z"/>
    <path fill="#FC0000" d="M108.807 164.671H1.289c-.342 0-.67.14-.912.391a1.36 1.36 0 0 0-.377.943v17.66C0 184.403.577 185 1.289 185h107.518c.342 0 .67-.141.912-.391.241-.25.377-.59.377-.944v-17.66a1.36 1.36 0 0 0-.377-.943 1.266 1.266 0 0 0-.912-.391Zm34.157-82.478a13.695 13.695 0 0 0-2.239-.372c-1.352-.153-2.704-.328-4.013-.613-8.536-1.949-16.212-6.764-21.835-13.697-5.623-6.933-8.878-15.595-9.259-24.642a41.442 41.442 0 0 1 1.373-12.648c2.722-10.307 9.227-19.103 18.124-24.51a36.844 36.844 0 0 1 15.61-5.405L142.373 0h5.492c.135.083.287.136.443.153l1.88.24a36.3 36.3 0 0 1 3.76.592c8.523 1.986 16.177 6.822 21.781 13.764 5.605 6.94 8.848 15.6 9.229 24.64a40.416 40.416 0 0 1-1.373 12.562c-2.689 10.357-9.198 19.206-18.124 24.64a37.05 37.05 0 0 1-14.407 5.252l-3.189.35h-4.901Zm4.605-4.88.57-.175c2.88-.995 5.409-2.853 7.267-5.34a34.689 34.689 0 0 0 5.936-11.094l.19-.635h-13.963v17.244Zm-18.23-16.653c1.62 5.636 4.818 10.648 9.189 14.4a10.91 10.91 0 0 0 3.95 2.056l.571.132V60.09h-13.667l-.043.569Zm37.537-.613c-.507 0-.824.723-.845.788l-1.267 2.867a179.234 179.234 0 0 1-2.366 5.493 26.195 26.195 0 0 1-1.521 2.691l-.803 1.357-.802 1.379 1.394-.723c5.805-2.969 10.731-7.505 14.258-13.13l.465-.744-8.513.022Zm-51.161.635c1.626 4.048 10.562 12.254 14.258 13.13l1.12.262-1.204-1.86a44.561 44.561 0 0 1-5.133-10.941 1.522 1.522 0 0 0-.559-.912 1.423 1.423 0 0 0-1.004-.292h-7.732l.254.613Zm-5.492-16.74a36.307 36.307 0 0 0 2.408 10.766c.112.22.279.404.483.535.204.13.439.203.679.209h9.146l-1.394-11.97h-11.238l-.084.46Zm57.413 11.444h9.422c.207-.027.404-.112.568-.248a1.18 1.18 0 0 0 .361-.518l.169-.46c.349-.86.638-1.743.866-2.647.401-1.729.76-3.48 1.12-5.274l.57-2.78h-11.724l-1.352 11.927Zm-20.088 0h15.315v-.372a60.393 60.393 0 0 0 1.436-11.073v-.481H147.4l.148 11.926Zm-20.046 0h15.526v-11.97H125.96l1.542 11.97Zm-1.542-16.565h17.068V26.85h-15.505l-1.563 11.97Zm-7.077-11.948h-5.323a1.31 1.31 0 0 0-.615.321 1.387 1.387 0 0 0-.378.598l-.211.722c-.591 1.925-1.162 3.83-1.626 5.777a22.55 22.55 0 0 0-.423 2.735l-.211 1.773h11.449l1.415-11.948-4.077.021Zm48.775 0 1.33 11.882h11.28v-.875a38.656 38.656 0 0 0-2.366-10.285 1.112 1.112 0 0 0-.433-.607 1.049 1.049 0 0 0-.707-.181h-8.788l-.316.066Zm-20.11 11.882h17.068l-1.542-11.883h-15.505l-.021 11.883Zm-24.292-16.587c.31.015.617-.081.867-.273a1.4 1.4 0 0 0 .506-.778 44.582 44.582 0 0 1 3.654-8.578c.444-.788.93-1.576 1.394-2.363l1.373-2.189-1.225.46c-4.562 1.729-12.674 9.344-14.174 13.13l-.232.634h7.752l.085-.043Zm36.924-13.13a46.25 46.25 0 0 1 5.513 11.291c.549 1.62.739 1.751 2.366 1.751h7.393l-.465-.744c-3.525-5.643-8.469-10.183-14.3-13.13l-1.162-.613.655 1.445Zm-12.674 12.976h14.068l-.613-1.575a41.328 41.328 0 0 0-.697-1.773 29.266 29.266 0 0 0-7.266-10.81 12.146 12.146 0 0 0-4.922-2.867l-.57-.153v17.178ZM142.499 5.1c-6.337 1.707-11.596 10.788-13.117 16.39l-.169.613h13.857V4.946l-.571.153Z"/>
    <path stroke="#FC0000" stroke-miterlimit="10" stroke-width="1.7" d="M54.097 90.793c0-10.329 2.873-42.256 40.135-45.626"/>
    <path fill="#FC0000" d="m58.618 85.06-4.478 4.88-4.71-4.64.084 4.049 4.71 4.639 4.5-4.88-.106-4.048Zm30.798-34.444 4.098-5.252-5.049-4.224 3.887-.437 5.049 4.245-4.098 5.23-3.887.438Z"/>
  </g>
</svg>
