<svg xmlns="http://www.w3.org/2000/svg" width="185" height="181" fill="none" viewBox="0 0 185 181">
  <mask id="a" width="185" height="185" x="0" y="0" maskUnits="userSpaceOnUse" style="mask-type:luminance">
    <path fill="#fff" d="M0 0h185v185H0V0Z"/>
  </mask>
  <g mask="url(#a)">
    <path fill="red" d="M61.29 75.786c.342-.877.798-1.7 1.354-2.436 4.524-4.393 9.851-7.713 15.637-9.746a40.487 40.487 0 0 1 17.954-2.055c7.807.75 15.274 3.803 21.583 8.824 1.379 1.056 2.758 2.111 4.061 3.248 2.006 1.732 2.507 4.006 1.128 5.63a3.93 3.93 0 0 1-2.829 1.09c-1.037-.035-2.023-.492-2.761-1.28-6.832-6.732-15.722-10.51-24.972-10.61-9.249-.1-18.208 3.485-25.163 10.07a3.166 3.166 0 0 1-1.786 1.123 2.996 2.996 0 0 1-2.05-.285 3.67 3.67 0 0 1-1.574-1.437 4.098 4.098 0 0 1-.581-2.136Z"/>
    <path fill="red" d="M117.392 88.832a16.491 16.491 0 0 1-2.506 2.707c-1.304.974-2.507.19-3.635-.785a67.378 67.378 0 0 0-5.966-5.44c-4.599-3.06-9.984-4.447-15.366-3.96-5.382.487-10.478 2.824-14.54 6.666-.727.731-1.454 1.408-2.206 2.112-.28.328-.616.593-.99.78a2.924 2.924 0 0 1-2.402.103 3.103 3.103 0 0 1-1.045-.694 3.173 3.173 0 0 1-.801-1.03 3.457 3.457 0 0 1-.165-2.624c.145-.425.372-.812.665-1.137a38.522 38.522 0 0 1 7.52-6.604c5.405-3.567 11.692-5.262 18.016-4.855 6.324.406 12.38 2.894 17.355 7.129a40.14 40.14 0 0 1 5.013 5.007c.432.836.783 1.716 1.053 2.626Zm.953 70.861v-6.875c0-.541.777-1.218 1.328-1.516 5.846-3.276 11.148-7.575 15.693-12.721 4.351-4.915 7.902-10.589 10.503-16.781a2.368 2.368 0 0 1 .956-1.358 2.072 2.072 0 0 1 1.551-.321h5.014c-1.078 11.829-21.759 35.214-35.045 39.572Zm-51.59 0c-8.018-3.741-15.272-9.155-21.346-15.932-6.075-6.777-10.85-14.783-14.05-23.558h6.318c.501 0 1.128.866 1.404 1.488 5.575 12.757 14.9 23.167 26.521 29.611.39.156.718.449.932.833.214.384.3.834.246 1.278-.075 1.976-.025 3.952-.025 6.28ZM62.42 32.183l.551 6.657c-4.362 3.98-8.799 7.687-12.86 11.802-5.284 5.571-9.404 12.299-12.082 19.731-.527 1.407-1.103 2.003-2.507 1.922-1.404-.081-3.41 0-5.565 0a114.934 114.934 0 0 1 8.373-17.431c6.044-9.715 14.353-17.539 24.09-22.682Zm92.048 40.139h-5.84c-.477 0-1.003-.785-1.279-1.326-2.507-4.737-4.763-9.663-7.52-14.156-4.219-6.612-9.719-12.153-16.119-16.24-.551-.38-1.103-.812-1.554-1.164l.401-7.28c9.401 1.298 30.357 27.39 31.911 40.166Z"/>
    <path fill="red" d="M107.791 103.99a4.42 4.42 0 0 1-2.025-.898 4.888 4.888 0 0 1-1.409-1.809 14.785 14.785 0 0 0-3.584-4.638 13.537 13.537 0 0 0-4.989-2.735 12.897 12.897 0 0 0-5.583-.388c-1.866.281-3.66.97-5.271 2.023a18.016 18.016 0 0 0-4.713 4.818c-1.454 1.894-3.36 2.706-5.014 1.651-1.654-1.056-1.755-3.248-.501-5.413 2.622-4.33 6.552-7.546 11.123-9.1a19.3 19.3 0 0 1 13.945.574c4.214 1.954 7.761 5.274 10.152 9.5a3.74 3.74 0 0 1 .834 2.058 3.832 3.832 0 0 1-.458 2.191 12.758 12.758 0 0 1-2.507 2.166Z"/>
    <path fill="red" d="M84.152 111.271c-.021-2.329.795-4.576 2.277-6.267 1.483-1.691 3.515-2.696 5.67-2.801 2.213-.001 4.34.928 5.931 2.59 1.59 1.662 2.52 3.927 2.592 6.315.021 2.354-.812 4.623-2.32 6.323-1.509 1.699-3.573 2.694-5.752 2.772a7.695 7.695 0 0 1-3.212-.626 8.185 8.185 0 0 1-2.734-1.926 8.94 8.94 0 0 1-1.824-2.922 9.5 9.5 0 0 1-.628-3.458Zm34.744-81.146h-3.735V6.767c-.025-4.25-1.88-6.767-5.389-6.767H75.203a4.9 4.9 0 0 0-1.999.518 5.256 5.256 0 0 0-1.658 1.312 5.73 5.73 0 0 0-1.06 1.901 6.043 6.043 0 0 0-.296 2.197c.2 7.335 0 14.697 0 22.032v2.246h-4.437v4.926a5.818 5.818 0 0 0 .233 2.418 5.491 5.491 0 0 0 1.189 2.063 4.975 4.975 0 0 0 1.905 1.293c.718.27 1.483.36 2.238.262h20.204c.577 0 1.153 0 1.855-.135a30.208 30.208 0 0 1 0-4.764c0-.676 1.028-1.19 1.58-1.786.476.65 1.228 1.245 1.328 1.976.1 1.505.1 3.015 0 4.52h3.986V37c0-1.272.326-2.355 1.554-2.463 1.228-.108 1.579 1.11 1.554 2.355-.025 1.245 0 2.706 0 4.114h3.936a26.222 26.222 0 0 1 0-4.466c.098-.43.287-.83.553-1.168.265-.339.599-.606.976-.78 1.053-.245 1.554.757 1.554 1.894v4.466c7.42 1.164 9.927-2.761 8.498-10.827Zm-6.843-1.407H73.398V6.848c0-.976.36-1.913.999-2.603.64-.69 1.506-1.078 2.41-1.078h31.837c.904 0 1.771.388 2.41 1.078.64.69.999 1.627.999 2.603v21.87Zm72.596 77.356h-3.735V82.743c0-4.277-1.855-6.686-5.365-6.713h-34.518a4.87 4.87 0 0 0-1.99.506 5.22 5.22 0 0 0-1.655 1.297 5.699 5.699 0 0 0-1.063 1.887 6.019 6.019 0 0 0-.306 2.183c.176 7.335 0 14.67 0 22.033v2.246h-4.512v4.926a5.835 5.835 0 0 0 .243 2.408 5.511 5.511 0 0 0 1.191 2.053 4.984 4.984 0 0 0 1.901 1.286 4.664 4.664 0 0 0 2.23.262h21.91a32.652 32.652 0 0 1 0-4.764c0-.676 1.052-1.191 1.604-1.786.451.65 1.203 1.245 1.303 1.949a29.75 29.75 0 0 1 0 4.547h3.936v-3.979c0-1.272.301-2.382 1.529-2.463 1.229-.081 1.605 1.11 1.579 2.328-.025 1.218 0 2.706 0 4.141h3.936a26.43 26.43 0 0 1 0-4.466c.095-.435.282-.841.548-1.184.265-.343.601-.614.981-.792 1.053-.216 1.554.758 1.529 1.922v4.358c7.596 1.163 10.053-2.761 8.724-10.854Zm-6.869-1.408h-38.629V82.824c0-.977.359-1.913.999-2.603.639-.69 1.506-1.078 2.41-1.078h31.811c.904 0 1.772.388 2.411 1.078.639.69.998 1.626.998 2.603v21.842Zm-58.884 69.291h-3.735v-23.359c0-4.249-1.88-6.685-5.389-6.712H75.278a4.886 4.886 0 0 0-2.015.493 5.26 5.26 0 0 0-1.68 1.299 5.732 5.732 0 0 0-1.081 1.902 6.047 6.047 0 0 0-.312 2.206c.2 7.335 0 14.67 0 22.006v2.273h-4.437v4.899a5.816 5.816 0 0 0 .233 2.417 5.5 5.5 0 0 0 1.189 2.064 4.986 4.986 0 0 0 1.905 1.293 4.668 4.668 0 0 0 2.238.262h22.06a29.623 29.623 0 0 1 0-4.764c0-.676 1.027-1.218 1.579-1.813.476.649 1.228 1.272 1.328 1.976.1 1.505.1 3.015 0 4.52h3.986v-3.979c0-1.272.326-2.355 1.554-2.463 1.228-.108 1.579 1.11 1.554 2.355-.025 1.245 0 2.706 0 4.141h3.936a26.222 26.222 0 0 1 0-4.466c.095-.435.282-.841.548-1.184.265-.343.601-.614.981-.792 1.053-.244 1.554.758 1.554 1.922v4.439c7.42 1.082 9.927-2.842 8.498-10.935Zm-6.843-1.408H73.398v-21.842c0-.977.36-1.913.999-2.603a3.284 3.284 0 0 1 2.41-1.078h31.837c.904 0 1.771.387 2.41 1.078.64.69.999 1.626.999 2.603v21.842Zm-58.91-66.475h-3.735V82.743c0-4.277-1.855-6.686-5.364-6.713H9.526a4.88 4.88 0 0 0-1.99.507 5.23 5.23 0 0 0-1.655 1.297 5.706 5.706 0 0 0-1.063 1.886 6.018 6.018 0 0 0-.306 2.183c.176 7.335 0 14.67 0 22.033v2.246H0v4.926a5.823 5.823 0 0 0 .244 2.416c.25.774.66 1.478 1.198 2.056a4.982 4.982 0 0 0 1.91 1.285 4.668 4.668 0 0 0 2.238.252H27.5a30.235 30.235 0 0 1 0-4.764c0-.676 1.027-1.191 1.604-1.786.45.65 1.203 1.245 1.303 1.949.1 1.515.1 3.031 0 4.547h3.936v-3.979c0-1.272.326-2.382 1.554-2.463 1.228-.081 1.58 1.11 1.554 2.328-.025 1.218 0 2.706 0 4.141h3.936a26.305 26.305 0 0 1 0-4.466c.08-.438.26-.847.522-1.192s.6-.614.982-.784c1.053-.216 1.554.758 1.554 1.922v4.466c7.596 1.055 10.052-2.869 8.699-10.962Zm-6.843-1.408H7.67V82.824c0-.977.36-1.913 1-2.603.639-.69 1.506-1.078 2.41-1.078h31.81c.905 0 1.772.388 2.411 1.078.64.69.999 1.626.999 2.603v21.842Z"/>
  </g>
</svg>
