<svg xmlns="http://www.w3.org/2000/svg" width="88" height="85" fill="none" viewBox="0 0 88 85">
  <defs>
    <clipPath id="a">
      <path fill="#fff" d="M0 0h87.58v84.54H0z"/>
    </clipPath>
  </defs>
  <g clip-path="url(#a)">
    <path fill="#B4B4B3" d="M48.77 76.56H3.2V47.28a1.47 1.47 0 0 1 1.47-1.47H47.3a1.47 1.47 0 0 1 1.47 1.47v29.28Zm-43.57-2h41.57V47.81H5.2v26.75Z"/>
    <path fill="#B4B4B3" d="M51.51 75.25H.61a.61.61 0 0 0-.61.61v8.07c0 .337.273.61.61.61h50.9a.61.61 0 0 0 .61-.61v-8.07a.61.61 0 0 0-.61-.61Z"/>
    <path fill="#fff" d="M29.06 80.28h-3v4.26h3v-4.26Zm6.29 0h-3v4.26h3v-4.26Zm6.29 0h-3v4.26h3v-4.26Z"/>
    <path fill="#B4B4B3" d="M67.68 37.56a6.7 6.7 0 0 0-1.06-.17c-.64-.07-1.28-.15-1.9-.28A18.78 18.78 0 0 1 50 19.59a18.32 18.32 0 0 1 .65-5.78 18.71 18.71 0 0 1 8.58-11.2A17.86 17.86 0 0 1 66.62.14L67.4 0H70a.52.52 0 0 0 .21.07l.89.11c.598.06 1.192.15 1.78.27A18.83 18.83 0 0 1 87.56 18a17.85 17.85 0 0 1-.65 5.74A18.69 18.69 0 0 1 78.33 35a17.94 17.94 0 0 1-6.82 2.4l-1.51.16h-2.32Zm2.18-2.23.27-.08a7.25 7.25 0 0 0 3.44-2.44 15.68 15.68 0 0 0 2.81-5.07l.09-.29h-6.61v7.88Zm-8.63-7.61a13.57 13.57 0 0 0 4.35 6.58 5.23 5.23 0 0 0 1.87.94l.27.06v-7.84h-6.47l-.02.26ZM79 27.44c-.24 0-.39.33-.4.36l-.6 1.31c-.36.84-.73 1.68-1.12 2.51-.215.424-.456.835-.72 1.23l-.38.62-.38.63.66-.33a17.05 17.05 0 0 0 6.75-6l.22-.34-4.03.01Zm-24.22.29c.77 1.85 5 5.6 6.75 6l.53.12-.57-.85a20.07 20.07 0 0 1-2.43-5 .69.69 0 0 0-.74-.55h-3.66l.12.28Zm-2.6-7.65c.119 1.69.504 3.35 1.14 4.92a.64.64 0 0 0 .55.34h4.33l-.66-5.47h-5.32l-.04.21Zm27.18 5.23h4.46a.54.54 0 0 0 .44-.35l.08-.21c.165-.393.302-.797.41-1.21.19-.79.36-1.59.53-2.41l.27-1.27H80l-.64 5.45Zm-9.51 0h7.25v-.17a26.64 26.64 0 0 0 .68-5.06v-.22h-8l.07 5.45Zm-9.49 0h7.35v-5.47h-8.08l.73 5.47Zm-.73-7.57h8.08v-5.47h-7.34l-.74 5.47Zm-3.35-5.46h-2.52a.63.63 0 0 0-.47.42l-.1.33c-.28.88-.55 1.75-.77 2.64-.093.412-.16.83-.2 1.25l-.1.81h5.42l.67-5.46-1.93.01Zm23.09 0 .63 5.43h5.34v-.4a17.168 17.168 0 0 0-1.12-4.7.51.51 0 0 0-.54-.36h-4.16l-.15.03Zm-9.52 5.43h8.08l-.73-5.43h-7.34l-.01 5.43Zm-11.5-7.58a.64.64 0 0 0 .65-.48 19.997 19.997 0 0 1 1.73-3.92c.21-.36.44-.72.66-1.08l.65-1-.58.21c-2.16.79-6 4.27-6.71 6l-.11.29h3.67l.04-.02Zm17.48-6a20.83 20.83 0 0 1 2.61 5.16c.26.74.35.8 1.12.8h3.5l-.22-.34a16.88 16.88 0 0 0-6.77-6l-.55-.28.31.66Zm-6 5.93h6.66l-.29-.72a18.67 18.67 0 0 0-.33-.81 13.36 13.36 0 0 0-3.44-4.94 5.8 5.8 0 0 0-2.33-1.31l-.27-.07v7.85Zm-2.37-7.73c-3 .78-5.49 4.93-6.21 7.49l-.08.28h6.56V2.26l-.27.07Z"/>
    <path stroke="#B4B4B3" stroke-miterlimit="10" stroke-width="1.7" d="M25.61 41.49c0-4.72 1.36-19.31 19-20.85"/>
    <path fill="#B4B4B3" d="m27.75 38.87-2.12 2.23-2.23-2.12.04 1.85 2.23 2.12 2.13-2.23-.05-1.85Zm14.58-15.74 1.94-2.4-2.39-1.93 1.84-.2 2.39 1.94-1.94 2.39-1.84.2Z"/>
  </g>
</svg>
