<svg xmlns="http://www.w3.org/2000/svg" width="58" height="67" fill="none" viewBox="0 0 58 67">
  <g clip-path="url(#a)">
    <path fill="#B3B3B3" d="m51 30.43-6.31-1.87V12.7h-6.52v9.39h-25.3v-9.4H6.53v47.45h14.09a1 1 0 0 1 1.07.66 25.307 25.307 0 0 0 1.78 2.9c.65.93 1.43 1.77 2.2 2.71H6.72A6.35 6.35 0 0 1 0 59.68v-46.6A6.32 6.32 0 0 1 4.24 6.7a8.29 8.29 0 0 1 2.48-.38h9.12a.89.89 0 0 0 1-.61C18.55 2.07 21.44 0 25.47 0c4.03 0 7 2.06 8.7 5.72a.86.86 0 0 0 .93.6h9.35A6.3 6.3 0 0 1 51 12.66c.06 5.82 0 11.63 0 17.44.006.11.006.22 0 .33ZM28.65 9.5a3.15 3.15 0 1 0-3.18 3.14 3.16 3.16 0 0 0 3.18-3.14Z"/>
    <path fill="#B3B3B3" d="M41.43 66.45A15.83 15.83 0 1 1 57.3 50.71a15.82 15.82 0 0 1-15.87 15.74Zm7.48-10.65c-1.82-1.82-3.58-3.6-5.37-5.34a1.57 1.57 0 0 1-.5-1.24v-8.03H39.8a2.197 2.197 0 0 0 0 .31v9.35c.033.309.175.596.4.81 1 1 2.07 2 3.09 3s2.21 2.25 3.28 3.34l2.34-2.2Z"/>
  </g>
  <defs>
    <clipPath id="a">
      <path fill="#fff" d="M0 0h57.3v66.46H0z"/>
    </clipPath>
  </defs>
</svg>
