<svg xmlns="http://www.w3.org/2000/svg" width="134" height="118" fill="none" viewBox="0 0 134 118">
  <path fill="#342979" d="m132.372 64.956-32.061-16.137a2.803 2.803 0 0 0-2.501 0l-13.362 8.81L67 64.326l-14.918-5.325L36.19 48.82a2.803 2.803 0 0 0-2.501 0L1.629 64.956C.761 65.393.254 66.235.26 67.098v32.26c0 .887.525 1.703 1.367 2.127l32.054 16.133c.787.4 1.753.387 2.514 0L67 102.114l30.803 15.504c.782.397 1.748.39 2.514 0l32.055-16.133c.842-.424 1.366-1.24 1.366-2.128v-32.26c.007-.858-.503-1.707-1.366-2.141ZM32.322 111.42 5.496 97.917V70.732l26.826 10.463v30.225Zm2.617-34.46L8.908 66.805 34.94 53.703l15.223 5.298 10.81 7.805L34.94 76.96Zm29.444 20.958L37.557 111.42V81.195l26.826-10.463v27.186Zm32.06 13.502L69.617 97.917V70.732l26.826 10.463v30.225Zm2.618-34.46L73.028 66.805l12.03-8.45 14.003-4.653 26.032 13.103L99.061 76.96Zm29.443 20.957-26.826 13.503V81.195l26.826-10.463v27.185Z"/>
  <path fill="#342979" d="M100.311 16.518 68.251.381a2.803 2.803 0 0 0-2.502 0L33.69 16.518c-.864.436-1.373 1.282-1.367 2.142v32.26c0 .887.524 1.703 1.367 2.127 34.225 17.219 32.129 16.22 32.628 16.345.69.173 1.388.07 1.94-.211l32.054-16.134c.842-.424 1.367-1.24 1.367-2.127V18.66c.006-.852-.5-1.706-1.367-2.142ZM64.383 62.982 37.557 49.48V22.295l26.826 10.462v30.225ZM67 28.522 40.967 18.368 67 5.266l26.033 13.103L67 28.522ZM96.443 49.48 69.617 62.982V32.757l26.826-10.462V49.48Z"/>
</svg>
