<svg xmlns="http://www.w3.org/2000/svg" width="66" height="62" fill="none" viewBox="0 0 66 62">
  <g clip-path="url(#a)">
    <path fill="#B3B3B3" d="M0 10.56h44.88c-3.2 3.33-4.76 6.83-9.75 6.67-9.35-.3-18.71-.09-28.4-.09v37.49h37.42c0-6.61.22-13.15-.07-19.66-.22-5.06 3.11-7.82 6.39-11v37.45H0V10.56Z"/>
    <path fill="#B3B3B3" d="M28.37 35.6C37.91 21.05 50.57 9.65 65 0c-6.58 8.06-13.68 15.77-19.66 24.27S34.4 42.2 29.25 50.8l-19-24.8c3.25-.62 6.95 1.22 18.12 9.6Z"/>
  </g>
  <defs>
    <clipPath id="a">
      <path fill="#fff" d="M0 0h65.03v61.42H0z"/>
    </clipPath>
  </defs>
</svg>
