<svg xmlns="http://www.w3.org/2000/svg" width="58" height="75" fill="none" viewBox="0 0 58 75">
  <g clip-path="url(#a)">
    <path fill="#858686" d="m30.4 31.05-3.68 3.58c-.35.33-.3.78-.37 1.18-.42 2.61-.8 5.21-1.22 7.82a2.73 2.73 0 1 1-5.37-.92c.487-3.1.97-6.193 1.45-9.28a4.11 4.11 0 0 1 1.46-2.63c2.9-2.58 5.76-5.21 8.61-7.85a2.33 2.33 0 0 1 2.66-.53 18.002 18.002 0 0 1 5.49 3.9 1.34 1.34 0 0 1 .3 1.06v15.48a1.549 1.549 0 0 0 .43 1.14c2.26 2.56 4.47 5.16 6.79 7.67a8.27 8.27 0 0 1 2.15 4.41c.83 4.8 1.75 9.58 2.63 14.37A3 3 0 0 1 50.15 74a3.16 3.16 0 0 1-3.85-.76 3.46 3.46 0 0 1-.76-1.79c-.83-4.75-1.69-9.5-2.5-14.25a2.19 2.19 0 0 0-.74-1.2c-3.37-3.39-6.71-6.81-10.12-10.16a5.25 5.25 0 0 1-1.83-4.32c.17-3.24 0-6.5 0-9.75l.05-.72Z"/>
    <path fill="#858686" d="M36 52.91a.61.61 0 0 1 1.17.21v20.36c0 .66-.23.75-.81.75H.8c-.66 0-.8-.17-.8-.81V1.23A1.23 1.23 0 0 1 1.24 0h34.35a4 4 0 0 0 1.25 0c.25-.08.27.1.27.33 0 2.64 0 5.27.07 7.9 0 .48-.15.44-.47.39a4 4 0 0 0-1.54 0c-.5.12-.55-.11-.55-.51V3.17c0-.61-.21-.68-.72-.68H3.29c-.62 0-.79.13-.79.77v67.8c0 .35-.07.65.52.65h30.05c1.52 0 1.52 0 1.52-1.49V56.93a3.66 3.66 0 0 1 .3-1.43c.4-.86.75-1.72 1.11-2.59Z"/>
    <path fill="#858686" d="M30.15 45.67c1.68 1.58 3.35 3.16 5.05 4.72a.65.65 0 0 1 .16.85c-2.493 6.16-4.97 12.333-7.43 18.52-.15.36-.29.52-.7.52h-5.65c-.41 0-.62 0-.43-.54 3.033-8.08 6.057-16.16 9.07-24.24h.06l-.13.17Zm.11-30.2a5.66 5.66 0 1 1 11.31.476 5.66 5.66 0 0 1-11.31-.476Zm10.79 18.28 2.32 1.84c2.05 1.62 4.1 3.23 6.13 4.87a2.682 2.682 0 0 1 .55 3.82 2.58 2.58 0 0 1-3.51.7c-1.81-1.3-3.53-2.73-5.28-4.11a.53.53 0 0 1-.21-.49c.01-2.14 0-4.28 0-6.63ZM57.3 22.21l-4.89-4.89v2.77h-8.48v4.25h8.48v2.77l4.89-4.9Z"/>
  </g>
  <defs>
    <clipPath id="a">
      <path fill="#fff" d="M0 0h57.3v74.36H0z"/>
    </clipPath>
  </defs>
</svg>
