<svg xmlns="http://www.w3.org/2000/svg" width="39" height="26" fill="none" viewBox="0 0 39 26">
  <path fill="#342979" d="M11.1 24.77a.67.67 0 0 0 .66.67h14.7a.67.67 0 0 0 .66-.64 13.742 13.742 0 0 0-.12-2.33h10.68a.66.66 0 0 0 .66-.64c0-.23.14-5.61-3.23-8.7a.65.65 0 0 0-.85 0s-4 3-7.62 0a.65.65 0 0 0-.85 0A9.872 9.872 0 0 0 23.71 16a.67.67 0 0 0-.67.08c-.16.12-4 3-7.62 0a.66.66 0 0 0-.62-.08 8.72 8.72 0 0 0-2-2.82.65.65 0 0 0-.85 0s-4 3-7.62 0a.65.65 0 0 0-.85 0A12 12 0 0 0 0 21.8c0 .178.069.35.19.48a.67.67 0 0 0 .47.2h10.66a14.73 14.73 0 0 0-.22 2.29ZM26.29 14.5c3.47 2.42 7 .74 8.29 0 2 2.12 2.35 5.32 2.42 6.68H26.69a10.829 10.829 0 0 0-2-4.17 9.978 9.978 0 0 1 1.6-2.51Zm-11.22 3c3.47 2.42 7 .74 8.29 0 2 2.12 2.35 5.33 2.42 6.68H12.46a11.19 11.19 0 0 1 2.61-6.72v.04ZM1.35 21.15A11.15 11.15 0 0 1 4 14.5c3.47 2.42 7 .74 8.28 0a7.999 7.999 0 0 1 1.53 2.46 12 12 0 0 0-2.15 4.22l-10.31-.03Z"/>
  <path fill="#342979" d="M1.73 6.28a6.28 6.28 0 0 0 8.675 5.806 6.219 6.219 0 0 0 2.035-1.366c.164-.16.318-.33.46-.51a6.29 6.29 0 0 0 6.2 5.32 6.27 6.27 0 0 0 6.22-5.46 6.27 6.27 0 0 0 9.44.65 6.28 6.28 0 0 0 1.84-4.44 6.28 6.28 0 0 0-12.5-.82 6.249 6.249 0 0 0-9.44-.65 7.3 7.3 0 0 0-.46.51 6.28 6.28 0 0 0-12.48 1l.01-.04Zm25.1-3.5a4.91 4.91 0 0 1 3.5-1.45 5 5 0 1 1 0 10 5 5 0 0 1-4.95-5 4.91 4.91 0 0 1 1.45-3.55Zm-11.22 3a4.95 4.95 0 1 1 3.5 8.45 5 5 0 0 1-4.95-4.95 4.891 4.891 0 0 1 1.45-3.53v.03ZM8 1.33a5 5 0 1 1 0 10 5 5 0 0 1 0-10Z"/>
</svg>
