<svg xmlns="http://www.w3.org/2000/svg" width="11" height="20" fill="none" viewBox="0 0 11 20">
  <defs>
    <clipPath id="a">
      <path fill="#fff" d="M0 0h10.35v19.38H0z"/>
    </clipPath>
  </defs>
  <g clip-path="url(#a)">
    <path fill="#1B1464" d="M0 9.69V1A1.4 1.4 0 0 1 .05.6.8.8 0 0 1 .78 0h8.58a1.34 1.34 0 0 1 .35 0 .8.8 0 0 1 .61.65 1.34 1.34 0 0 1 0 .35v17.35c.015.12.015.24 0 .36a.81.81 0 0 1-.74.66H1a1 1 0 0 1-.65-.16 1 1 0 0 1-.35-.8V9.69Zm9.81-.08V2c0-.29 0-.3-.31-.3H.84c-.28 0-.29 0-.29.3v15.22c0 .29 0 .3.3.3h8.64c.31 0 .32 0 .32-.31v-7.6Zm-4.65 9.48h.75a.592.592 0 0 0 .61-.6.57.57 0 0 0-.58-.65H4.37a.58.58 0 0 0-.58.65.59.59 0 0 0 .61.6h.76Zm0-18.2h.7C5.91.88 6 .8 6.05.75 6.1.7 5.91.62 5.85.62H4.47c-.07 0-.14.08-.21.13-.07.05.14.13.21.13.22.02.45.01.67.01h.02Z"/>
    <path fill="#1B1464" d="M9.81 9.61v7.6c0 .31 0 .31-.32.31H.85c-.3 0-.3 0-.3-.3V2c0-.29 0-.3.29-.3H9.5c.3 0 .31 0 .31.3v7.61Zm-9 0v7.12c0 .41.11.52.52.52H9c.47 0 .57-.09.57-.56V2.56a1.93 1.93 0 0 0 0-.24.33.33 0 0 0-.36-.32 1.369 1.369 0 0 0-.28 0H1.39c-.48 0-.58.1-.58.57v7.04Zm4.35 9.48H4.4a.592.592 0 0 1-.61-.6.58.58 0 0 1 .58-.65h1.57a.57.57 0 0 1 .58.65.59.59 0 0 1-.61.6h-.75Zm0-.28h.76a.31.31 0 0 0 .35-.32.33.33 0 0 0-.34-.39H4.41a.31.31 0 0 0-.32.37.31.31 0 0 0 .35.34c.22.01.46 0 .7 0h.02Z"/>
    <path fill="#1B1464" d="M1.75 8.32a2.34 2.34 0 0 1 .44-1.52 1.37 1.37 0 0 1 1.05-.53.55.55 0 0 1 .57.37c.16.48.32 1 .45 1.45a.64.64 0 0 1-.21.6c-.1.11-.22.21-.32.32a.29.29 0 0 0 0 .38 5.35 5.35 0 0 0 1.76 1.75.34.34 0 0 0 .5-.06l.3-.29a.66.66 0 0 1 .71-.14l1.21.53a.54.54 0 0 1 .28.78 1.9 1.9 0 0 1-1.64 1.14 2.48 2.48 0 0 1-2-.58c-.8-.69-1.57-1.42-2.31-2.17a3 3 0 0 1-.79-2.03Zm4.92 4.46a1.61 1.61 0 0 0 1.51-.95c.08-.18 0-.28-.13-.35L6.89 11a.37.37 0 0 0-.44.09l-.3.29a.67.67 0 0 1-.86.1 5.74 5.74 0 0 1-1.87-1.87.64.64 0 0 1 .09-.85c.107-.093.204-.197.29-.31a.53.53 0 0 0 .11-.37c-.11-.43-.25-.86-.39-1.28a.26.26 0 0 0-.31-.19 1.08 1.08 0 0 0-.86.54 2 2 0 0 0-.26 1.11 2.82 2.82 0 0 0 .89 2c.66.65 1.33 1.29 2 1.9a2.34 2.34 0 0 0 1.69.62Z"/>
    <path fill="#1B1464" d="M7.32 10a.34.34 0 0 1 0 .1l-.15.19c-.06-.06-.15-.11-.17-.18-.02-.07 0-.32-.06-.47a2.25 2.25 0 0 0-2.05-1.77c-.13 0-.33 0-.31-.19.02-.19.21-.15.34-.14A2.59 2.59 0 0 1 7.32 10Z"/>
    <path fill="#1B1464" d="M6.6 10s-.07.13-.14.15c-.07.02-.18-.08-.19-.2a1.37 1.37 0 0 0-1-1.29c-.1 0-.21 0-.31-.05s-.21-.07-.18-.18A.27.27 0 0 1 5 8.26 1.72 1.72 0 0 1 6.6 10Z"/>
    <path fill="#1B1464" d="M6.67 12.78A2.34 2.34 0 0 1 5 12.19c-.7-.61-1.37-1.25-2-1.9a2.82 2.82 0 0 1-.89-2 2 2 0 0 1 .26-1.11 1.08 1.08 0 0 1 .86-.54.26.26 0 0 1 .31.19c.14.42.28.85.39 1.28a.53.53 0 0 1-.11.37 2.09 2.09 0 0 1-.29.31.64.64 0 0 0-.09.85 5.74 5.74 0 0 0 1.87 1.83.67.67 0 0 0 .86-.1l.3-.29a.37.37 0 0 1 .42-.08l1.16.52c.17.07.21.17.13.35a1.61 1.61 0 0 1-1.51.91Z"/>
  </g>
</svg>
