<svg xmlns="http://www.w3.org/2000/svg" width="61" height="60" fill="none" viewBox="0 0 61 60">
  <g clip-path="url(#a)">
    <path fill="#B3B3B3" d="m13.77 55.17-7.91-7.32c3.1-2.7 6.61-4.21 4.16-9.31-2.45-5.1-5.67-2.6-9.47-2.47C.37 32.59.2 29.19 0 25.15c5.41 1.52 9.13.69 10.18-4.95.41-2.2.59-2.17-5.43-7l6.53-7.48c3.13 5.8 7 5.84 11.67 2.77 3.6-2.34 1.14-5.28 1.5-8.46h9.69c.16 3.14-2.14 6.88 3.28 8.75 5 1.73 6.48-1.31 8.78-5 2.84 2.59 5.42 4.92 8.07 7.33-2.66 2.78-6.94 4-4.16 8.82 2.28 3.91 2 4.06 9.54 3 .24 3.31.47 6.59.72 10-3.37.94-7.92-1.94-9 3.87-2.52-2.39-5.31-3.44-5.12-7.79.3-7.18-5.26-13.41-12-15.09-6.74-1.68-14 1-17.43 6.35-4.2 6.58-3.82 14.13 1.09 19.89 3.29 3.86 7.75 6.2 12.6 5.5 4.31-.63 6.12 1.72 8.77 4.28-5.56 1.36-3.48 5.34-3.38 9.13H26c1.13-4.57.57-8.41-5.28-9.26-2.33-.33-2.29-.6-6.95 5.36Z"/>
    <path fill="#B3B3B3" d="M20.11 27.3c1.82 1.61 3.23 2.88 4.66 4.12 1.94 1.69 5.77 1.66 7.28 0 1.51-1.66 1.08-5.62-1-7.44-1.35-1.21-2.65-2.46-4-3.7-.07-.07-.06-.21-.08-.32 6.35-3.14 14.27 2.67 13.55 10.21A5.12 5.12 0 0 0 42.68 35c4.78 4.19 9.56 8.36 14.32 12.56 2.79 2.48 3 4.16.86 6.6-2.14 2.44-3.86 2.31-6.68-.16-4.86-4.25-9.74-8.49-14.5-12.86a4.44 4.44 0 0 0-4.46-1.32C24.69 41.36 19 35.61 20.11 27.3Z"/>
  </g>
  <defs>
    <clipPath id="a">
      <path fill="#fff" d="M0 0h60.37v59.07H0z"/>
    </clipPath>
  </defs>
</svg>
