<svg xmlns="http://www.w3.org/2000/svg" width="68" height="67" fill="none" viewBox="0 0 68 67">
  <g clip-path="url(#a)">
    <path fill="#B3B3B3" d="m9.34 16.4 5.41 4.72H1V7.74l5.92 5.52c.88-1 1.75-2 2.69-3A32.47 32.47 0 0 1 26.87.71 33.3 33.3 0 0 1 47 2.73a32.46 32.46 0 0 1 11.25 7.93 33.79 33.79 0 0 1 7.14 33.54 31.172 31.172 0 0 1-5.9 10.46 33.14 33.14 0 0 1-11.61 9 35.399 35.399 0 0 1-10.18 2.85 32.48 32.48 0 0 1-19.56-3.59A32.37 32.37 0 0 1 4.39 49.21c-1.86-3.48-3.56-7-4-11C.15 36.17 0 34.13 0 32.1a2.51 2.51 0 0 1 2.31-2.32c1.45.12 2.08.87 2.06 2.54a29.88 29.88 0 0 0 6.07 18.86 28.42 28.42 0 0 0 17.31 10.88 28.16 28.16 0 0 0 17.39-1.74 28.91 28.91 0 0 0 16.94-19.46 27.23 27.23 0 0 0-1.23-18.5c-3.83-9-10.49-15-20-17.34-9.28-2.26-17.85-.51-25.4 5.62-2.01 1.65-3.8 3.57-6.11 5.76Z"/>
    <path fill="#B3B3B3" d="M17.59 30.85V19.57c0-2.51 1.43-3.91 4-3.91h24.18c2.69 0 4.13 1.41 4.13 4.06v10.13c.016.415.155.815.4 1.15.67-1.74 1.44-2.21 3.26-1.73a1.83 1.83 0 0 1 1 1.18c.08.778.08 1.562 0 2.34 0 2.64 0 2.59-2.63 2.62-1.28 0-1.69-.44-1.2-1.69l-.44-.13a4.001 4.001 0 0 0-.41 1.13v10.12c0 2.64-1.26 4-3.9 4.11-.6 2.5-.59 2.43-3.8 2.33-1.69-.06-1.36-1.24-1.45-2.3H26.84c-.33 2.37-.33 2.3-3.55 2.3-1.7 0-1.66-1-1.6-2.3-1.7-.07-3.24-.41-3.83-2.23a5.849 5.849 0 0 1-.26-1.54V33.68l-.6-.17-.51 1.83c-.903.047-1.809.03-2.71-.05a1.28 1.28 0 0 1-.85-.9 31.315 31.315 0 0 1 0-4.11c.06-1 .86-1.23 1.7-1.09.84.14 2-.62 2.11 1 .07.288.197.56.37.8l.48-.14Zm30-1.18v-6c.06-1.42-.54-1.88-1.9-1.85-3.18.06-6.36 0-9.54 0-1.82 0-2.08.26-2.09 2.11 0 3.86.07 7.73 0 11.58 0 1.33.64 1.81 1.65 1.84 3.33.07 6.65.08 10 0 1.33 0 2.13-.63 2-2.26a51.704 51.704 0 0 1-.16-5.42h.04Zm-27.61-.18c0 2 .11 3.93 0 5.87-.11 1.45.59 2 1.78 2 3.23.06 6.46.07 9.69 0 1.11 0 2.07-.5 2.07-1.89v-12c0-1.06-.45-1.67-1.69-1.64-3.43.06-6.85.06-10.28 0-1.17 0-1.54.46-1.53 1.53-.02 2.02-.08 4.08-.08 6.13h.04ZM38.84 19.4c-.46-.92-.77-2.15-1.15-2.17-2.85-.17-5.72-.09-8.57-.09v2.26h9.72Zm-16.2 22.7c-.34 0-.76-.13-1 0-.6.37-1.51.81-1.58 1.32a2.08 2.08 0 0 0 1.12 1.69 5.65 5.65 0 0 0 2.93-.11 2.15 2.15 0 0 0 1.06-1.59c.08-.86-.61-1.33-1.51-1.35l-1.02.04Zm22.25 0c-1 0-2.28-.37-2.56 1.14-.09.47.2 1.44.46 1.49 1.221.262 2.473.357 3.72.28.38 0 1.06-1 1-1.33A3.82 3.82 0 0 0 46 42.13c-.21-.19-.72-.03-1.11-.03Zm-7.42.21v-.15H30v.15h7.47ZM30 43.63v.14h7.5v-.14H30Zm7.58 1.63v-.14H30v.14h7.58Z"/>
  </g>
  <defs>
    <clipPath id="a">
      <path fill="#fff" d="M0 0h67.14v66.79H0z"/>
    </clipPath>
  </defs>
</svg>
