<svg xmlns="http://www.w3.org/2000/svg" width="47" height="60" fill="none" viewBox="0 0 47 60">
  <defs>
    <clipPath id="a">
      <path fill="#fff" d="M0 0h46.7v59.04H0z"/>
    </clipPath>
  </defs>
  <g clip-path="url(#a)">
    <path fill="#CECAC5" d="M18.31 44.85c-3.65-6-7.24-11.76-10.72-17.6a17.29 17.29 0 0 1-1.42-15A17.9 17.9 0 0 1 24.55.06a18 18 0 0 1 16.85 15.7 16.94 16.94 0 0 1-2.21 11.42C35.93 32.61 32.57 38 29.25 43.4l-.8 1.32c3.36.59 6.69 1 9.92 1.81a24 24 0 0 1 6.27 2.52c2.78 1.63 2.72 4 0 5.74-3.2 2.07-6.86 2.84-10.55 3.39A65.489 65.489 0 0 1 7.08 57a17.997 17.997 0 0 1-3.42-1.27C2 54.91 0 54.15 0 51.93c0-2.22 1.89-3.15 3.6-3.8a59.575 59.575 0 0 1 7.83-2.32c2.19-.5 4.46-.64 6.88-.96Zm-3-26.67a8 8 0 0 0 7.89 8.09 8.13 8.13 0 0 0 8.23-8 8.25 8.25 0 0 0-8.13-8.14 8.1 8.1 0 0 0-7.95 8.05h-.04Zm8 34.34a21.707 21.707 0 0 1-2-3.07c-.93-2.19-2.45-2.87-4.66-2.22-2.65.77-5.51 1.45-8.18 2.52-1.67.67-1.61 1.88 0 2.81a15.351 15.351 0 0 0 3.67 1.54 44.091 44.091 0 0 0 17.47.9 43.383 43.383 0 0 0 7.55-1.94c.83-.27 1.43-1.23 2.14-1.87-.71-.7-1.32-1.78-2.16-2-3.11-.87-6.3-1.5-9.47-2.12-.37-.07-1 .46-1.29.87-1.04 1.46-1.98 2.98-3.01 4.58h-.06Z"/>
  </g>
  
</svg>
