<svg xmlns="http://www.w3.org/2000/svg" width="18" height="18" fill="none" viewBox="0 0 18 18">
  <mask id="a" width="18" height="18" x="0" y="0" maskUnits="userSpaceOnUse" style="mask-type:luminance">
    <path fill="#fff" d="M0 0h17.81v17.9H0V0Z"/>
  </mask>
  <g mask="url(#a)">
    <path fill="#fff" d="M0 17.9c.15-.55.29-1.08.44-1.6l.79-2.89a.33.33 0 0 0 0-.19A8.83 8.83 0 0 1 .12 8a8.67 8.67 0 0 1 2.1-4.9 8.57 8.57 0 0 1 5.35-3 8.65 8.65 0 0 1 7.51 2.35 8.28 8.28 0 0 1 2.67 5.3 8.63 8.63 0 0 1-4 8.58 8.45 8.45 0 0 1-5.58 1.38 8.632 8.632 0 0 1-3.29-1 .399.399 0 0 0-.32 0L.15 17.87 0 17.9ZM6 4.78a.9.9 0 0 0-.72.22 2.47 2.47 0 0 0-.64.89 2.79 2.79 0 0 0 .07 2.23 8.32 8.32 0 0 0 1 1.55A8.22 8.22 0 0 0 10.6 13a2.55 2.55 0 0 0 2.14-.35 1.78 1.78 0 0 0 .72-1.54.29.29 0 0 0-.18-.28l-.81-.4c-.33-.16-.66-.32-1-.46-.34-.14-.35-.07-.52.15l-.52.65c-.31.37-.31.36-.76.17a5.91 5.91 0 0 1-2.84-2.5c-.15-.24-.13-.31.06-.54a5.44 5.44 0 0 0 .53-.73.45.45 0 0 0 0-.36c-.2-.53-.43-1-.64-1.57-.13-.32-.34-.54-.78-.46Z"/>
  </g>
</svg>
