<svg xmlns="http://www.w3.org/2000/svg" width="21" height="18" fill="none" viewBox="0 0 21 18">
  <mask id="a" width="21" height="18" x="0" y="0" maskUnits="userSpaceOnUse" style="mask-type:luminance">
    <path fill="#fff" d="M0 0h20.22v17.58H0V0Z"/>
  </mask>
  <g mask="url(#a)">
    <path fill="#fff" d="M0 15.88v-.12l6.67-7L0 1.82v-.31A3.45 3.45 0 0 1 .46.23.4.4 0 0 1 .84 0h1.31A12 12 0 0 1 5 .51a3.46 3.46 0 0 1 1.6.88L10 5c.048.056.091.117.13.18l.13-.18c1-1.06 2-2.12 3-3.2a5 5 0 0 1 1.41-1 8.08 8.08 0 0 1 4.66-.74.46.46 0 0 1 .18.1c.351.367.593.824.7 1.32a.32.32 0 0 1-.1.33L16.21 6c-.73.78-1.47 1.55-2.21 2.32l-.47.51.72.69 1.86 2 4 4.32a.32.32 0 0 1 .08.2 2.55 2.55 0 0 1-.72 1.43.28.28 0 0 1-.19.09 8.998 8.998 0 0 1-3.22-.19 5.65 5.65 0 0 1-2.68-1.46l-3.13-3.3a.939.939 0 0 1-.11-.18l-.18.2c-1 1.1-2.08 2.19-3.09 3.31a4 4 0 0 1-2 1.2 13.55 13.55 0 0 1-3.86.44c-.51 0-.59-.05-.79-.54v-.13L0 15.88Z"/>
  </g>
</svg>
